<?xml version="1.0" encoding="UTF-8" standalone="no"?>
<!-- Generator: Adobe Illustrator 11.0, SVG Export Plug-In . SVG Version: 6.0.0 Build 78)  -->

<!-- Created by Cary Bass http://commons.wikipedia.com/wiki/User:Bastique on January 20, 2006 -->

<svg
   xmlns:dc="http://purl.org/dc/elements/1.1/"
   xmlns:cc="http://creativecommons.org/ns#"
   xmlns:rdf="http://www.w3.org/1999/02/22-rdf-syntax-ns#"
   xmlns:svg="http://www.w3.org/2000/svg"
   xmlns="http://www.w3.org/2000/svg"
   xmlns:sodipodi="http://sodipodi.sourceforge.net/DTD/sodipodi-0.dtd"
   xmlns:inkscape="http://www.inkscape.org/namespaces/inkscape"
   version="1.0"
   width="368.59781"
   height="100.78838"
   id="radioactive"
   sodipodi:version="0.32"
   inkscape:version="0.48.5 r10040"
   sodipodi:docname="corebeam-simplified.svg">
  <sodipodi:namedview
     inkscape:window-height="988"
     inkscape:window-width="1680"
     inkscape:pageshadow="2"
     inkscape:pageopacity="0.0"
     guidetolerance="10.0"
     gridtolerance="10.0"
     objecttolerance="10.0"
     borderopacity="1.0"
     bordercolor="#666666"
     pagecolor="#ffffff"
     id="base"
     inkscape:zoom="3.098625"
     inkscape:cx="182.63278"
     inkscape:cy="41.02019"
     inkscape:window-x="1672"
     inkscape:window-y="-8"
     inkscape:current-layer="g3105"
     inkscape:document-units="mm"
     grid_units="mm"
     width="169.33334mm"
     height="148.16667mm"
     units="mm"
     showgrid="false"
     inkscape:window-maximized="1"
     fit-margin-top="0"
     fit-margin-left="0"
     fit-margin-right="0"
     fit-margin-bottom="0">
    <inkscape:grid
       id="GridFromPre046Settings"
       type="xygrid"
       originx="-0.47411478mm"
       originy="-1.2579272mm"
       spacingx="0.25mm"
       spacingy="0.25mm"
       color="#3f3fff"
       empcolor="#3f3fff"
       opacity="0.15"
       empopacity="0.38"
       empspacing="5"
       units="mm"
       visible="true"
       enabled="true"
       snapvisiblegridlinesonly="true" />
  </sodipodi:namedview>
  <defs
     id="defs58" />
  <metadata
     id="metadata60">
    <rdf:RDF>
      <cc:Work
         rdf:about="">
        <dc:format>image/svg+xml</dc:format>
        <dc:type
           rdf:resource="http://purl.org/dc/dcmitype/StillImage" />
        <dc:title />
      </cc:Work>
    </rdf:RDF>
  </metadata>
  <g
     style="display:inline"
     inkscape:label="Background"
     id="g3105"
     inkscape:groupmode="layer"
     transform="translate(6.0601144,6.8913444)">
    <path
       style="fill:#ffff00;fill-opacity:1;stroke:none"
       d="M 57.71875,0 56.188506,0.41191825 55.0625,1.53125 0.40625,96.15625 -0.0124234,97.710343 0.40625,99.25 l 1.1416319,1.12655 1.5458681,0.4047 109.25,0 1.54587,-0.41192 1.14163,-1.11933 0.41867,-1.554095 L 115.03125,96.15625 102.375,74.25 l 259.125,0 2.76467,-0.556308 2.25445,-1.518325 1.51832,-2.254446 0.55631,-2.764671 0,-29.0625 -0.55631,-2.764671 -1.51832,-2.254447 -2.25445,-1.518325 L 361.5,31 77.40625,31 60.40625,1.53125 59.264618,0.4047031 57.71875,0 l 0,0"
       transform="translate(-6.0601144,-6.8913444)"
       id="path3109"
       inkscape:connector-curvature="0" />
  </g>
  <g
     sodipodi:insensitive="true"
     inkscape:groupmode="layer"
     id="layer2"
     inkscape:label="Foreground"
     style="display:inline"
     transform="translate(6.0601144,6.8913444)">
    <g
       style="font-size:246.1071167px;font-style:normal;font-weight:normal;line-height:125%;letter-spacing:0px;word-spacing:0px;fill:#000000;fill-opacity:1;stroke:none;font-family:Sans"
       id="text3002"
       transform="matrix(0.17237959,0,0,0.17237959,-1.3459886,-1.305991)">
      <path
         inkscape:connector-curvature="0"
         id="path3074"
         style="font-variant:normal;font-stretch:normal;font-family:Zian;-inkscape-font-specification:Zian"
         d="m 1909.1945,186.69712 3.1244,0 2.4991,0.23288 2.5705,0.69853 2.6418,1.16417 2.7132,1.6298 2.7846,2.09545 2.8559,2.56109 5.9259,6.5191 42.1795,42.05932 40.2266,-40.58712 13.9698,-13.60932 5.3775,-2.0728 2.3959,-0.51826 2.2007,-0.17284 3.0042,0 2.7038,0.20096 2.5836,0.60277 2.4634,1.00457 2.3433,1.40636 2.2232,1.80817 2.103,2.20997 1.9828,2.61177 1.8627,3.01357 0.9912,3.3949 0.3306,2.73374 0,134.71 -0.1934,2.44658 -0.5802,2.35269 -0.967,2.25882 -1.3538,2.16492 -1.7406,2.07105 -2.1273,1.97716 -5.4151,3.67268 -3.3649,1.26178 -3.1243,0.42059 -4.8067,0 -2.3077,-0.16523 -2.2363,-0.4957 -2.165,-0.82617 -2.0935,-1.15663 -3.9731,-3.30466 -3.6877,-4.62652 -1.367,-2.46347 -0.9764,-3.06432 -0.5858,-3.66517 -0.1952,-4.26603 0,-74.0244 -22.9224,22.89234 -7.9611,7.63071 -2.9743,1.78756 -3.1545,1.27681 -3.3346,0.76607 -3.5149,0.25532 -2.8729,-0.23844 -2.9103,-0.71537 -2.948,-1.1923 -2.9854,-1.66922 -3.023,-2.14616 -3.0606,-2.62308 -6.2337,-6.67695 -19.828,-19.7078 0,77.02864 -0.2629,3.7722 -0.7886,3.44549 -1.3143,3.11877 -1.8401,2.79207 -2.3659,2.46535 -2.8915,2.13864 -3.4173,1.81192 -3.9431,1.48522 -2.4034,0.36051 -4.8068,0 -2.4766,-0.18589 -2.3828,-0.55766 -2.2888,-0.92943 -2.195,-1.30121 -2.1011,-1.67299 -2.0072,-2.04476 -3.7327,-5.20484 -1.5322,-4.14584 -0.5107,-4.02568 0,-132.54695 0.2366,-2.9779 0.7097,-2.80517 1.1829,-2.63244 1.6561,-2.45971 2.1293,-2.28698 2.6024,-2.11426 3.0756,-1.94152 3.5487,-1.7688 5.0472,-0.72102 0,0 m -121.1309,0 3.7253,0 3.2539,0.3324 3.0925,0.99707 2.931,1.66174 2.7695,2.32642 2.608,2.99108 2.4466,3.65576 2.2851,4.32043 2.1237,4.9851 46.6857,92.32025 16.7638,33.97789 0,6.48915 -0.2254,2.66626 -0.676,2.53108 -1.1266,2.39588 -1.5772,2.26068 -2.0279,2.1255 -2.4784,1.99031 -2.9291,1.85512 -3.3797,1.71992 -5.0472,0.72101 -3.1244,0 -3.2841,-0.34361 -3.1225,-1.03083 -2.9611,-1.71804 -2.7996,-2.40527 -2.6381,-3.09249 -2.4766,-3.7797 -2.3151,-4.46693 -2.1536,-5.15414 -31.9651,-63.02884 -11.0555,-21.33015 -36.2612,72.52231 -13.8495,26.73769 -3.5751,3.10188 -3.6351,2.21562 -3.6952,1.32938 -3.7553,0.44312 -3.0042,0 -2.6738,-0.20654 -2.5536,-0.61962 -2.4334,-1.03271 -2.3133,-1.44579 -2.1931,-1.85887 -2.0729,-2.27195 -1.9527,-2.68504 -1.8326,-3.09812 -0.8112,-3.45486 -0.2704,-2.67379 0,-2.64372 0.7661,-3.53748 2.2982,-5.80568 3.8304,-8.07389 5.3626,-10.34211 57.9217,-114.40135 3.53,-3.57495 3.7402,-2.55357 3.9506,-1.53219 4.1609,-0.51082 0,0 m -251.8752,0 134.4696,0 2.7038,0.20096 2.5836,0.60277 2.4634,1.00457 2.3433,1.40636 2.2232,1.80817 2.103,2.20997 1.9828,2.61177 1.8627,3.01357 0.9912,3.51507 0.3306,2.61357 0,4.80678 -0.2028,2.53112 -0.6084,2.42595 -1.0139,2.32079 -1.4195,2.21563 -1.8251,2.11048 -2.2306,2.0053 -2.6362,1.90015 -3.0418,1.79499 -4.0859,1.26187 -3.8453,0.4205 -110.0752,0 0,21.99102 85.08,0 3.8904,0.20094 3.56,0.60275 3.2296,1.00456 2.899,1.40636 2.5687,1.80817 2.2381,2.20998 1.9077,2.61178 1.5773,3.01359 1.2617,3.57511 0.4207,3.27455 0,3.00424 -0.2404,3.16762 -0.721,2.95355 -1.2017,2.7395 -1.6824,2.52544 -2.1631,2.31138 -2.6437,2.09733 -3.1244,1.88326 -3.605,1.66921 -2.4635,0.54081 -2.3433,0.18021 -88.4447,0 0,21.99101 107.6719,0 4.5175,0.2873 4.0595,0.86185 3.6013,1.4364 3.1431,2.01097 2.6851,2.58552 2.2269,3.16007 1.7688,3.73464 1.3106,4.30919 0,5.76813 -0.1934,2.44658 -0.5803,2.35269 -0.967,2.25882 -1.3538,2.16492 -1.7405,2.07105 -2.1274,1.97716 -5.415,3.67268 -3.3649,1.26178 -3.1243,0.42059 -136.152,0 -2.6719,-0.20654 -2.548,-0.61962 -2.424,-1.03271 -2.3001,-1.44579 -2.1762,-1.85887 -2.0523,-2.27195 -1.9284,-2.68504 -1.8044,-3.09812 -0.9913,-3.27461 -0.3305,-2.85404 0,-132.90745 0.2403,-3.16754 0.7211,-2.9535 1.2016,-2.73947 1.6824,-2.52543 2.1631,-2.31139 2.6437,-2.09736 3.1244,-1.88332 3.6051,-1.66928 2.5235,-0.54064 2.2833,-0.18038 0,0 m -186.5031,0 102.6247,0 5.4433,0.32301 5.3344,0.96891 5.2254,1.6148 5.1166,2.2607 5.0077,2.90659 4.8988,3.55249 4.79,4.19838 4.681,4.84428 4.7841,7.75101 3.4173,7.51061 1.1961,3.66517 0.8543,3.60506 0.5127,3.54497 0.1709,3.48487 0,7.09 -0.1653,3.47368 -0.4957,3.51123 -0.8262,3.54877 -1.1567,3.58631 -3.3046,7.28526 -4.6264,7.43543 4.6264,7.59325 3.3046,7.27778 1.9829,6.9623 0.4957,3.36285 0.1653,3.28399 0,8.17152 -0.2366,4.09892 -0.7098,4.1252 -1.183,4.15149 -1.6561,4.17776 -2.1292,4.20406 -2.6024,4.23033 -3.0756,4.25662 -3.5487,4.28291 -4.3843,3.74591 -4.3806,3.24645 -4.3768,2.747 -4.3731,2.24755 -4.3692,1.74809 -4.3656,1.24863 -4.3617,0.74918 -4.358,0.24973 -104.908,0 -2.6719,-0.20654 -2.5479,-0.61962 -2.4241,-1.03271 -2.3001,-1.44579 -2.1762,-1.85887 -2.0523,-2.27195 -1.9283,-2.68504 -1.8044,-3.09812 -0.9914,-3.27461 -0.3305,-2.85404 0,-132.90745 0.2403,-3.16754 0.7211,-2.9535 1.2017,-2.73947 1.6824,-2.52543 2.163,-2.31139 2.6437,-2.09736 3.1244,-1.88332 3.6051,-1.66928 2.5236,-0.54064 2.2832,-0.18038 0,0 m 23.0725,42.78034 0,21.99102 87.7238,0 0,-21.99102 -87.7238,0 m 0,64.77136 0,21.99101 87.7238,0 0,-21.99101 -87.7238,0 m -209.5756,-107.5517 134.4697,0 2.7038,0.20096 2.5836,0.60277 2.4634,1.00457 2.3433,1.40636 2.2232,1.80817 2.103,2.20997 1.9828,2.61177 1.8627,3.01357 0.9912,3.51507 0.3306,2.61357 0,4.80678 -0.2028,2.53112 -0.6084,2.42595 -1.0139,2.32079 -1.4195,2.21563 -1.8251,2.11048 -2.2306,2.0053 -2.6362,1.90015 -3.0418,1.79499 -4.0859,1.26187 -3.8453,0.4205 -110.0752,0 0,21.99102 85.08,0 3.8904,0.20094 3.56,0.60275 3.2296,1.00456 2.899,1.40636 2.5687,1.80817 2.2381,2.20998 1.9077,2.61178 1.5773,3.01359 1.2617,3.57511 0.4207,3.27455 0,3.00424 -0.2404,3.16762 -0.721,2.95355 -1.2017,2.7395 -1.6824,2.52544 -2.1631,2.31138 -2.6437,2.09733 -3.1244,1.88326 -3.605,1.66921 -2.4636,0.54081 -2.3432,0.18021 -88.4447,0 0,21.99101 107.6719,0 4.5175,0.2873 4.0595,0.86185 3.6013,1.4364 3.1431,2.01097 2.6851,2.58552 2.2269,3.16007 1.7688,3.73464 1.3106,4.30919 0,5.76813 -0.1934,2.44658 -0.5803,2.35269 -0.967,2.25882 -1.3538,2.16492 -1.7405,2.07105 -2.1274,1.97716 -5.415,3.67268 -3.3649,1.26178 -3.1243,0.42059 -136.152,0 -2.6719,-0.20654 -2.548,-0.61962 -2.424,-1.03271 -2.3001,-1.44579 -2.1762,-1.85887 -2.0523,-2.27195 -1.9284,-2.68504 -1.8044,-3.09812 -0.9914,-3.27461 -0.3304,-2.85404 0,-132.90745 0.2403,-3.16754 0.7211,-2.9535 1.2016,-2.73947 1.6824,-2.52543 2.1631,-2.31139 2.6437,-2.09736 3.1244,-1.88332 3.6051,-1.66928 2.5235,-0.54064 2.2832,-0.18038 0,0 m -186.503,0 102.6247,0 5.4433,0.32301 5.3344,0.96891 5.2254,1.6148 5.1166,2.2607 5.0077,2.90659 4.8988,3.55249 4.79,4.19838 4.681,4.84428 4.7841,7.75101 3.4173,7.51061 1.1961,3.66517 0.8543,3.60506 0.5127,3.54497 0.1709,3.48487 0,7.09 -0.3268,5.21614 -0.9802,5.13351 -1.6335,5.05089 -2.287,4.96826 -2.9404,4.88563 -3.5938,4.80301 -4.2472,4.72039 -4.9006,4.63776 -6.0461,3.6577 -5.4002,2.80147 -4.7542,1.94523 -4.1082,1.08899 0,0.24034 22.1111,20.06834 7.6308,7.33033 5.3476,5.52777 1.6297,3.08687 1.1642,3.01176 0.6985,2.93663 0.2329,2.86152 -0.2366,3.28777 -0.7098,3.07371 -1.183,2.85966 -1.6561,2.6456 -2.1292,2.43156 -2.6024,2.2175 -3.0756,2.00345 -3.5487,1.7894 -4.4462,0.72101 -4.8068,0 -2.1875,-0.23283 -2.3565,-0.69848 -2.5255,-1.16414 -2.6944,-1.6298 -5.8958,-4.65657 -6.5717,-6.51919 -16.0427,-14.45037 -38.5142,-35.41997 -27.39866,0 0,44.1022 -0.2535,3.39291 -0.76045,3.14882 -1.26742,2.90472 -1.77438,2.66063 -2.28134,2.41653 -2.7883,2.17244 -3.29527,1.92834 -3.80222,1.68425 -3.00424,0.36051 -4.80678,0 -2.6719,-0.20654 -2.54797,-0.61962 -2.42404,-1.03271 -2.30012,-1.44579 -2.17619,-1.85887 -2.05227,-2.27195 -1.92834,-2.68504 -1.80442,-3.09812 -0.9914,-3.27461 -0.33047,-2.85404 0,-132.90745 0.24034,-3.16754 0.72102,-2.9535 1.20169,-2.73947 1.68237,-2.52543 2.16306,-2.31139 2.64372,-2.09736 3.12441,-1.88332 3.60509,-1.66928 2.52354,-0.54064 2.28324,-0.18038 0,0 m 23.07254,42.78034 0,22.35153 87.72376,0 0,-22.35153 -87.72376,0 m -169.79949,-42.78034 53.71576,0 7.34719,0.32301 7.08058,0.96891 6.81397,1.6148 6.54735,2.2607 6.28074,2.90659 6.01412,3.55249 5.74752,4.19838 5.4809,4.84428 4.04811,5.70813 2.89155,5.34756 1.73498,4.98701 0.57841,4.62645 0,89.64644 -0.26293,3.31969 -0.78865,3.34973 -1.31438,3.37977 -1.8401,3.40981 -2.36583,3.43985 -2.89155,3.46989 -3.41728,3.49993 -3.94301,3.52997 -5.22179,3.26711 -5.33067,2.83149 -5.43957,2.39588 -5.54845,1.96027 -5.65735,1.52465 -5.76624,1.08903 -5.87513,0.65342 -5.98402,0.21781 -50.35101,0 -7.167,-0.27977 -6.90036,-0.83931 -6.63374,-1.39884 -6.3671,-1.95839 -6.10048,-2.51793 -5.83385,-3.07746 -5.56722,-3.63701 -5.30059,-4.19654 -5.41514,-6.21124 -2.12737,-3.12253 -1.74058,-3.13379 -1.35379,-3.14506 -0.96699,-3.15634 -0.58019,-3.1676 -0.1934,-3.17887 0,-86.28169 0.45439,-5.21982 1.36317,-5.02455 2.27195,-4.82929 3.18074,-4.63403 4.08952,-4.43876 4.9983,-4.24351 5.90708,-4.04825 6.81587,-3.85298 8.28416,-2.94405 7.90864,-2.10294 7.53314,-1.26181 7.15762,-0.42069 0,0 m -18.1456,42.66017 0,87.00271 90.6078,0 0,-87.00271 -90.6078,0 m -142.52101,-42.66017 68.85711,0 2.67747,0.20096 2.56483,0.60277 2.45219,1.00457 2.33954,1.40636 2.2269,1.80817 2.11426,2.20997 2.00161,2.61177 1.88897,3.01357 0.99127,3.51507 0.33059,2.61357 0,4.80678 -0.20284,2.53112 -0.6084,2.42595 -1.01395,2.32079 -1.41951,2.21563 -1.82507,2.11048 -2.23062,2.0053 -2.63618,1.90015 -3.04173,1.79499 -4.08588,1.26187 -3.84531,0.4205 -57.9217,0 -8.29172,0.45068 -7.69086,1.35193 -7.09,2.2532 -6.48916,3.15445 -5.8883,4.05572 -5.28745,4.95697 -4.68659,5.85824 -4.08575,6.75949 -1.15666,3.92809 -0.82617,3.85295 -0.49569,3.77781 -0.1652,3.70267 0.41682,5.71371 1.2505,5.42454 2.08419,5.13538 2.91786,4.84621 3.75154,4.55705 4.58522,4.26788 5.41891,3.97872 6.25258,3.68956 5.83569,2.20814 5.73057,1.57724 5.62545,0.94632 5.52033,0.31542 58.64271,0 4.03313,0.24974 3.68766,0.7492 3.34219,1.24864 2.99672,1.74809 2.65125,2.24755 2.30577,2.74699 1.96031,3.24644 1.61483,3.7459 0.36051,3.36474 0,4.80678 -0.19345,2.44658 -0.58024,2.35269 -0.96701,2.25882 -1.35379,2.16492 -1.74057,2.07105 -2.12736,1.97716 -5.41504,3.67268 -3.36486,1.26178 -3.12429,0.42059 -71.74119,0 -7.04495,-0.35488 -7.01491,-1.06462 -6.98486,-1.77438 -6.95481,-2.48412 -6.92476,-3.19388 -6.89472,-3.90363 -6.86467,-4.61339 -6.83462,-5.32313 -6.99237,-7.45049 -5.47522,-6.60931 -3.95809,-5.76815 -2.44093,-4.92697 -4.04821,-9.1028 -2.89158,-8.92257 -1.73494,-8.74234 -0.57832,-8.56212 0,-6.36898 0.40182,-7.63636 1.20545,-7.52747 2.00908,-7.41857 2.81271,-7.30967 3.61635,-7.20079 4.41999,-7.09189 5.22362,-6.983 6.02725,-6.87411 6.98483,-5.88638 7.13506,-5.10153 7.28526,-4.31669 7.43548,-3.53185 7.58571,-2.74701 7.73591,-1.96216 7.88614,-1.17733 8.03636,-0.39248 0,0 M 308.03124,8.0312872 l -4.16484,0.5609314 -3.82266,1.6015494 -3.29766,2.520299 -2.58984,3.317181 -283.812488,491.593762 -1.6312501,3.92032 -0.54375,4.1172 0.54375,4.09845 1.6312501,3.86407 2.594727,3.35937 3.308398,2.51561 3.833398,1.57811 4.169726,0.54687 567.593719,0 4.16975,-0.56093 3.83341,-1.60155 3.30841,-2.5203 2.59472,-3.31718 1.63125,-3.92032 0.54375,-4.1172 -0.54375,-4.09845 -1.63125,-3.86407 -283.81251,-491.593762 -2.59473,-3.359349 -3.3084,-2.515614 -3.8334,-1.5781225 -4.16973,-0.5468753 0,0 m 0,48.1874918 168.59376,291.937521 -135.40625,0 38.68749,-10.37501 -2.3125,-8.62504 -38.68749,10.37501 68.43749,-39.49997 -4.46874,-7.74999 -68.5,39.56245 28.375,-28.37499 -6.3125,-6.31247 -28.28126,28.31246 39.46875,-68.43745 -7.71875,-4.43753 -39.53124,68.46878 10.375,-38.7188 -8.625,-2.31245 -10.34375,38.62499 0,-78.96875 -8.9375,0 0,79.06249 -10.375,-38.71873 -8.625,2.31245 10.37499,38.65626 -39.53125,-68.40624 -7.71875,4.43753 39.53125,68.49999 -28.34375,-28.375 -6.31249,6.31247 28.31249,28.34378 -68.43749,-39.53124 -4.46876,7.74999 68.40626,39.49997 -38.65626,-10.37501 -2.3125,8.62504 38.68751,10.37501 -79.03126,0 0,8.93748 79.03126,0 -38.68751,10.37501 2.3125,8.62498 38.68751,-10.37501 -68.43751,39.50004 4.46876,7.74999 68.43749,-39.50004 -28.31249,28.31252 6.31249,6.31252 28.3125,-28.34379 -39.5,68.43752 7.71875,4.46874 39.53125,-68.46872 -10.37499,38.71874 8.625,2.31251 10.375,-38.75001 0,79.09377 8.9375,0 0,-78.93754 10.34375,38.59378 8.625,-2.31251 -10.375,-38.68753 39.53124,68.43751 7.71875,-4.46874 L 328.125,379.75 l 28.3125,28.34379 6.3125,-6.31252 -28.3125,-28.31252 68.4375,39.50004 4.46874,-7.74999 -68.40624,-39.50004 38.65624,10.37501 2.3125,-8.62498 -38.68749,-10.37501 140.5625,0 82.25002,142.43752 -512.000016,0 L 308.03124,56.218779" />
    </g>
  </g>
</svg>
