  0
SECTION
  2
HEADER
  9
$ACADVER
  1
AC1014
  9
$HANDSEED
  5
FFFF
  9
$MEASUREMENT
 70
     1
  0
ENDSEC
  0
SECTION
  2
TABLES
  0
TABLE
  2
VPORT
  5
8
330
0
100
AcDbSymbolTable
 70
     4
  0
VPORT
  5
2E
330
8
100
AcDbSymbolTableRecord
100
AcDbViewportTableRecord
  2
*ACTIVE
 70
     0
 10
0.0
 20
0.0
 11
1.0
 21
1.0
 12
210.0
 22
148.5
 13
0.0
 23
0.0
 14
10.0
 24
10.0
 15
10.0
 25
10.0
 16
0.0
 26
0.0
 36
1.0
 17
0.0
 27
0.0
 37
0.0
 40
341.0
 41
1.24
 42
50.0
 43
0.0
 44
0.0
 50
0.0
 51
0.0
 71
     0
 72
   100
 73
     1
 74
     3
 75
     0
 76
     0
 77
     0
 78
     0
  0
ENDTAB
  0
TABLE
  2
LTYPE
  5
5
330
0
100
AcDbSymbolTable
 70
     1
  0
LTYPE
  5
14
330
5
100
AcDbSymbolTableRecord
100
AcDbLinetypeTableRecord
  2
BYBLOCK
 70
     0
  3

 72
    65
 73
     0
 40
0.0
  0
LTYPE
  5
15
330
5
100
AcDbSymbolTableRecord
100
AcDbLinetypeTableRecord
  2
BYLAYER
 70
     0
  3

 72
    65
 73
     0
 40
0.0
  0
LTYPE
  5
16
330
5
100
AcDbSymbolTableRecord
100
AcDbLinetypeTableRecord
  2
CONTINUOUS
 70
     0
  3
Solid line
 72
    65
 73
     0
 40
0.0
  0
ENDTAB
  0
TABLE
  2
LAYER
  5
2
100
AcDbSymbolTable
 70
1
  0
LAYER
  5
50
100
AcDbSymbolTableRecord
100
AcDbLayerTableRecord
  2
0
 70
0
  6
CONTINUOUS
  0
ENDTAB
  0
TABLE
  2
STYLE
  5
3
330
0
100
AcDbSymbolTable
 70
     1
  0
STYLE
  5
11
330
3
100
AcDbSymbolTableRecord
100
AcDbTextStyleTableRecord
  2
STANDARD
 70
     0
 40
0.0
 41
1.0
 50
0.0
 71
     0
 42
2.5
  3
txt
  4

  0
ENDTAB
  0
TABLE
  2
VIEW
  5
6
330
0
100
AcDbSymbolTable
 70
     0
  0
ENDTAB
  0
TABLE
  2
UCS
  5
7
330
0
100
AcDbSymbolTable
 70
     0
  0
ENDTAB
  0
TABLE
  2
APPID
  5
9
330
0
100
AcDbSymbolTable
 70
     2
  0
APPID
  5
12
330
9
100
AcDbSymbolTableRecord
100
AcDbRegAppTableRecord
  2
ACAD
 70
     0
  0
ENDTAB
  0
TABLE
  2
DIMSTYLE
  5
A
330
0
100
AcDbSymbolTable
 70
     1
  0
DIMSTYLE
105
27
330
A
100
AcDbSymbolTableRecord
100
AcDbDimStyleTableRecord
  2
ISO-25
 70
     0
  3

  4

  5

  6

  7

 40
1.0
 41
2.5
 42
0.625
 43
3.75
 44
1.25
 45
0.0
 46
0.0
 47
0.0
 48
0.0
140
2.5
141
2.5
142
0.0
143
0.03937007874016
144
1.0
145
0.0
146
1.0
147
0.625
 71
     0
 72
     0
 73
     0
 74
     0
 75
     0
 76
     0
 77
     1
 78
     8
170
     0
171
     3
172
     1
173
     0
174
     0
175
     0
176
     0
177
     0
178
     0
270
     2
271
     2
272
     2
273
     2
274
     3
340
11
275
     0
280
     0
281
     0
282
     0
283
     0
284
     8
285
     0
286
     0
287
     3
288
     0
  0
ENDTAB
  0
TABLE
  2
BLOCK_RECORD
  5
1
330
0
100
AcDbSymbolTable
 70
     1
  0
BLOCK_RECORD
  5
1F
330
1
100
AcDbSymbolTableRecord
100
AcDbBlockTableRecord
  2
*MODEL_SPACE
  0
BLOCK_RECORD
  5
1B
330
1
100
AcDbSymbolTableRecord
100
AcDbBlockTableRecord
  2
*PAPER_SPACE
  0
ENDTAB
  0
ENDSEC
  0
SECTION
  2
BLOCKS
  0
BLOCK
  5
20
330
1F
100
AcDbEntity
  8
0
100
AcDbBlockBegin
  2
*MODEL_SPACE
 70
     0
 10
0.0
 20
0.0
 30
0.0
  3
*MODEL_SPACE
  1

  0
ENDBLK
  5
21
330
1F
100
AcDbEntity
  8
0
100
AcDbBlockEnd
  0
BLOCK
  5
1C
330
1B
100
AcDbEntity
 67
     1
  8
0
100
AcDbBlockBegin
  2
*PAPER_SPACE
  1

  0
ENDBLK
  5
1D
330
1B
100
AcDbEntity
 67
     1
  8
0
100
AcDbBlockEnd
  0
ENDSEC
  0
SECTION
  2
ENTITIES
  0
LWPOLYLINE
  5
100
100
AcDbEntity
  8
0
 62
7
100
AcDbPolyline
 90
3
 70
0
 10
0.821248
 20
33.692064
 30
0.0
 10
0.821248
 20
33.692064
 30
0.0
 10
0.821248
 20
33.692064
 30
0.0
  0
LWPOLYLINE
  5
101
100
AcDbEntity
  8
0
 62
7
100
AcDbPolyline
 90
29
 70
0
 10
14.605652
 20
25.492515
 30
0.0
 10
14.403035
 20
25.465226
 30
0.0
 10
14.217065
 20
25.387312
 30
0.0
 10
14.056637
 20
25.264701
 30
0.0
 10
13.930642
 20
25.103322
 30
0.0
 10
0.123349
 20
1.187605
 30
0.0
 10
0.043990
 20
0.996884
 30
0.0
 10
0.017537
 20
0.796585
 30
0.0
 10
0.043990
 20
0.597198
 30
0.0
 10
0.123349
 20
0.409214
 30
0.0
 10
0.249581
 20
0.245782
 30
0.0
 10
0.410532
 20
0.123400
 30
0.0
 10
0.597024
 20
0.046626
 30
0.0
 10
0.799879
 20
0.020021
 30
0.0
 10
28.412945
 20
0.020021
 30
0.0
 10
28.615801
 20
0.047310
 30
0.0
 10
28.802294
 20
0.125224
 30
0.0
 10
28.963245
 20
0.247835
 30
0.0
 10
29.089477
 20
0.409214
 30
0.0
 10
29.168836
 20
0.599935
 30
0.0
 10
29.195289
 20
0.800234
 30
0.0
 10
29.168836
 20
0.999621
 30
0.0
 10
29.089477
 20
1.187605
 30
0.0
 10
15.282182
 20
25.103322
 30
0.0
 10
15.155951
 20
25.266753
 30
0.0
 10
14.994999
 20
25.389136
 30
0.0
 10
14.808507
 20
25.465910
 30
0.0
 10
14.605652
 20
25.492515
 30
0.0
 10
14.605652
 20
25.492515
 30
0.0
  0
LWPOLYLINE
  5
102
100
AcDbEntity
  8
0
 62
7
100
AcDbPolyline
 90
77
 70
0
 10
14.605652
 20
23.148225
 30
0.0
 10
22.807629
 20
8.945654
 30
0.0
 10
16.220203
 20
8.945654
 30
0.0
 10
18.102324
 20
9.450392
 30
0.0
 10
17.989823
 20
9.869994
 30
0.0
 10
16.107701
 20
9.365257
 30
0.0
 10
19.437141
 20
11.286905
 30
0.0
 10
19.219739
 20
11.663937
 30
0.0
 10
15.887259
 20
9.739249
 30
0.0
 10
17.267684
 20
11.119674
 30
0.0
 10
16.960585
 20
11.426771
 30
0.0
 10
15.584720
 20
10.049389
 30
0.0
 10
17.504849
 20
13.378826
 30
0.0
 10
17.129337
 20
13.594709
 30
0.0
 10
15.206168
 20
10.263748
 30
0.0
 10
15.710905
 20
12.147392
 30
0.0
 10
15.291304
 20
12.259891
 30
0.0
 10
14.788087
 20
10.380811
 30
0.0
 10
14.788087
 20
14.222589
 30
0.0
 10
14.353284
 20
14.222589
 30
0.0
 10
14.353284
 20
10.376250
 30
0.0
 10
13.848547
 20
12.259891
 30
0.0
 10
13.428946
 20
12.147392
 30
0.0
 10
13.933683
 20
10.266790
 30
0.0
 10
12.010513
 20
13.594709
 30
0.0
 10
11.635001
 20
13.378826
 30
0.0
 10
13.558171
 20
10.046346
 30
0.0
 10
12.179266
 20
11.426771
 30
0.0
 10
11.872167
 20
11.119674
 30
0.0
 10
13.249552
 20
9.740767
 30
0.0
 10
9.920112
 20
11.663937
 30
0.0
 10
9.702710
 20
11.286905
 30
0.0
 10
13.030630
 20
9.365257
 30
0.0
 10
11.150028
 20
9.869994
 30
0.0
 10
11.037526
 20
9.450392
 30
0.0
 10
12.919648
 20
8.945654
 30
0.0
 10
9.074829
 20
8.945654
 30
0.0
 10
9.074829
 20
8.510851
 30
0.0
 10
12.919648
 20
8.510851
 30
0.0
 10
11.037526
 20
8.006114
 30
0.0
 10
11.150028
 20
7.586514
 30
0.0
 10
13.032150
 20
8.091252
 30
0.0
 10
9.702710
 20
6.169601
 30
0.0
 10
9.920112
 20
5.792569
 30
0.0
 10
13.249552
 20
7.714220
 30
0.0
 10
11.872167
 20
6.336834
 30
0.0
 10
12.179266
 20
6.029734
 30
0.0
 10
13.556651
 20
7.408641
 30
0.0
 10
11.635001
 20
4.079200
 30
0.0
 10
12.010513
 20
3.861799
 30
0.0
 10
13.933683
 20
7.192758
 30
0.0
 10
13.428946
 20
5.309116
 30
0.0
 10
13.848547
 20
5.196614
 30
0.0
 10
14.353284
 20
7.081777
 30
0.0
 10
14.353284
 20
3.233917
 30
0.0
 10
14.788087
 20
3.233917
 30
0.0
 10
14.788087
 20
7.074177
 30
0.0
 10
15.291304
 20
5.196614
 30
0.0
 10
15.710905
 20
5.309116
 30
0.0
 10
15.206168
 20
7.191240
 30
0.0
 10
17.129337
 20
3.861799
 30
0.0
 10
17.504849
 20
4.079200
 30
0.0
 10
15.583200
 20
7.408641
 30
0.0
 10
16.960585
 20
6.029734
 30
0.0
 10
17.267684
 20
6.336834
 30
0.0
 10
15.890299
 20
7.714220
 30
0.0
 10
19.219739
 20
5.792569
 30
0.0
 10
19.437141
 20
6.169601
 30
0.0
 10
16.109221
 20
8.091252
 30
0.0
 10
17.989823
 20
7.586514
 30
0.0
 10
18.102324
 20
8.006114
 30
0.0
 10
16.220203
 20
8.510851
 30
0.0
 10
23.058477
 20
8.510851
 30
0.0
 10
27.059887
 20
1.581359
 30
0.0
 10
2.151419
 20
1.581359
 30
0.0
 10
14.605652
 20
23.148225
 30
0.0
 10
14.605652
 20
23.148225
 30
0.0
  0
LWPOLYLINE
  5
103
100
AcDbEntity
  8
0
 62
7
100
AcDbPolyline
 90
64
 70
0
 10
32.180445
 20
16.800538
 30
0.0
 10
35.530299
 20
16.800538
 30
0.0
 10
35.785332
 20
16.761438
 30
0.0
 10
36.018446
 20
16.644147
 30
0.0
 10
36.229641
 20
16.448667
 30
0.0
 10
36.418915
 20
16.174998
 30
0.0
 10
36.483222
 20
15.876844
 30
0.0
 10
36.483222
 20
15.642997
 30
0.0
 10
36.443756
 20
15.401839
 30
0.0
 10
36.325370
 20
15.181145
 30
0.0
 10
36.128064
 20
14.980915
 30
0.0
 10
35.851838
 20
14.801149
 30
0.0
 10
35.465989
 20
14.719303
 30
0.0
 10
32.648138
 20
14.719303
 30
0.0
 10
32.244751
 20
14.697378
 30
0.0
 10
31.870596
 20
14.631607
 30
0.0
 10
31.525671
 20
14.521990
 30
0.0
 10
31.209978
 20
14.368528
 30
0.0
 10
30.923515
 20
14.171220
 30
0.0
 10
30.666284
 20
13.930067
 30
0.0
 10
30.438284
 20
13.645067
 30
0.0
 10
30.239516
 20
13.316222
 30
0.0
 10
30.143053
 20
12.937680
 30
0.0
 10
30.110901
 20
12.573759
 30
0.0
 10
30.192015
 20
12.031891
 30
0.0
 10
30.293409
 20
11.782058
 30
0.0
 10
30.435361
 20
11.546293
 30
0.0
 10
30.840940
 20
11.116966
 30
0.0
 10
31.408751
 20
10.743909
 30
0.0
 10
31.971441
 20
10.559753
 30
0.0
 10
32.513676
 20
10.498370
 30
0.0
 10
35.366604
 20
10.498370
 30
0.0
 10
35.742216
 20
10.449772
 30
0.0
 10
36.050601
 20
10.303983
 30
0.0
 10
36.291757
 20
10.061002
 30
0.0
 10
36.465685
 20
9.720829
 30
0.0
 10
36.483211
 20
9.557137
 30
0.0
 10
36.483211
 20
9.323290
 30
0.0
 10
36.445572
 20
9.089808
 30
0.0
 10
36.332667
 20
8.874596
 30
0.0
 10
36.144495
 20
8.677654
 30
0.0
 10
35.881056
 20
8.498980
 30
0.0
 10
35.565365
 20
8.417134
 30
0.0
 10
32.075202
 20
8.417134
 30
0.0
 10
31.391199
 20
8.486192
 30
0.0
 10
30.713043
 20
8.693365
 30
0.0
 10
30.040734
 20
9.038654
 30
0.0
 10
29.374273
 20
9.522060
 30
0.0
 10
28.767731
 20
10.206060
 30
0.0
 10
28.456424
 20
10.726370
 30
0.0
 10
28.259481
 20
11.169216
 30
0.0
 10
28.118808
 20
11.603293
 30
0.0
 10
28.034404
 20
12.028602
 30
0.0
 10
28.006269
 20
12.445143
 30
0.0
 10
28.006269
 20
12.754990
 30
0.0
 10
28.084461
 20
13.492700
 30
0.0
 10
28.319038
 20
14.209220
 30
0.0
 10
28.710001
 20
14.904550
 30
0.0
 10
29.257348
 20
15.578689
 30
0.0
 10
29.944272
 20
16.113244
 30
0.0
 10
30.660428
 20
16.495070
 30
0.0
 10
31.405815
 20
16.724168
 30
0.0
 10
32.180434
 20
16.800538
 30
0.0
 10
32.180445
 20
16.800538
 30
0.0
  0
LWPOLYLINE
  5
104
100
AcDbEntity
  8
0
 62
7
100
AcDbPolyline
 90
37
 70
0
 10
39.996770
 20
16.800538
 30
0.0
 10
42.610007
 20
16.800538
 30
0.0
 10
43.311909
 20
16.737688
 30
0.0
 10
43.961929
 20
16.549147
 30
0.0
 10
44.560066
 20
16.234917
 30
0.0
 10
45.106322
 20
15.794997
 30
0.0
 10
45.443930
 20
15.257145
 30
0.0
 10
45.528335
 20
15.014530
 30
0.0
 10
45.556475
 20
14.789456
 30
0.0
 10
45.556475
 20
10.428215
 30
0.0
 10
45.505316
 20
10.103752
 30
0.0
 10
45.351853
 20
9.773444
 30
0.0
 10
45.096085
 20
9.437289
 30
0.0
 10
44.738013
 20
9.095289
 30
0.0
 10
44.224643
 20
8.798596
 30
0.0
 10
43.690083
 20
8.586673
 30
0.0
 10
43.134333
 20
8.459519
 30
0.0
 10
42.557392
 20
8.417134
 30
0.0
 10
40.107847
 20
8.417134
 30
0.0
 10
39.423479
 20
8.471576
 30
0.0
 10
38.790997
 20
8.634903
 30
0.0
 10
38.210400
 20
8.907116
 30
0.0
 10
37.681687
 20
9.288213
 30
0.0
 10
37.418245
 20
9.590386
 30
0.0
 10
37.230072
 20
9.894752
 30
0.0
 10
37.117167
 20
10.201310
 30
0.0
 10
37.079532
 20
10.510062
 30
0.0
 10
37.079532
 20
14.707610
 30
0.0
 10
37.101638
 20
14.961551
 30
0.0
 10
37.167956
 20
15.205992
 30
0.0
 10
37.278485
 20
15.440934
 30
0.0
 10
37.433225
 20
15.666377
 30
0.0
 10
37.875341
 20
16.088763
 30
0.0
 10
38.494304
 20
16.473153
 30
0.0
 10
39.282075
 20
16.718686
 30
0.0
 10
39.996770
 20
16.800538
 30
0.0
 10
39.996770
 20
16.800538
 30
0.0
  0
LWPOLYLINE
  5
105
100
AcDbEntity
  8
0
 62
7
100
AcDbPolyline
 90
5
 70
0
 10
39.113999
 20
14.725149
 30
0.0
 10
39.113999
 20
10.492524
 30
0.0
 10
43.522008
 20
10.492524
 30
0.0
 10
43.522008
 20
14.725149
 30
0.0
 10
39.113999
 20
14.725149
 30
0.0
  0
LWPOLYLINE
  5
106
100
AcDbEntity
  8
0
 62
7
100
AcDbPolyline
 90
53
 70
0
 10
47.134941
 20
16.800538
 30
0.0
 10
52.127568
 20
16.800538
 30
0.0
 10
52.651893
 20
16.737688
 30
0.0
 10
53.155028
 20
16.549147
 30
0.0
 10
53.636973
 20
16.234917
 30
0.0
 10
54.097730
 20
15.794997
 30
0.0
 10
54.330474
 20
15.417916
 30
0.0
 10
54.496722
 20
15.052529
 30
0.0
 10
54.596474
 20
14.698837
 30
0.0
 10
54.629730
 20
14.356840
 30
0.0
 10
54.629730
 20
14.011916
 30
0.0
 10
54.566147
 20
13.508413
 30
0.0
 10
54.375414
 20
13.020988
 30
0.0
 10
54.057530
 20
12.549641
 30
0.0
 10
53.612494
 20
12.094373
 30
0.0
 10
53.055642
 20
11.780139
 30
0.0
 10
52.624490
 20
11.632526
 30
0.0
 10
52.624490
 20
11.620834
 30
0.0
 10
53.700182
 20
10.644522
 30
0.0
 10
54.331571
 20
10.018984
 30
0.0
 10
54.467490
 20
9.722289
 30
0.0
 10
54.512805
 20
9.440213
 30
0.0
 10
54.466761
 20
9.130731
 30
0.0
 10
54.328643
 20
8.862904
 30
0.0
 10
54.098452
 20
8.636730
 30
0.0
 10
53.776186
 20
8.452210
 30
0.0
 10
53.559882
 20
8.417134
 30
0.0
 10
53.326033
 20
8.417134
 30
0.0
 10
53.104970
 20
8.462441
 30
0.0
 10
52.851026
 20
8.598365
 30
0.0
 10
52.564200
 20
8.824904
 30
0.0
 10
52.244490
 20
9.142058
 30
0.0
 10
49.590333
 20
11.568218
 30
0.0
 10
48.257406
 20
11.568218
 30
0.0
 10
48.257406
 20
9.422674
 30
0.0
 10
48.208078
 20
9.104423
 30
0.0
 10
48.060095
 20
8.833673
 30
0.0
 10
47.813460
 20
8.610422
 30
0.0
 10
47.468172
 20
8.434672
 30
0.0
 10
47.322018
 20
8.417132
 30
0.0
 10
47.088171
 20
8.417132
 30
0.0
 10
46.834229
 20
8.457325
 30
0.0
 10
46.604401
 20
8.577902
 30
0.0
 10
46.398689
 20
8.778864
 30
0.0
 10
46.217092
 20
9.060210
 30
0.0
 10
46.152785
 20
9.358365
 30
0.0
 10
46.152785
 20
15.824227
 30
0.0
 10
46.199554
 20
16.122011
 30
0.0
 10
46.339862
 20
16.378145
 30
0.0
 10
46.573709
 20
16.592628
 30
0.0
 10
46.901094
 20
16.765460
 30
0.0
 10
47.134941
 20
16.800537
 30
0.0
 10
47.134941
 20
16.800538
 30
0.0
  0
LWPOLYLINE
  5
107
100
AcDbEntity
  8
0
 62
7
100
AcDbPolyline
 90
5
 70
0
 10
48.257406
 20
14.719303
 30
0.0
 10
48.257406
 20
13.631915
 30
0.0
 10
52.525109
 20
13.631915
 30
0.0
 10
52.525109
 20
14.719303
 30
0.0
 10
48.257406
 20
14.719303
 30
0.0
  0
LWPOLYLINE
  5
108
100
AcDbEntity
  8
0
 62
7
100
AcDbPolyline
 90
53
 70
0
 10
56.208191
 20
16.800538
 30
0.0
 10
62.750054
 20
16.800538
 30
0.0
 10
63.007281
 20
16.761438
 30
0.0
 10
63.241127
 20
16.644147
 30
0.0
 10
63.451592
 20
16.448667
 30
0.0
 10
63.638676
 20
16.174998
 30
0.0
 10
63.702980
 20
15.876844
 30
0.0
 10
63.702980
 20
15.642997
 30
0.0
 10
63.663515
 20
15.401839
 30
0.0
 10
63.545129
 20
15.181145
 30
0.0
 10
63.347822
 20
14.980915
 30
0.0
 10
63.071592
 20
14.801149
 30
0.0
 10
62.685747
 20
14.719303
 30
0.0
 10
57.330659
 20
14.719303
 30
0.0
 10
57.330659
 20
13.649454
 30
0.0
 10
61.469744
 20
13.649454
 30
0.0
 10
61.832203
 20
13.610355
 30
0.0
 10
62.130356
 20
13.493065
 30
0.0
 10
62.364203
 20
13.297585
 30
0.0
 10
62.533744
 20
13.023914
 30
0.0
 10
62.615592
 20
12.690683
 30
0.0
 10
62.615592
 20
12.544528
 30
0.0
 10
62.568820
 20
12.246737
 30
0.0
 10
62.428511
 20
11.990601
 30
0.0
 10
62.194665
 20
11.776121
 30
0.0
 10
61.867282
 20
11.603295
 30
0.0
 10
61.633436
 20
11.568218
 30
0.0
 10
57.330659
 20
11.568218
 30
0.0
 10
57.330659
 20
10.498370
 30
0.0
 10
62.568828
 20
10.498370
 30
0.0
 10
62.986091
 20
10.442464
 30
0.0
 10
63.314204
 20
10.274752
 30
0.0
 10
63.553168
 20
9.995233
 30
0.0
 10
63.702980
 20
9.603906
 30
0.0
 10
63.702980
 20
9.323290
 30
0.0
 10
63.665342
 20
9.089808
 30
0.0
 10
63.552436
 20
8.874596
 30
0.0
 10
63.364264
 20
8.677654
 30
0.0
 10
63.100828
 20
8.498980
 30
0.0
 10
62.785131
 20
8.417134
 30
0.0
 10
56.161424
 20
8.417134
 30
0.0
 10
55.907481
 20
8.457326
 30
0.0
 10
55.677654
 20
8.577903
 30
0.0
 10
55.471941
 20
8.778865
 30
0.0
 10
55.290345
 20
9.060212
 30
0.0
 10
55.226037
 20
9.358367
 30
0.0
 10
55.226037
 20
15.824228
 30
0.0
 10
55.272807
 20
16.122013
 30
0.0
 10
55.413115
 20
16.378147
 30
0.0
 10
55.646963
 20
16.592630
 30
0.0
 10
55.974350
 20
16.765461
 30
0.0
 10
56.208191
 20
16.800538
 30
0.0
 10
56.208191
 20
16.800538
 30
0.0
  0
LWPOLYLINE
  5
109
100
AcDbEntity
  8
0
 62
7
100
AcDbPolyline
 90
41
 70
0
 10
65.281446
 20
16.800538
 30
0.0
 10
70.274070
 20
16.800538
 30
0.0
 10
70.798396
 20
16.737688
 30
0.0
 10
71.301531
 20
16.549147
 30
0.0
 10
71.783476
 20
16.234917
 30
0.0
 10
72.244232
 20
15.794997
 30
0.0
 10
72.476978
 20
15.417916
 30
0.0
 10
72.643227
 20
15.052529
 30
0.0
 10
72.742978
 20
14.698837
 30
0.0
 10
72.776232
 20
14.356840
 30
0.0
 10
72.776232
 20
14.011916
 30
0.0
 10
72.744073
 20
13.672105
 30
0.0
 10
72.647610
 20
13.324988
 30
0.0
 10
72.486843
 20
12.970565
 30
0.0
 10
72.261772
 20
12.608836
 30
0.0
 10
72.486843
 20
12.239429
 30
0.0
 10
72.647610
 20
11.885370
 30
0.0
 10
72.744073
 20
11.546659
 30
0.0
 10
72.776232
 20
11.223294
 30
0.0
 10
72.776232
 20
10.825755
 30
0.0
 10
72.730189
 20
10.425657
 30
0.0
 10
72.592072
 20
10.020444
 30
0.0
 10
72.361881
 20
9.610117
 30
0.0
 10
72.039615
 20
9.194674
 30
0.0
 10
71.613207
 20
8.854500
 30
0.0
 10
71.187533
 20
8.611519
 30
0.0
 10
70.762591
 20
8.465730
 30
0.0
 10
70.338380
 20
8.417134
 30
0.0
 10
65.234673
 20
8.417134
 30
0.0
 10
64.980733
 20
8.457326
 30
0.0
 10
64.750906
 20
8.577903
 30
0.0
 10
64.545194
 20
8.778865
 30
0.0
 10
64.363597
 20
9.060212
 30
0.0
 10
64.299287
 20
9.358367
 30
0.0
 10
64.299287
 20
15.824228
 30
0.0
 10
64.346057
 20
16.122013
 30
0.0
 10
64.486367
 20
16.378147
 30
0.0
 10
64.720215
 20
16.592630
 30
0.0
 10
65.047599
 20
16.765461
 30
0.0
 10
65.281446
 20
16.800538
 30
0.0
 10
65.281446
 20
16.800538
 30
0.0
  0
LWPOLYLINE
  5
10a
100
AcDbEntity
  8
0
 62
7
100
AcDbPolyline
 90
5
 70
0
 10
66.403909
 20
14.719303
 30
0.0
 10
66.403909
 20
13.649454
 30
0.0
 10
70.671614
 20
13.649454
 30
0.0
 10
70.671614
 20
14.719303
 30
0.0
 10
66.403909
 20
14.719303
 30
0.0
  0
LWPOLYLINE
  5
10b
100
AcDbEntity
  8
0
 62
7
100
AcDbPolyline
 90
5
 70
0
 10
66.403909
 20
11.568218
 30
0.0
 10
66.403909
 20
10.498370
 30
0.0
 10
70.671614
 20
10.498370
 30
0.0
 10
70.671614
 20
11.568218
 30
0.0
 10
66.403909
 20
11.568218
 30
0.0
  0
LWPOLYLINE
  5
10c
100
AcDbEntity
  8
0
 62
7
100
AcDbPolyline
 90
53
 70
0
 10
74.354701
 20
16.800538
 30
0.0
 10
80.896559
 20
16.800538
 30
0.0
 10
81.153785
 20
16.761438
 30
0.0
 10
81.387631
 20
16.644147
 30
0.0
 10
81.598095
 20
16.448667
 30
0.0
 10
81.785178
 20
16.174998
 30
0.0
 10
81.849485
 20
15.876844
 30
0.0
 10
81.849485
 20
15.642997
 30
0.0
 10
81.810020
 20
15.401839
 30
0.0
 10
81.691634
 20
15.181145
 30
0.0
 10
81.494327
 20
14.980915
 30
0.0
 10
81.218097
 20
14.801149
 30
0.0
 10
80.832249
 20
14.719303
 30
0.0
 10
75.477164
 20
14.719303
 30
0.0
 10
75.477164
 20
13.649454
 30
0.0
 10
79.616249
 20
13.649454
 30
0.0
 10
79.978707
 20
13.610355
 30
0.0
 10
80.276860
 20
13.493065
 30
0.0
 10
80.510708
 20
13.297585
 30
0.0
 10
80.680250
 20
13.023914
 30
0.0
 10
80.762097
 20
12.690683
 30
0.0
 10
80.762097
 20
12.544528
 30
0.0
 10
80.715325
 20
12.246737
 30
0.0
 10
80.575015
 20
11.990601
 30
0.0
 10
80.341169
 20
11.776121
 30
0.0
 10
80.013787
 20
11.603295
 30
0.0
 10
79.779941
 20
11.568218
 30
0.0
 10
75.477164
 20
11.568218
 30
0.0
 10
75.477164
 20
10.498370
 30
0.0
 10
80.715330
 20
10.498370
 30
0.0
 10
81.132595
 20
10.442464
 30
0.0
 10
81.460709
 20
10.274752
 30
0.0
 10
81.699673
 20
9.995233
 30
0.0
 10
81.849485
 20
9.603906
 30
0.0
 10
81.849485
 20
9.323290
 30
0.0
 10
81.811847
 20
9.089808
 30
0.0
 10
81.698941
 20
8.874596
 30
0.0
 10
81.510768
 20
8.677654
 30
0.0
 10
81.247330
 20
8.498980
 30
0.0
 10
80.931636
 20
8.417134
 30
0.0
 10
74.307929
 20
8.417134
 30
0.0
 10
74.053985
 20
8.457326
 30
0.0
 10
73.824157
 20
8.577903
 30
0.0
 10
73.618445
 20
8.778865
 30
0.0
 10
73.436847
 20
9.060212
 30
0.0
 10
73.372543
 20
9.358367
 30
0.0
 10
73.372543
 20
15.824228
 30
0.0
 10
73.419312
 20
16.122013
 30
0.0
 10
73.559620
 20
16.378147
 30
0.0
 10
73.793467
 20
16.592630
 30
0.0
 10
74.120852
 20
16.765461
 30
0.0
 10
74.354701
 20
16.800538
 30
0.0
 10
74.354701
 20
16.800538
 30
0.0
  0
LWPOLYLINE
  5
10d
100
AcDbEntity
  8
0
 62
7
100
AcDbPolyline
 90
38
 70
0
 10
86.608265
 20
16.800538
 30
0.0
 10
86.789500
 20
16.800538
 30
0.0
 10
87.098247
 20
16.735861
 30
0.0
 10
87.375572
 20
16.541839
 30
0.0
 10
87.621476
 20
16.218475
 30
0.0
 10
87.835960
 20
15.765767
 30
0.0
 10
90.922737
 20
9.621444
 30
0.0
 10
90.922737
 20
9.305751
 30
0.0
 10
90.878886
 20
9.052904
 30
0.0
 10
90.747346
 20
8.826365
 30
0.0
 10
90.528117
 20
8.626134
 30
0.0
 10
90.221201
 20
8.452211
 30
0.0
 10
89.975656
 20
8.417134
 30
0.0
 10
89.823657
 20
8.417134
 30
0.0
 10
89.511979
 20
8.483999
 30
0.0
 10
89.231728
 20
8.684596
 30
0.0
 10
88.982901
 20
9.018924
 30
0.0
 10
88.765499
 20
9.486982
 30
0.0
 10
86.672575
 20
13.590992
 30
0.0
 10
84.234723
 20
8.762058
 30
0.0
 10
83.883950
 20
8.503365
 30
0.0
 10
83.704181
 20
8.438692
 30
0.0
 10
83.521488
 20
8.417134
 30
0.0
 10
83.375336
 20
8.417134
 30
0.0
 10
83.121027
 20
8.457326
 30
0.0
 10
82.890104
 20
8.577903
 30
0.0
 10
82.682565
 20
8.778865
 30
0.0
 10
82.498413
 20
9.060212
 30
0.0
 10
82.445792
 20
9.358367
 30
0.0
 10
82.445792
 20
9.486982
 30
0.0
 10
82.594871
 20
9.941521
 30
0.0
 10
83.042102
 20
10.837447
 30
0.0
 10
85.859956
 20
16.402999
 30
0.0
 10
86.031685
 20
16.576918
 30
0.0
 10
86.213647
 20
16.701147
 30
0.0
 10
86.405840
 20
16.775688
 30
0.0
 10
86.608265
 20
16.800538
 30
0.0
 10
86.608265
 20
16.800538
 30
0.0
  0
LWPOLYLINE
  5
10e
100
AcDbEntity
  8
0
 62
7
100
AcDbPolyline
 90
58
 70
0
 10
92.501206
 20
16.800538
 30
0.0
 10
92.653206
 20
16.800538
 30
0.0
 10
92.899839
 20
16.755226
 30
0.0
 10
93.160358
 20
16.619301
 30
0.0
 10
93.434762
 20
16.392763
 30
0.0
 10
93.723054
 20
16.075613
 30
0.0
 10
95.775058
 20
14.029455
 30
0.0
 10
98.411679
 20
16.666077
 30
0.0
 10
98.673291
 20
16.766917
 30
0.0
 10
98.896912
 20
16.800538
 30
0.0
 10
99.043064
 20
16.800538
 30
0.0
 10
99.300290
 20
16.761438
 30
0.0
 10
99.534135
 20
16.644147
 30
0.0
 10
99.744599
 20
16.448667
 30
0.0
 10
99.931683
 20
16.174998
 30
0.0
 10
99.995987
 20
15.876844
 30
0.0
 10
99.995987
 20
9.323290
 30
0.0
 10
99.958351
 20
9.089808
 30
0.0
 10
99.845446
 20
8.874596
 30
0.0
 10
99.657274
 20
8.677654
 30
0.0
 10
99.393835
 20
8.498980
 30
0.0
 10
99.078141
 20
8.417134
 30
0.0
 10
98.844298
 20
8.417134
 30
0.0
 10
98.623234
 20
8.449288
 30
0.0
 10
98.416059
 20
8.545749
 30
0.0
 10
98.222770
 20
8.706519
 30
0.0
 10
98.043368
 20
8.931596
 30
0.0
 10
97.929366
 20
9.200520
 30
0.0
 10
97.891369
 20
9.586368
 30
0.0
 10
97.891369
 20
13.187607
 30
0.0
 10
96.388908
 20
11.702680
 30
0.0
 10
96.090745
 20
11.553600
 30
0.0
 10
95.757520
 20
11.503910
 30
0.0
 10
95.476170
 20
11.550313
 30
0.0
 10
95.187515
 20
11.689524
 30
0.0
 10
94.891555
 20
11.921544
 30
0.0
 10
94.588288
 20
12.246373
 30
0.0
 10
93.623666
 20
13.205145
 30
0.0
 10
93.623666
 20
9.457752
 30
0.0
 10
93.572513
 20
9.106616
 30
0.0
 10
93.419052
 20
8.819057
 30
0.0
 10
93.163282
 20
8.595076
 30
0.0
 10
92.805205
 20
8.434673
 30
0.0
 10
92.688283
 20
8.417132
 30
0.0
 10
92.454434
 20
8.417132
 30
0.0
 10
92.218029
 20
8.453306
 30
0.0
 10
91.999894
 20
8.561825
 30
0.0
 10
91.800030
 20
8.742691
 30
0.0
 10
91.618435
 20
8.995903
 30
0.0
 10
91.543893
 20
9.197595
 30
0.0
 10
91.519048
 20
9.393442
 30
0.0
 10
91.519048
 20
15.841766
 30
0.0
 10
91.565086
 20
16.123108
 30
0.0
 10
91.703202
 20
16.370838
 30
0.0
 10
91.933393
 20
16.584955
 30
0.0
 10
92.255662
 20
16.765460
 30
0.0
 10
92.501206
 20
16.800537
 30
0.0
 10
92.501206
 20
16.800538
 30
0.0
  0
ENDSEC
  0
SECTION
  2
OBJECTS
  0
DICTIONARY
  5
C
330
0
100
AcDbDictionary
  3
ACAD_GROUP
350
D
  3
ACAD_MLINESTYLE
350
17
  0
DICTIONARY
  5
D
330
C
100
AcDbDictionary
  0
DICTIONARY
  5
1A
330
C
100
AcDbDictionary
  0
DICTIONARY
  5
17
330
C
100
AcDbDictionary
  3
STANDARD
350
18
  0
DICTIONARY
  5
19
330
C
100
AcDbDictionary
  0
ENDSEC
  0
EOF
