  0
SECTION
  2
HEADER
  9
$ACADVER
  1
AC1014
  9
$HANDSEED
  5
FFFF
  9
$MEASUREMENT
 70
     1
  0
ENDSEC
  0
SECTION
  2
TABLES
  0
TABLE
  2
VPORT
  5
8
330
0
100
AcDbSymbolTable
 70
     4
  0
VPORT
  5
2E
330
8
100
AcDbSymbolTableRecord
100
AcDbViewportTableRecord
  2
*ACTIVE
 70
     0
 10
0.0
 20
0.0
 11
1.0
 21
1.0
 12
210.0
 22
148.5
 13
0.0
 23
0.0
 14
10.0
 24
10.0
 15
10.0
 25
10.0
 16
0.0
 26
0.0
 36
1.0
 17
0.0
 27
0.0
 37
0.0
 40
341.0
 41
1.24
 42
50.0
 43
0.0
 44
0.0
 50
0.0
 51
0.0
 71
     0
 72
   100
 73
     1
 74
     3
 75
     0
 76
     0
 77
     0
 78
     0
  0
ENDTAB
  0
TABLE
  2
LTYPE
  5
5
330
0
100
AcDbSymbolTable
 70
     1
  0
LTYPE
  5
14
330
5
100
AcDbSymbolTableRecord
100
AcDbLinetypeTableRecord
  2
BYBLOCK
 70
     0
  3

 72
    65
 73
     0
 40
0.0
  0
LTYPE
  5
15
330
5
100
AcDbSymbolTableRecord
100
AcDbLinetypeTableRecord
  2
BYLAYER
 70
     0
  3

 72
    65
 73
     0
 40
0.0
  0
LTYPE
  5
16
330
5
100
AcDbSymbolTableRecord
100
AcDbLinetypeTableRecord
  2
CONTINUOUS
 70
     0
  3
Solid line
 72
    65
 73
     0
 40
0.0
  0
ENDTAB
  0
TABLE
  2
LAYER
  5
2
100
AcDbSymbolTable
 70
2
  0
LAYER
  5
50
100
AcDbSymbolTableRecord
100
AcDbLayerTableRecord
  2
0
 70
0
  6
CONTINUOUS
  0
LAYER
  5
51
100
AcDbSymbolTableRecord
100
AcDbLayerTableRecord
  2
Foreground
 70
0
  6
CONTINUOUS
  0
ENDTAB
  0
TABLE
  2
STYLE
  5
3
330
0
100
AcDbSymbolTable
 70
     1
  0
STYLE
  5
11
330
3
100
AcDbSymbolTableRecord
100
AcDbTextStyleTableRecord
  2
STANDARD
 70
     0
 40
0.0
 41
1.0
 50
0.0
 71
     0
 42
2.5
  3
txt
  4

  0
ENDTAB
  0
TABLE
  2
VIEW
  5
6
330
0
100
AcDbSymbolTable
 70
     0
  0
ENDTAB
  0
TABLE
  2
UCS
  5
7
330
0
100
AcDbSymbolTable
 70
     0
  0
ENDTAB
  0
TABLE
  2
APPID
  5
9
330
0
100
AcDbSymbolTable
 70
     2
  0
APPID
  5
12
330
9
100
AcDbSymbolTableRecord
100
AcDbRegAppTableRecord
  2
ACAD
 70
     0
  0
ENDTAB
  0
TABLE
  2
DIMSTYLE
  5
A
330
0
100
AcDbSymbolTable
 70
     1
  0
DIMSTYLE
105
27
330
A
100
AcDbSymbolTableRecord
100
AcDbDimStyleTableRecord
  2
ISO-25
 70
     0
  3

  4

  5

  6

  7

 40
1.0
 41
2.5
 42
0.625
 43
3.75
 44
1.25
 45
0.0
 46
0.0
 47
0.0
 48
0.0
140
2.5
141
2.5
142
0.0
143
0.03937007874016
144
1.0
145
0.0
146
1.0
147
0.625
 71
     0
 72
     0
 73
     0
 74
     0
 75
     0
 76
     0
 77
     1
 78
     8
170
     0
171
     3
172
     1
173
     0
174
     0
175
     0
176
     0
177
     0
178
     0
270
     2
271
     2
272
     2
273
     2
274
     3
340
11
275
     0
280
     0
281
     0
282
     0
283
     0
284
     8
285
     0
286
     0
287
     3
288
     0
  0
ENDTAB
  0
TABLE
  2
BLOCK_RECORD
  5
1
330
0
100
AcDbSymbolTable
 70
     1
  0
BLOCK_RECORD
  5
1F
330
1
100
AcDbSymbolTableRecord
100
AcDbBlockTableRecord
  2
*MODEL_SPACE
  0
BLOCK_RECORD
  5
1B
330
1
100
AcDbSymbolTableRecord
100
AcDbBlockTableRecord
  2
*PAPER_SPACE
  0
ENDTAB
  0
ENDSEC
  0
SECTION
  2
BLOCKS
  0
BLOCK
  5
20
330
1F
100
AcDbEntity
  8
0
100
AcDbBlockBegin
  2
*MODEL_SPACE
 70
     0
 10
0.0
 20
0.0
 30
0.0
  3
*MODEL_SPACE
  1

  0
ENDBLK
  5
21
330
1F
100
AcDbEntity
  8
0
100
AcDbBlockEnd
  0
BLOCK
  5
1C
330
1B
100
AcDbEntity
 67
     1
  8
0
100
AcDbBlockBegin
  2
*PAPER_SPACE
  1

  0
ENDBLK
  5
1D
330
1B
100
AcDbEntity
 67
     1
  8
0
100
AcDbBlockEnd
  0
ENDSEC
  0
SECTION
  2
ENTITIES
  0
LWPOLYLINE
  5
100
100
AcDbEntity
  8
Foreground
 62
7
100
AcDbPolyline
 90
93
 70
0
 10
94.211504
 20
17.785716
 30
0.0
 10
94.363504
 20
17.785716
 30
0.0
 10
94.485084
 20
17.774387
 30
0.0
 10
94.610137
 20
17.740404
 30
0.0
 10
94.738659
 20
17.683767
 30
0.0
 10
94.870654
 20
17.604479
 30
0.0
 10
95.006123
 20
17.502536
 30
0.0
 10
95.145061
 20
17.377941
 30
0.0
 10
95.433352
 20
17.060791
 30
0.0
 10
97.485358
 20
15.014632
 30
0.0
 10
99.442356
 20
16.989169
 30
0.0
 10
100.121977
 20
17.651254
 30
0.0
 10
100.383589
 20
17.752094
 30
0.0
 10
100.500148
 20
17.777307
 30
0.0
 10
100.607211
 20
17.785716
 30
0.0
 10
100.753363
 20
17.785716
 30
0.0
 10
100.884901
 20
17.775939
 30
0.0
 10
101.010592
 20
17.746615
 30
0.0
 10
101.130434
 20
17.697743
 30
0.0
 10
101.244435
 20
17.629325
 30
0.0
 10
101.352592
 20
17.541359
 30
0.0
 10
101.454901
 20
17.433845
 30
0.0
 10
101.551363
 20
17.306784
 30
0.0
 10
101.641982
 20
17.160176
 30
0.0
 10
101.690204
 20
16.995016
 30
0.0
 10
101.706287
 20
16.862021
 30
0.0
 10
101.706287
 20
10.308467
 30
0.0
 10
101.696878
 20
10.189443
 30
0.0
 10
101.668652
 20
10.074986
 30
0.0
 10
101.621608
 20
9.965096
 30
0.0
 10
101.555747
 20
9.859774
 30
0.0
 10
101.471068
 20
9.759019
 30
0.0
 10
101.367576
 20
9.662831
 30
0.0
 10
101.104135
 20
9.484158
 30
0.0
 10
100.940434
 20
9.422773
 30
0.0
 10
100.788439
 20
9.402311
 30
0.0
 10
100.554596
 20
9.402311
 30
0.0
 10
100.442328
 20
9.410350
 30
0.0
 10
100.333534
 20
9.434465
 30
0.0
 10
100.228208
 20
9.474658
 30
0.0
 10
100.126361
 20
9.530927
 30
0.0
 10
99.933072
 20
9.691697
 30
0.0
 10
99.753668
 20
9.916774
 30
0.0
 10
99.687164
 20
10.036620
 30
0.0
 10
99.639663
 20
10.185697
 30
0.0
 10
99.611164
 20
10.364006
 30
0.0
 10
99.601668
 20
10.571545
 30
0.0
 10
99.601668
 20
14.172784
 30
0.0
 10
98.486508
 20
13.059087
 30
0.0
 10
98.099205
 20
12.687858
 30
0.0
 10
97.954508
 20
12.600894
 30
0.0
 10
97.801043
 20
12.538778
 30
0.0
 10
97.638817
 20
12.501509
 30
0.0
 10
97.467819
 20
12.489088
 30
0.0
 10
97.328055
 20
12.500688
 30
0.0
 10
97.186471
 20
12.535490
 30
0.0
 10
97.043052
 20
12.593495
 30
0.0
 10
96.897814
 20
12.674701
 30
0.0
 10
96.750747
 20
12.779111
 30
0.0
 10
96.601851
 20
12.906722
 30
0.0
 10
96.298586
 20
13.231551
 30
0.0
 10
95.333966
 20
14.190323
 30
0.0
 10
95.333966
 20
10.442929
 30
0.0
 10
95.321177
 20
10.259414
 30
0.0
 10
95.282812
 20
10.091793
 30
0.0
 10
95.218872
 20
9.940067
 30
0.0
 10
95.129352
 20
9.804235
 30
0.0
 10
95.014253
 20
9.684297
 30
0.0
 10
94.873583
 20
9.580254
 30
0.0
 10
94.707334
 20
9.492105
 30
0.0
 10
94.515504
 20
9.419850
 30
0.0
 10
94.398581
 20
9.402311
 30
0.0
 10
94.164733
 20
9.402311
 30
0.0
 10
94.044248
 20
9.411355
 30
0.0
 10
93.928326
 20
9.438485
 30
0.0
 10
93.816978
 20
9.483701
 30
0.0
 10
93.710192
 20
9.547004
 30
0.0
 10
93.607975
 20
9.628394
 30
0.0
 10
93.510326
 20
9.727870
 30
0.0
 10
93.328733
 20
9.981082
 30
0.0
 10
93.254192
 20
10.182775
 30
0.0
 10
93.229347
 20
10.378621
 30
0.0
 10
93.229347
 20
16.826944
 30
0.0
 10
93.240857
 20
16.971817
 30
0.0
 10
93.275384
 20
17.108287
 30
0.0
 10
93.332931
 20
17.236353
 30
0.0
 10
93.413499
 20
17.356017
 30
0.0
 10
93.517088
 20
17.467277
 30
0.0
 10
93.643693
 20
17.570134
 30
0.0
 10
93.793319
 20
17.664588
 30
0.0
 10
93.965961
 20
17.750639
 30
0.0
 10
94.211504
 20
17.785716
 30
0.0
 10
94.211504
 20
17.785716
 30
0.0
  0
LWPOLYLINE
  5
101
100
AcDbEntity
  8
Foreground
 62
7
100
AcDbPolyline
 90
61
 70
0
 10
88.318565
 20
17.785716
 30
0.0
 10
88.499798
 20
17.785716
 30
0.0
 10
88.658098
 20
17.769545
 30
0.0
 10
88.808546
 20
17.721038
 30
0.0
 10
88.951138
 20
17.640196
 30
0.0
 10
89.085872
 20
17.527017
 30
0.0
 10
89.212749
 20
17.381503
 30
0.0
 10
89.331775
 20
17.203652
 30
0.0
 10
89.442944
 20
16.993466
 30
0.0
 10
89.546260
 20
16.750944
 30
0.0
 10
91.817489
 20
12.259624
 30
0.0
 10
92.633037
 20
10.606622
 30
0.0
 10
92.633037
 20
10.290929
 30
0.0
 10
92.622072
 20
10.161217
 30
0.0
 10
92.589185
 20
10.038082
 30
0.0
 10
92.534376
 20
9.921524
 30
0.0
 10
92.457647
 20
9.811543
 30
0.0
 10
92.358991
 20
9.708139
 30
0.0
 10
92.238418
 20
9.611312
 30
0.0
 10
92.095919
 20
9.521061
 30
0.0
 10
91.931499
 20
9.437388
 30
0.0
 10
91.685956
 20
9.402311
 30
0.0
 10
91.533956
 20
9.402311
 30
0.0
 10
91.374187
 20
9.419028
 30
0.0
 10
91.222279
 20
9.469177
 30
0.0
 10
91.078223
 20
9.552759
 30
0.0
 10
90.942025
 20
9.669773
 30
0.0
 10
90.813683
 20
9.820221
 30
0.0
 10
90.693198
 20
10.004101
 30
0.0
 10
90.580570
 20
10.221414
 30
0.0
 10
90.475799
 20
10.472160
 30
0.0
 10
88.920717
 20
13.538472
 30
0.0
 10
88.382874
 20
14.576170
 30
0.0
 10
86.618790
 20
11.048007
 30
0.0
 10
85.945021
 20
9.747235
 30
0.0
 10
85.771095
 20
9.596331
 30
0.0
 10
85.594250
 20
9.488542
 30
0.0
 10
85.414481
 20
9.423869
 30
0.0
 10
85.231788
 20
9.402311
 30
0.0
 10
85.085635
 20
9.402311
 30
0.0
 10
84.955557
 20
9.412360
 30
0.0
 10
84.831326
 20
9.442504
 30
0.0
 10
84.712942
 20
9.492744
 30
0.0
 10
84.600402
 20
9.563081
 30
0.0
 10
84.493709
 20
9.653514
 30
0.0
 10
84.392864
 20
9.764043
 30
0.0
 10
84.297866
 20
9.894668
 30
0.0
 10
84.208711
 20
10.045390
 30
0.0
 10
84.169247
 20
10.213466
 30
0.0
 10
84.156092
 20
10.343545
 30
0.0
 10
84.156092
 20
10.472160
 30
0.0
 10
84.193362
 20
10.644256
 30
0.0
 10
84.305168
 20
10.926699
 30
0.0
 10
84.491515
 20
11.319488
 30
0.0
 10
84.752402
 20
11.822625
 30
0.0
 10
87.570255
 20
17.388176
 30
0.0
 10
87.741987
 20
17.562095
 30
0.0
 10
87.923945
 20
17.686325
 30
0.0
 10
88.116140
 20
17.760865
 30
0.0
 10
88.318565
 20
17.785716
 30
0.0
 10
88.318565
 20
17.785716
 30
0.0
  0
LWPOLYLINE
  5
102
100
AcDbEntity
  8
Foreground
 62
7
100
AcDbPolyline
 90
91
 70
0
 10
76.065000
 20
17.785716
 30
0.0
 10
82.606858
 20
17.785716
 30
0.0
 10
82.738397
 20
17.775939
 30
0.0
 10
82.864087
 20
17.746615
 30
0.0
 10
82.983930
 20
17.697743
 30
0.0
 10
83.097930
 20
17.629325
 30
0.0
 10
83.206087
 20
17.541359
 30
0.0
 10
83.308397
 20
17.433845
 30
0.0
 10
83.404859
 20
17.306784
 30
0.0
 10
83.495478
 20
17.160176
 30
0.0
 10
83.543699
 20
16.989170
 30
0.0
 10
83.559782
 20
16.862021
 30
0.0
 10
83.559782
 20
16.628175
 30
0.0
 10
83.549916
 20
16.505037
 30
0.0
 10
83.520318
 20
16.387017
 30
0.0
 10
83.470993
 20
16.274112
 30
0.0
 10
83.401935
 20
16.166323
 30
0.0
 10
83.313145
 20
16.063649
 30
0.0
 10
83.204628
 20
15.966093
 30
0.0
 10
83.076378
 20
15.873652
 30
0.0
 10
82.928397
 20
15.786326
 30
0.0
 10
82.729620
 20
15.724937
 30
0.0
 10
82.542549
 20
15.704480
 30
0.0
 10
77.187462
 20
15.704480
 30
0.0
 10
77.187462
 20
14.634631
 30
0.0
 10
81.326549
 20
14.634631
 30
0.0
 10
81.515814
 20
14.624856
 30
0.0
 10
81.689006
 20
14.595532
 30
0.0
 10
81.846124
 20
14.546661
 30
0.0
 10
81.987158
 20
14.478243
 30
0.0
 10
82.112124
 20
14.390276
 30
0.0
 10
82.221006
 20
14.282762
 30
0.0
 10
82.313814
 20
14.155701
 30
0.0
 10
82.390549
 20
14.009092
 30
0.0
 10
82.451930
 20
13.835165
 30
0.0
 10
82.472396
 20
13.675860
 30
0.0
 10
82.472396
 20
13.529706
 30
0.0
 10
82.460701
 20
13.375603
 30
0.0
 10
82.425625
 20
13.231915
 30
0.0
 10
82.367163
 20
13.098640
 30
0.0
 10
82.285315
 20
12.975779
 30
0.0
 10
82.180082
 20
12.863332
 30
0.0
 10
82.051468
 20
12.761298
 30
0.0
 10
81.899468
 20
12.669679
 30
0.0
 10
81.724087
 20
12.588473
 30
0.0
 10
81.604239
 20
12.562163
 30
0.0
 10
81.490239
 20
12.553396
 30
0.0
 10
77.187462
 20
12.553396
 30
0.0
 10
77.187462
 20
11.483547
 30
0.0
 10
82.425630
 20
11.483547
 30
0.0
 10
82.645403
 20
11.469570
 30
0.0
 10
82.842895
 20
11.427642
 30
0.0
 10
83.018096
 20
11.357762
 30
0.0
 10
83.171006
 20
11.259930
 30
0.0
 10
83.301634
 20
11.134146
 30
0.0
 10
83.409972
 20
10.980410
 30
0.0
 10
83.496023
 20
10.798723
 30
0.0
 10
83.559782
 20
10.589083
 30
0.0
 10
83.559782
 20
10.308467
 30
0.0
 10
83.550374
 20
10.189443
 30
0.0
 10
83.522142
 20
10.074986
 30
0.0
 10
83.475099
 20
9.965096
 30
0.0
 10
83.409237
 20
9.859774
 30
0.0
 10
83.324563
 20
9.759019
 30
0.0
 10
83.221066
 20
9.662831
 30
0.0
 10
82.957630
 20
9.484158
 30
0.0
 10
82.793930
 20
9.422773
 30
0.0
 10
82.641935
 20
9.402311
 30
0.0
 10
76.018228
 20
9.402311
 30
0.0
 10
75.888242
 20
9.412360
 30
0.0
 10
75.764283
 20
9.442504
 30
0.0
 10
75.646357
 20
9.492744
 30
0.0
 10
75.534459
 20
9.563081
 30
0.0
 10
75.428588
 20
9.653514
 30
0.0
 10
75.328745
 20
9.764043
 30
0.0
 10
75.234930
 20
9.894668
 30
0.0
 10
75.147147
 20
10.045390
 30
0.0
 10
75.098921
 20
10.204697
 30
0.0
 10
75.082842
 20
10.343545
 30
0.0
 10
75.082842
 20
16.809406
 30
0.0
 10
75.094533
 20
16.963505
 30
0.0
 10
75.129614
 20
17.107190
 30
0.0
 10
75.188071
 20
17.240464
 30
0.0
 10
75.269918
 20
17.363324
 30
0.0
 10
75.375152
 20
17.475772
 30
0.0
 10
75.503766
 20
17.577807
 30
0.0
 10
75.655766
 20
17.669429
 30
0.0
 10
75.831152
 20
17.750639
 30
0.0
 10
75.953919
 20
17.776941
 30
0.0
 10
76.065000
 20
17.785716
 30
0.0
 10
76.065000
 20
17.785716
 30
0.0
  0
LWPOLYLINE
  5
103
100
AcDbEntity
  8
Foreground
 62
7
100
AcDbPolyline
 90
68
 70
0
 10
66.991745
 20
17.785716
 30
0.0
 10
71.984370
 20
17.785716
 30
0.0
 10
72.249183
 20
17.770002
 30
0.0
 10
72.508698
 20
17.722865
 30
0.0
 10
72.762910
 20
17.644306
 30
0.0
 10
73.011830
 20
17.534324
 30
0.0
 10
73.255451
 20
17.392921
 30
0.0
 10
73.493774
 20
17.220094
 30
0.0
 10
73.726805
 20
17.015846
 30
0.0
 10
73.954532
 20
16.780175
 30
0.0
 10
74.187276
 20
16.403093
 30
0.0
 10
74.353525
 20
16.037707
 30
0.0
 10
74.411715
 20
15.859399
 30
0.0
 10
74.453276
 20
15.684015
 30
0.0
 10
74.478218
 20
15.511554
 30
0.0
 10
74.486533
 20
15.342018
 30
0.0
 10
74.486533
 20
14.997094
 30
0.0
 10
74.478491
 20
14.828102
 30
0.0
 10
74.454375
 20
14.657283
 30
0.0
 10
74.414181
 20
14.484637
 30
0.0
 10
74.357909
 20
14.310166
 30
0.0
 10
74.197142
 20
13.955742
 30
0.0
 10
73.972071
 20
13.594014
 30
0.0
 10
74.197142
 20
13.224607
 30
0.0
 10
74.357909
 20
12.870548
 30
0.0
 10
74.454375
 20
12.531836
 30
0.0
 10
74.478491
 20
12.368236
 30
0.0
 10
74.486533
 20
12.208472
 30
0.0
 10
74.486533
 20
11.810933
 30
0.0
 10
74.475022
 20
11.611523
 30
0.0
 10
74.440491
 20
11.410834
 30
0.0
 10
74.382939
 20
11.208867
 30
0.0
 10
74.302370
 20
11.005622
 30
0.0
 10
74.198786
 20
10.801097
 30
0.0
 10
74.072181
 20
10.595294
 30
0.0
 10
73.922555
 20
10.388212
 30
0.0
 10
73.749913
 20
10.179852
 30
0.0
 10
73.536620
 20
9.997616
 30
0.0
 10
73.323507
 20
9.839678
 30
0.0
 10
73.110578
 20
9.706038
 30
0.0
 10
72.897830
 20
9.596696
 30
0.0
 10
72.685271
 20
9.511653
 30
0.0
 10
72.472887
 20
9.450908
 30
0.0
 10
72.260693
 20
9.414461
 30
0.0
 10
72.048680
 20
9.402311
 30
0.0
 10
66.944973
 20
9.402311
 30
0.0
 10
66.814987
 20
9.412360
 30
0.0
 10
66.691034
 20
9.442504
 30
0.0
 10
66.573103
 20
9.492744
 30
0.0
 10
66.461204
 20
9.563081
 30
0.0
 10
66.355334
 20
9.653514
 30
0.0
 10
66.255490
 20
9.764043
 30
0.0
 10
66.161680
 20
9.894668
 30
0.0
 10
66.073897
 20
10.045390
 30
0.0
 10
66.025666
 20
10.204697
 30
0.0
 10
66.009587
 20
10.343545
 30
0.0
 10
66.009587
 20
16.809406
 30
0.0
 10
66.021278
 20
16.963505
 30
0.0
 10
66.056359
 20
17.107190
 30
0.0
 10
66.114821
 20
17.240464
 30
0.0
 10
66.196669
 20
17.363324
 30
0.0
 10
66.301897
 20
17.475772
 30
0.0
 10
66.430511
 20
17.577807
 30
0.0
 10
66.582511
 20
17.669429
 30
0.0
 10
66.757897
 20
17.750639
 30
0.0
 10
66.880669
 20
17.776941
 30
0.0
 10
66.991745
 20
17.785716
 30
0.0
 10
66.991745
 20
17.785716
 30
0.0
  0
LWPOLYLINE
  5
104
100
AcDbEntity
  8
Foreground
 62
7
100
AcDbPolyline
 90
5
 70
0
 10
68.114207
 20
15.704480
 30
0.0
 10
68.114207
 20
14.634631
 30
0.0
 10
72.381913
 20
14.634631
 30
0.0
 10
72.381913
 20
15.704480
 30
0.0
 10
68.114207
 20
15.704480
 30
0.0
  0
LWPOLYLINE
  5
105
100
AcDbEntity
  8
Foreground
 62
7
100
AcDbPolyline
 90
5
 70
0
 10
68.114207
 20
12.553396
 30
0.0
 10
68.114207
 20
11.483547
 30
0.0
 10
72.381913
 20
11.483547
 30
0.0
 10
72.381913
 20
12.553396
 30
0.0
 10
68.114207
 20
12.553396
 30
0.0
  0
LWPOLYLINE
  5
106
100
AcDbEntity
  8
Foreground
 62
7
100
AcDbPolyline
 90
91
 70
0
 10
57.918490
 20
17.785716
 30
0.0
 10
64.460354
 20
17.785716
 30
0.0
 10
64.591892
 20
17.775939
 30
0.0
 10
64.717582
 20
17.746615
 30
0.0
 10
64.837425
 20
17.697743
 30
0.0
 10
64.951425
 20
17.629325
 30
0.0
 10
65.059582
 20
17.541359
 30
0.0
 10
65.161892
 20
17.433845
 30
0.0
 10
65.258354
 20
17.306784
 30
0.0
 10
65.348973
 20
17.160176
 30
0.0
 10
65.397194
 20
16.989170
 30
0.0
 10
65.413278
 20
16.862021
 30
0.0
 10
65.413278
 20
16.628175
 30
0.0
 10
65.403412
 20
16.505037
 30
0.0
 10
65.373813
 20
16.387017
 30
0.0
 10
65.324488
 20
16.274112
 30
0.0
 10
65.255430
 20
16.166323
 30
0.0
 10
65.166640
 20
16.063649
 30
0.0
 10
65.058123
 20
15.966093
 30
0.0
 10
64.929874
 20
15.873652
 30
0.0
 10
64.781892
 20
15.786326
 30
0.0
 10
64.583116
 20
15.724937
 30
0.0
 10
64.396044
 20
15.704480
 30
0.0
 10
59.040957
 20
15.704480
 30
0.0
 10
59.040957
 20
14.634631
 30
0.0
 10
63.180044
 20
14.634631
 30
0.0
 10
63.369309
 20
14.624856
 30
0.0
 10
63.542501
 20
14.595532
 30
0.0
 10
63.699619
 20
14.546661
 30
0.0
 10
63.840653
 20
14.478243
 30
0.0
 10
63.965619
 20
14.390276
 30
0.0
 10
64.074501
 20
14.282762
 30
0.0
 10
64.167310
 20
14.155701
 30
0.0
 10
64.244044
 20
14.009092
 30
0.0
 10
64.305425
 20
13.835165
 30
0.0
 10
64.325892
 20
13.675860
 30
0.0
 10
64.325892
 20
13.529706
 30
0.0
 10
64.314197
 20
13.375603
 30
0.0
 10
64.279120
 20
13.231915
 30
0.0
 10
64.220658
 20
13.098640
 30
0.0
 10
64.138811
 20
12.975779
 30
0.0
 10
64.033577
 20
12.863332
 30
0.0
 10
63.904963
 20
12.761298
 30
0.0
 10
63.752963
 20
12.669679
 30
0.0
 10
63.577582
 20
12.588473
 30
0.0
 10
63.457730
 20
12.562163
 30
0.0
 10
63.343734
 20
12.553396
 30
0.0
 10
59.040957
 20
12.553396
 30
0.0
 10
59.040957
 20
11.483547
 30
0.0
 10
64.279125
 20
11.483547
 30
0.0
 10
64.498899
 20
11.469570
 30
0.0
 10
64.696391
 20
11.427642
 30
0.0
 10
64.871592
 20
11.357762
 30
0.0
 10
65.024501
 20
11.259930
 30
0.0
 10
65.155130
 20
11.134146
 30
0.0
 10
65.263467
 20
10.980410
 30
0.0
 10
65.349518
 20
10.798723
 30
0.0
 10
65.413278
 20
10.589083
 30
0.0
 10
65.413278
 20
10.308467
 30
0.0
 10
65.403869
 20
10.189443
 30
0.0
 10
65.375638
 20
10.074986
 30
0.0
 10
65.328594
 20
9.965096
 30
0.0
 10
65.262732
 20
9.859774
 30
0.0
 10
65.178058
 20
9.759019
 30
0.0
 10
65.074562
 20
9.662831
 30
0.0
 10
64.811125
 20
9.484158
 30
0.0
 10
64.647425
 20
9.422773
 30
0.0
 10
64.495430
 20
9.402311
 30
0.0
 10
57.871724
 20
9.402311
 30
0.0
 10
57.741737
 20
9.412360
 30
0.0
 10
57.617779
 20
9.442504
 30
0.0
 10
57.499853
 20
9.492744
 30
0.0
 10
57.387954
 20
9.563081
 30
0.0
 10
57.282084
 20
9.653514
 30
0.0
 10
57.182241
 20
9.764043
 30
0.0
 10
57.088425
 20
9.894668
 30
0.0
 10
57.000642
 20
10.045390
 30
0.0
 10
56.952411
 20
10.204697
 30
0.0
 10
56.936338
 20
10.343545
 30
0.0
 10
56.936338
 20
16.809406
 30
0.0
 10
56.948028
 20
16.963505
 30
0.0
 10
56.983109
 20
17.107190
 30
0.0
 10
57.041566
 20
17.240464
 30
0.0
 10
57.123414
 20
17.363324
 30
0.0
 10
57.228647
 20
17.475772
 30
0.0
 10
57.357261
 20
17.577807
 30
0.0
 10
57.509262
 20
17.669429
 30
0.0
 10
57.684647
 20
17.750639
 30
0.0
 10
57.807414
 20
17.776941
 30
0.0
 10
57.918490
 20
17.785716
 30
0.0
 10
57.918490
 20
17.785716
 30
0.0
  0
LWPOLYLINE
  5
107
100
AcDbEntity
  8
Foreground
 62
7
100
AcDbPolyline
 90
89
 70
0
 10
48.845240
 20
17.785716
 30
0.0
 10
53.837865
 20
17.785716
 30
0.0
 10
54.102678
 20
17.770002
 30
0.0
 10
54.362193
 20
17.722865
 30
0.0
 10
54.616406
 20
17.644306
 30
0.0
 10
54.865325
 20
17.534324
 30
0.0
 10
55.108946
 20
17.392921
 30
0.0
 10
55.347270
 20
17.220094
 30
0.0
 10
55.580300
 20
17.015846
 30
0.0
 10
55.808028
 20
16.780175
 30
0.0
 10
56.040771
 20
16.403093
 30
0.0
 10
56.207021
 20
16.037707
 30
0.0
 10
56.265210
 20
15.859399
 30
0.0
 10
56.306771
 20
15.684015
 30
0.0
 10
56.331714
 20
15.511554
 30
0.0
 10
56.340028
 20
15.342018
 30
0.0
 10
56.340028
 20
14.997094
 30
0.0
 10
56.324129
 20
14.743332
 30
0.0
 10
56.276443
 20
14.493590
 30
0.0
 10
56.196974
 20
14.247868
 30
0.0
 10
56.085713
 20
14.006165
 30
0.0
 10
55.942665
 20
13.768482
 30
0.0
 10
55.767829
 20
13.534819
 30
0.0
 10
55.561205
 20
13.305175
 30
0.0
 10
55.322794
 20
13.079551
 30
0.0
 10
55.028655
 20
12.901606
 30
0.0
 10
54.765939
 20
12.765317
 30
0.0
 10
54.534650
 20
12.670682
 30
0.0
 10
54.334789
 20
12.617704
 30
0.0
 10
54.334789
 20
12.606011
 30
0.0
 10
55.410480
 20
11.629700
 30
0.0
 10
55.781713
 20
11.273084
 30
0.0
 10
56.041871
 20
11.004161
 30
0.0
 10
56.121154
 20
10.853987
 30
0.0
 10
56.177792
 20
10.707467
 30
0.0
 10
56.211774
 20
10.564602
 30
0.0
 10
56.223104
 20
10.425391
 30
0.0
 10
56.211594
 20
10.265443
 30
0.0
 10
56.177062
 20
10.115909
 30
0.0
 10
56.119510
 20
9.976788
 30
0.0
 10
56.038942
 20
9.848082
 30
0.0
 10
55.935358
 20
9.729788
 30
0.0
 10
55.808753
 20
9.621908
 30
0.0
 10
55.659127
 20
9.524441
 30
0.0
 10
55.486485
 20
9.437388
 30
0.0
 10
55.270180
 20
9.402311
 30
0.0
 10
55.036332
 20
9.402311
 30
0.0
 10
54.929912
 20
9.413639
 30
0.0
 10
54.815270
 20
9.447619
 30
0.0
 10
54.692406
 20
9.504254
 30
0.0
 10
54.561325
 20
9.583542
 30
0.0
 10
54.274498
 20
9.810082
 30
0.0
 10
53.954789
 20
10.127236
 30
0.0
 10
53.174322
 20
10.830237
 30
0.0
 10
51.300631
 20
12.553396
 30
0.0
 10
49.967704
 20
12.553396
 30
0.0
 10
49.967704
 20
10.407852
 30
0.0
 10
49.955372
 20
10.242789
 30
0.0
 10
49.918376
 20
10.089601
 30
0.0
 10
49.856717
 20
9.948289
 30
0.0
 10
49.770395
 20
9.818851
 30
0.0
 10
49.659409
 20
9.701288
 30
0.0
 10
49.523760
 20
9.595600
 30
0.0
 10
49.363447
 20
9.501788
 30
0.0
 10
49.178472
 20
9.419850
 30
0.0
 10
49.032317
 20
9.402311
 30
0.0
 10
48.798471
 20
9.402311
 30
0.0
 10
48.668484
 20
9.412360
 30
0.0
 10
48.544527
 20
9.442504
 30
0.0
 10
48.426599
 20
9.492744
 30
0.0
 10
48.314700
 20
9.563081
 30
0.0
 10
48.208830
 20
9.653514
 30
0.0
 10
48.108988
 20
9.764043
 30
0.0
 10
48.015176
 20
9.894668
 30
0.0
 10
47.927392
 20
10.045390
 30
0.0
 10
47.879161
 20
10.204697
 30
0.0
 10
47.863084
 20
10.343545
 30
0.0
 10
47.863084
 20
16.809406
 30
0.0
 10
47.874776
 20
16.963505
 30
0.0
 10
47.909853
 20
17.107190
 30
0.0
 10
47.968315
 20
17.240464
 30
0.0
 10
48.050161
 20
17.363324
 30
0.0
 10
48.155392
 20
17.475772
 30
0.0
 10
48.284008
 20
17.577807
 30
0.0
 10
48.436008
 20
17.669429
 30
0.0
 10
48.611394
 20
17.750639
 30
0.0
 10
48.734162
 20
17.776941
 30
0.0
 10
48.845240
 20
17.785716
 30
0.0
 10
48.845240
 20
17.785716
 30
0.0
  0
LWPOLYLINE
  5
108
100
AcDbEntity
  8
Foreground
 62
7
100
AcDbPolyline
 90
5
 70
0
 10
49.967704
 20
15.704480
 30
0.0
 10
49.967704
 20
14.617093
 30
0.0
 10
54.235408
 20
14.617093
 30
0.0
 10
54.235408
 20
15.704480
 30
0.0
 10
49.967704
 20
15.704480
 30
0.0
  0
LWPOLYLINE
  5
109
100
AcDbEntity
  8
Foreground
 62
7
100
AcDbPolyline
 90
61
 70
0
 10
41.707069
 20
17.785716
 30
0.0
 10
44.320306
 20
17.785716
 30
0.0
 10
44.677742
 20
17.770002
 30
0.0
 10
45.022208
 20
17.722865
 30
0.0
 10
45.353703
 20
17.644306
 30
0.0
 10
45.672227
 20
17.534324
 30
0.0
 10
45.977781
 20
17.392921
 30
0.0
 10
46.270364
 20
17.220094
 30
0.0
 10
46.549977
 20
17.015846
 30
0.0
 10
46.816620
 20
16.780175
 30
0.0
 10
47.013558
 20
16.502478
 30
0.0
 10
47.154230
 20
16.242323
 30
0.0
 10
47.238635
 20
15.999708
 30
0.0
 10
47.266775
 20
15.774634
 30
0.0
 10
47.266775
 20
11.413393
 30
0.0
 10
47.253983
 20
11.251892
 30
0.0
 10
47.215616
 20
11.088930
 30
0.0
 10
47.151672
 20
10.924506
 30
0.0
 10
47.062152
 20
10.758621
 30
0.0
 10
46.947056
 20
10.591275
 30
0.0
 10
46.806384
 20
10.422467
 30
0.0
 10
46.640136
 20
10.252198
 30
0.0
 10
46.448311
 20
10.080467
 30
0.0
 10
46.194274
 20
9.921524
 30
0.0
 10
45.934941
 20
9.783774
 30
0.0
 10
45.670309
 20
9.667216
 30
0.0
 10
45.400381
 20
9.571850
 30
0.0
 10
45.125154
 20
9.497677
 30
0.0
 10
44.844630
 20
9.444696
 30
0.0
 10
44.558809
 20
9.412908
 30
0.0
 10
44.267690
 20
9.402311
 30
0.0
 10
41.818147
 20
9.402311
 30
0.0
 10
41.469477
 20
9.415922
 30
0.0
 10
41.133779
 20
9.456754
 30
0.0
 10
40.811051
 20
9.524807
 30
0.0
 10
40.501296
 20
9.620081
 30
0.0
 10
40.204512
 20
9.742577
 30
0.0
 10
39.920699
 20
9.892293
 30
0.0
 10
39.649857
 20
10.069231
 30
0.0
 10
39.391987
 20
10.273390
 30
0.0
 10
39.128544
 20
10.575563
 30
0.0
 10
39.025049
 20
10.727472
 30
0.0
 10
38.940371
 20
10.879929
 30
0.0
 10
38.874510
 20
11.032934
 30
0.0
 10
38.827466
 20
11.186488
 30
0.0
 10
38.799240
 20
11.340590
 30
0.0
 10
38.789831
 20
11.495240
 30
0.0
 10
38.789831
 20
15.692788
 30
0.0
 10
38.811937
 20
15.946729
 30
0.0
 10
38.878255
 20
16.191170
 30
0.0
 10
38.988783
 20
16.426112
 30
0.0
 10
39.143524
 20
16.651554
 30
0.0
 10
39.342477
 20
16.867497
 30
0.0
 10
39.585641
 20
17.073941
 30
0.0
 10
39.873017
 20
17.270886
 30
0.0
 10
40.204604
 20
17.458331
 30
0.0
 10
40.607623
 20
17.601557
 30
0.0
 10
40.992373
 20
17.703863
 30
0.0
 10
41.358856
 20
17.765250
 30
0.0
 10
41.707069
 20
17.785716
 30
0.0
 10
41.707069
 20
17.785716
 30
0.0
  0
LWPOLYLINE
  5
10a
100
AcDbEntity
  8
Foreground
 62
7
100
AcDbPolyline
 90
5
 70
0
 10
40.824298
 20
15.710326
 30
0.0
 10
40.824298
 20
11.477701
 30
0.0
 10
45.232308
 20
11.477701
 30
0.0
 10
45.232308
 20
15.710326
 30
0.0
 10
40.824298
 20
15.710326
 30
0.0
  0
LWPOLYLINE
  5
10b
100
AcDbEntity
  8
Foreground
 62
7
100
AcDbPolyline
 90
103
 70
0
 10
33.890743
 20
17.785716
 30
0.0
 10
37.240597
 20
17.785716
 30
0.0
 10
37.370854
 20
17.775939
 30
0.0
 10
37.495631
 20
17.746615
 30
0.0
 10
37.614929
 20
17.697743
 30
0.0
 10
37.728746
 20
17.629325
 30
0.0
 10
37.837083
 20
17.541359
 30
0.0
 10
37.939940
 20
17.433845
 30
0.0
 10
38.037317
 20
17.306784
 30
0.0
 10
38.129215
 20
17.160176
 30
0.0
 10
38.177439
 20
16.989170
 30
0.0
 10
38.193522
 20
16.862021
 30
0.0
 10
38.193522
 20
16.628175
 30
0.0
 10
38.183654
 20
16.505037
 30
0.0
 10
38.154056
 20
16.387017
 30
0.0
 10
38.104728
 20
16.274112
 30
0.0
 10
38.035670
 20
16.166323
 30
0.0
 10
37.946881
 20
16.063649
 30
0.0
 10
37.838363
 20
15.966093
 30
0.0
 10
37.710115
 20
15.873652
 30
0.0
 10
37.562136
 20
15.786326
 30
0.0
 10
37.363361
 20
15.724937
 30
0.0
 10
37.176289
 20
15.704480
 30
0.0
 10
34.358436
 20
15.704480
 30
0.0
 10
33.955049
 20
15.682555
 30
0.0
 10
33.580894
 20
15.616784
 30
0.0
 10
33.235970
 20
15.507168
 30
0.0
 10
32.920277
 20
15.353706
 30
0.0
 10
32.633815
 20
15.156398
 30
0.0
 10
32.376584
 20
14.915244
 30
0.0
 10
32.148584
 20
14.630245
 30
0.0
 10
31.949815
 20
14.301400
 30
0.0
 10
31.893544
 20
14.110301
 30
0.0
 10
31.853352
 20
13.922857
 30
0.0
 10
31.829237
 20
13.739069
 30
0.0
 10
31.821200
 20
13.558937
 30
0.0
 10
31.841478
 20
13.280969
 30
0.0
 10
31.902314
 20
13.017068
 30
0.0
 10
32.003708
 20
12.767235
 30
0.0
 10
32.145660
 20
12.531470
 30
0.0
 10
32.328170
 20
12.309773
 30
0.0
 10
32.551238
 20
12.102143
 30
0.0
 10
32.814865
 20
11.908581
 30
0.0
 10
33.119049
 20
11.729086
 30
0.0
 10
33.402951
 20
11.621662
 30
0.0
 10
33.681740
 20
11.544930
 30
0.0
 10
33.955414
 20
11.498892
 30
0.0
 10
34.223975
 20
11.483547
 30
0.0
 10
37.076904
 20
11.483547
 30
0.0
 10
37.273113
 20
11.471398
 30
0.0
 10
37.452516
 20
11.434949
 30
0.0
 10
37.615111
 20
11.374204
 30
0.0
 10
37.760900
 20
11.289161
 30
0.0
 10
37.889881
 20
11.179819
 30
0.0
 10
38.002055
 20
11.046179
 30
0.0
 10
38.097423
 20
10.888242
 30
0.0
 10
38.175984
 20
10.706007
 30
0.0
 10
38.193522
 20
10.542314
 30
0.0
 10
38.193522
 20
10.308467
 30
0.0
 10
38.184111
 20
10.189443
 30
0.0
 10
38.155883
 20
10.074986
 30
0.0
 10
38.108838
 20
9.965096
 30
0.0
 10
38.042977
 20
9.859774
 30
0.0
 10
37.958300
 20
9.759019
 30
0.0
 10
37.854805
 20
9.662831
 30
0.0
 10
37.591367
 20
9.484158
 30
0.0
 10
37.427669
 20
9.422773
 30
0.0
 10
37.275674
 20
9.402311
 30
0.0
 10
33.785512
 20
9.402311
 30
0.0
 10
33.442779
 20
9.419576
 30
0.0
 10
33.101509
 20
9.471369
 30
0.0
 10
32.761700
 20
9.557692
 30
0.0
 10
32.423353
 20
9.678542
 30
0.0
 10
32.086468
 20
9.833923
 30
0.0
 10
31.751044
 20
10.023832
 30
0.0
 10
31.417082
 20
10.248270
 30
0.0
 10
31.084582
 20
10.507237
 30
0.0
 10
30.744408
 20
10.869699
 30
0.0
 10
30.478042
 20
11.191237
 30
0.0
 10
30.285484
 20
11.471854
 30
0.0
 10
30.166734
 20
11.711548
 30
0.0
 10
29.969791
 20
12.154393
 30
0.0
 10
29.829118
 20
12.588470
 30
0.0
 10
29.744714
 20
13.013780
 30
0.0
 10
29.716579
 20
13.430321
 30
0.0
 10
29.716579
 20
13.740168
 30
0.0
 10
29.736127
 20
14.111672
 30
0.0
 10
29.794772
 20
14.477878
 30
0.0
 10
29.892512
 20
14.838787
 30
0.0
 10
30.029349
 20
15.194398
 30
0.0
 10
30.205282
 20
15.544711
 30
0.0
 10
30.420311
 20
15.889727
 30
0.0
 10
30.674437
 20
16.229446
 30
0.0
 10
30.967659
 20
16.563867
 30
0.0
 10
31.307466
 20
16.850235
 30
0.0
 10
31.654582
 20
17.098421
 30
0.0
 10
32.009006
 20
17.308426
 30
0.0
 10
32.370737
 20
17.480248
 30
0.0
 10
32.739777
 20
17.613888
 30
0.0
 10
33.116124
 20
17.709346
 30
0.0
 10
33.499779
 20
17.766622
 30
0.0
 10
33.890743
 20
17.785716
 30
0.0
 10
33.890743
 20
17.785716
 30
0.0
  0
LWPOLYLINE
  5
10c
100
AcDbEntity
  8
Foreground
 62
7
100
AcDbPolyline
 90
29
 70
0
 10
16.315951
 20
26.477693
 30
0.0
 10
16.113334
 20
26.450404
 30
0.0
 10
15.927364
 20
26.372490
 30
0.0
 10
15.766935
 20
26.249879
 30
0.0
 10
15.640941
 20
26.088500
 30
0.0
 10
1.833648
 20
2.172782
 30
0.0
 10
1.754289
 20
1.982061
 30
0.0
 10
1.727836
 20
1.781762
 30
0.0
 10
1.754289
 20
1.582375
 30
0.0
 10
1.833648
 20
1.394391
 30
0.0
 10
1.959880
 20
1.230960
 30
0.0
 10
2.120831
 20
1.108577
 30
0.0
 10
2.307323
 20
1.031803
 30
0.0
 10
2.510178
 20
1.005198
 30
0.0
 10
30.123244
 20
1.005198
 30
0.0
 10
30.326100
 20
1.032487
 30
0.0
 10
30.512592
 20
1.110401
 30
0.0
 10
30.673544
 20
1.233012
 30
0.0
 10
30.799776
 20
1.394391
 30
0.0
 10
30.879135
 20
1.585112
 30
0.0
 10
30.905588
 20
1.785411
 30
0.0
 10
30.879135
 20
1.984798
 30
0.0
 10
30.799776
 20
2.172782
 30
0.0
 10
16.992481
 20
26.088500
 30
0.0
 10
16.866250
 20
26.251930
 30
0.0
 10
16.705298
 20
26.374313
 30
0.0
 10
16.518806
 20
26.451088
 30
0.0
 10
16.315951
 20
26.477693
 30
0.0
 10
16.315951
 20
26.477693
 30
0.0
  0
LWPOLYLINE
  5
10d
100
AcDbEntity
  8
Foreground
 62
7
100
AcDbPolyline
 90
76
 70
0
 10
16.315951
 20
24.133403
 30
0.0
 10
24.517928
 20
9.930832
 30
0.0
 10
17.930502
 20
9.930832
 30
0.0
 10
19.812623
 20
10.435569
 30
0.0
 10
19.700121
 20
10.855172
 30
0.0
 10
17.818000
 20
10.350434
 30
0.0
 10
21.147440
 20
12.272082
 30
0.0
 10
20.930038
 20
12.649114
 30
0.0
 10
17.597558
 20
10.724427
 30
0.0
 10
18.977983
 20
12.104852
 30
0.0
 10
18.670884
 20
12.411949
 30
0.0
 10
17.295019
 20
11.034566
 30
0.0
 10
19.215148
 20
14.364004
 30
0.0
 10
18.839636
 20
14.579887
 30
0.0
 10
16.916467
 20
11.248925
 30
0.0
 10
17.421204
 20
13.132570
 30
0.0
 10
17.001603
 20
13.245069
 30
0.0
 10
16.498387
 20
11.365988
 30
0.0
 10
16.498387
 20
15.207766
 30
0.0
 10
16.063583
 20
15.207766
 30
0.0
 10
16.063583
 20
11.361428
 30
0.0
 10
15.558846
 20
13.245069
 30
0.0
 10
15.139245
 20
13.132570
 30
0.0
 10
15.643982
 20
11.251968
 30
0.0
 10
13.720812
 20
14.579887
 30
0.0
 10
13.345300
 20
14.364004
 30
0.0
 10
15.268470
 20
11.031524
 30
0.0
 10
13.889565
 20
12.411949
 30
0.0
 10
13.582466
 20
12.104852
 30
0.0
 10
14.959850
 20
10.725945
 30
0.0
 10
11.630411
 20
12.649114
 30
0.0
 10
11.413009
 20
12.272082
 30
0.0
 10
14.740929
 20
10.350434
 30
0.0
 10
12.860327
 20
10.855172
 30
0.0
 10
12.747825
 20
10.435569
 30
0.0
 10
14.629947
 20
9.930832
 30
0.0
 10
10.785128
 20
9.930832
 30
0.0
 10
10.785128
 20
9.496029
 30
0.0
 10
14.629947
 20
9.496029
 30
0.0
 10
12.747825
 20
8.991292
 30
0.0
 10
12.860327
 20
8.571692
 30
0.0
 10
14.742449
 20
9.076429
 30
0.0
 10
11.413009
 20
7.154778
 30
0.0
 10
11.630411
 20
6.777746
 30
0.0
 10
14.959850
 20
8.699397
 30
0.0
 10
13.582466
 20
7.322012
 30
0.0
 10
13.889565
 20
7.014912
 30
0.0
 10
15.266949
 20
8.393819
 30
0.0
 10
13.345300
 20
5.064378
 30
0.0
 10
13.720812
 20
4.846976
 30
0.0
 10
15.643982
 20
8.177935
 30
0.0
 10
15.139245
 20
6.294294
 30
0.0
 10
15.558846
 20
6.181792
 30
0.0
 10
16.063583
 20
8.066954
 30
0.0
 10
16.063583
 20
4.219094
 30
0.0
 10
16.498387
 20
4.219094
 30
0.0
 10
16.498387
 20
8.059354
 30
0.0
 10
17.001603
 20
6.181792
 30
0.0
 10
17.421204
 20
6.294294
 30
0.0
 10
16.916467
 20
8.176417
 30
0.0
 10
18.839636
 20
4.846976
 30
0.0
 10
19.215148
 20
5.064378
 30
0.0
 10
17.293499
 20
8.393819
 30
0.0
 10
18.670884
 20
7.014912
 30
0.0
 10
18.977983
 20
7.322012
 30
0.0
 10
17.600598
 20
8.699397
 30
0.0
 10
20.930038
 20
6.777746
 30
0.0
 10
21.147440
 20
7.154778
 30
0.0
 10
17.819520
 20
9.076429
 30
0.0
 10
19.700121
 20
8.571692
 30
0.0
 10
19.812623
 20
8.991292
 30
0.0
 10
17.930502
 20
9.496029
 30
0.0
 10
24.768776
 20
9.496029
 30
0.0
 10
28.770186
 20
2.566536
 30
0.0
 10
3.861718
 20
2.566536
 30
0.0
 10
16.315951
 20
24.133403
 30
0.0
  0
ENDSEC
  0
SECTION
  2
OBJECTS
  0
DICTIONARY
  5
C
330
0
100
AcDbDictionary
  3
ACAD_GROUP
350
D
  3
ACAD_MLINESTYLE
350
17
  0
DICTIONARY
  5
D
330
C
100
AcDbDictionary
  0
DICTIONARY
  5
1A
330
C
100
AcDbDictionary
  0
DICTIONARY
  5
17
330
C
100
AcDbDictionary
  3
STANDARD
350
18
  0
DICTIONARY
  5
19
330
C
100
AcDbDictionary
  0
ENDSEC
  0
EOF
