solid OpenSCAD_Model
  facet normal -1 0 0
    outer loop
      vertex -14.4 1.40892 9.58359
      vertex -14.4 -5 22.99
      vertex -14.4 5 5
    endloop
  endfacet
  facet normal -1 0 0
    outer loop
      vertex -14.4 0.583592 20.4089
      vertex -14.4 -5 22.99
      vertex -14.4 5 22.99
    endloop
  endfacet
  facet normal -1 0 0
    outer loop
      vertex -14.4 -5 5
      vertex -14.4 -5 22.99
      vertex -14.4 -1.525 9
    endloop
  endfacet
  facet normal -1 0 0
    outer loop
      vertex -14.4 -5 5
      vertex -14.4 -1.525 9
      vertex -14.4 -1.40892 8.41641
    endloop
  endfacet
  facet normal -1 0 0
    outer loop
      vertex -14.4 -5 5
      vertex -14.4 -1.40892 8.41641
      vertex -14.4 -1.07834 7.92166
    endloop
  endfacet
  facet normal -1 0 0
    outer loop
      vertex -14.4 -5 5
      vertex -14.4 -1.07834 7.92166
      vertex -14.4 -0.583592 7.59108
    endloop
  endfacet
  facet normal -1 0 0
    outer loop
      vertex -14.4 -5 5
      vertex -14.4 -0.583592 7.59108
      vertex -14.4 5 5
    endloop
  endfacet
  facet normal -1 0 0
    outer loop
      vertex -14.4 0.583592 7.59108
      vertex -14.4 5 5
      vertex -14.4 0 7.475
    endloop
  endfacet
  facet normal -1 0 0
    outer loop
      vertex -14.4 1.07834 7.92166
      vertex -14.4 5 5
      vertex -14.4 0.583592 7.59108
    endloop
  endfacet
  facet normal -1 0 0
    outer loop
      vertex -14.4 -0.583592 17.5911
      vertex -14.4 5 5
      vertex -14.4 -1.07834 17.9217
    endloop
  endfacet
  facet normal -1 0 0
    outer loop
      vertex -14.4 0.583592 10.4089
      vertex -14.4 -5 22.99
      vertex -14.4 1.07834 10.0783
    endloop
  endfacet
  facet normal -1 0 0
    outer loop
      vertex -14.4 1.07834 7.92166
      vertex -14.4 1.40892 8.41641
      vertex -14.4 5 5
    endloop
  endfacet
  facet normal -1 0 0
    outer loop
      vertex -14.4 0 10.525
      vertex -14.4 -5 22.99
      vertex -14.4 0.583592 10.4089
    endloop
  endfacet
  facet normal -1 0 0
    outer loop
      vertex -14.4 1.40892 8.41641
      vertex -14.4 1.525 9
      vertex -14.4 5 5
    endloop
  endfacet
  facet normal -1 0 0
    outer loop
      vertex -14.4 1.07834 10.0783
      vertex -14.4 -5 22.99
      vertex -14.4 1.40892 9.58359
    endloop
  endfacet
  facet normal -1 0 0
    outer loop
      vertex -14.4 1.525 9
      vertex -14.4 1.40892 9.58359
      vertex -14.4 5 5
    endloop
  endfacet
  facet normal -1 0 0
    outer loop
      vertex -14.4 -0.583592 10.4089
      vertex -14.4 -5 22.99
      vertex -14.4 0 10.525
    endloop
  endfacet
  facet normal -1 0 0
    outer loop
      vertex -14.4 -1.07834 10.0783
      vertex -14.4 -5 22.99
      vertex -14.4 -0.583592 10.4089
    endloop
  endfacet
  facet normal -1 0 0
    outer loop
      vertex -14.4 -1.40892 9.58359
      vertex -14.4 -5 22.99
      vertex -14.4 -1.07834 10.0783
    endloop
  endfacet
  facet normal -1 0 0
    outer loop
      vertex -14.4 -1.525 9
      vertex -14.4 -5 22.99
      vertex -14.4 -1.40892 9.58359
    endloop
  endfacet
  facet normal -1 0 0
    outer loop
      vertex -14.4 -1.40892 18.4164
      vertex -14.4 -5 22.99
      vertex -14.4 -1.525 19
    endloop
  endfacet
  facet normal -1 0 0
    outer loop
      vertex -14.4 5 5
      vertex -14.4 -5 22.99
      vertex -14.4 -1.40892 18.4164
    endloop
  endfacet
  facet normal -1 0 0
    outer loop
      vertex -14.4 5 5
      vertex -14.4 -1.40892 18.4164
      vertex -14.4 -1.07834 17.9217
    endloop
  endfacet
  facet normal -1 0 0
    outer loop
      vertex -14.4 1.525 19
      vertex -14.4 5 22.99
      vertex -14.4 1.40892 18.4164
    endloop
  endfacet
  facet normal -1 0 0
    outer loop
      vertex -14.4 5 5
      vertex -14.4 -0.583592 17.5911
      vertex -14.4 0 17.475
    endloop
  endfacet
  facet normal -1 0 0
    outer loop
      vertex -14.4 5 5
      vertex -14.4 0 17.475
      vertex -14.4 0.583592 17.5911
    endloop
  endfacet
  facet normal -1 0 0
    outer loop
      vertex -14.4 5 5
      vertex -14.4 0.583592 17.5911
      vertex -14.4 1.07834 17.9217
    endloop
  endfacet
  facet normal -1 0 0
    outer loop
      vertex -14.4 5 5
      vertex -14.4 1.07834 17.9217
      vertex -14.4 5 22.99
    endloop
  endfacet
  facet normal -1 0 0
    outer loop
      vertex -14.4 1.07834 17.9217
      vertex -14.4 1.40892 18.4164
      vertex -14.4 5 22.99
    endloop
  endfacet
  facet normal -1 0 0
    outer loop
      vertex -14.4 1.40892 19.5836
      vertex -14.4 5 22.99
      vertex -14.4 1.525 19
    endloop
  endfacet
  facet normal -1 0 0
    outer loop
      vertex -14.4 0.583592 20.4089
      vertex -14.4 5 22.99
      vertex -14.4 1.07834 20.0783
    endloop
  endfacet
  facet normal -1 0 0
    outer loop
      vertex -14.4 1.40892 19.5836
      vertex -14.4 1.07834 20.0783
      vertex -14.4 5 22.99
    endloop
  endfacet
  facet normal -1 0 0
    outer loop
      vertex -14.4 0 20.525
      vertex -14.4 -5 22.99
      vertex -14.4 0.583592 20.4089
    endloop
  endfacet
  facet normal -1 0 0
    outer loop
      vertex -14.4 -0.583592 20.4089
      vertex -14.4 -5 22.99
      vertex -14.4 0 20.525
    endloop
  endfacet
  facet normal -1 0 0
    outer loop
      vertex -14.4 -1.07834 20.0783
      vertex -14.4 -5 22.99
      vertex -14.4 -0.583592 20.4089
    endloop
  endfacet
  facet normal -1 0 0
    outer loop
      vertex -14.4 -1.40892 19.5836
      vertex -14.4 -5 22.99
      vertex -14.4 -1.07834 20.0783
    endloop
  endfacet
  facet normal -1 0 0
    outer loop
      vertex -14.4 -1.525 19
      vertex -14.4 -5 22.99
      vertex -14.4 -1.40892 19.5836
    endloop
  endfacet
  facet normal -1 0 0
    outer loop
      vertex -14.4 0 7.475
      vertex -14.4 5 5
      vertex -14.4 -0.583592 7.59108
    endloop
  endfacet
  facet normal 0 -1 0
    outer loop
      vertex -8.0833 -5 5.59
      vertex -14.4 -5 5
      vertex -6.15221 -5 5
    endloop
  endfacet
  facet normal 0 -1 0
    outer loop
      vertex -8.0833 -5 9.39
      vertex -8.0833 -5 11.91
      vertex -14.4 -5 22.99
    endloop
  endfacet
  facet normal 0 -1 0
    outer loop
      vertex -8.0833 -5 8.11
      vertex -6.15221 -5 8.11
      vertex -8.0833 -5 9.39
    endloop
  endfacet
  facet normal 0 -1 0
    outer loop
      vertex -14.4 -5 22.99
      vertex -14.4 -5 5
      vertex -8.0833 -5 5.59
    endloop
  endfacet
  facet normal 0 -1 0
    outer loop
      vertex -14.4 -5 22.99
      vertex -8.0833 -5 5.59
      vertex -8.0833 -5 8.11
    endloop
  endfacet
  facet normal 0 -1 0
    outer loop
      vertex -8.0833 -5 11.91
      vertex -8.0833 -5 13.19
      vertex -14.4 -5 22.99
    endloop
  endfacet
  facet normal 0 -1 0
    outer loop
      vertex -6.15221 -5 13.19
      vertex -8.0833 -5 13.19
      vertex -6.15221 -5 11.91
    endloop
  endfacet
  facet normal 0 -1 0
    outer loop
      vertex -8.0833 -5 11.91
      vertex -6.15221 -5 11.91
      vertex -8.0833 -5 13.19
    endloop
  endfacet
  facet normal 0 -1 0
    outer loop
      vertex -8.0833 -5 13.19
      vertex -8.0833 -5 15.71
      vertex -14.4 -5 22.99
    endloop
  endfacet
  facet normal 0 -1 0
    outer loop
      vertex -8.0833 -5 20.79
      vertex -8.0833 -5 22.99
      vertex -14.4 -5 22.99
    endloop
  endfacet
  facet normal 0 -1 0
    outer loop
      vertex -6.15221 -5 16.99
      vertex -8.0833 -5 16.99
      vertex -6.15221 -5 15.71
    endloop
  endfacet
  facet normal 0 -1 0
    outer loop
      vertex -8.0833 -5 16.99
      vertex -14.4 -5 22.99
      vertex -8.0833 -5 15.71
    endloop
  endfacet
  facet normal 0 -1 0
    outer loop
      vertex -8.0833 -5 16.99
      vertex -8.0833 -5 19.51
      vertex -14.4 -5 22.99
    endloop
  endfacet
  facet normal 0 -1 0
    outer loop
      vertex -6.15221 -5 15.71
      vertex -8.0833 -5 16.99
      vertex -8.0833 -5 15.71
    endloop
  endfacet
  facet normal 0 -1 0
    outer loop
      vertex -6.15221 -5 19.51
      vertex -14.4 -5 22.99
      vertex -8.0833 -5 19.51
    endloop
  endfacet
  facet normal 0 -1 0
    outer loop
      vertex -8.0833 -5 20.79
      vertex -14.4 -5 22.99
      vertex -6.15221 -5 19.51
    endloop
  endfacet
  facet normal 0 -1 0
    outer loop
      vertex -6.15221 -5 20.79
      vertex -8.0833 -5 20.79
      vertex -6.15221 -5 19.51
    endloop
  endfacet
  facet normal 0 -1 0
    outer loop
      vertex -8.0833 -5 8.11
      vertex -8.0833 -5 9.39
      vertex -14.4 -5 22.99
    endloop
  endfacet
  facet normal 0 -1 0
    outer loop
      vertex -6.15221 -5 9.39
      vertex -8.0833 -5 9.39
      vertex -6.15221 -5 8.11
    endloop
  endfacet
  facet normal 0 -1 0
    outer loop
      vertex -6.15221 -5 5.59
      vertex -8.0833 -5 5.59
      vertex -6.15221 -5 5
    endloop
  endfacet
  facet normal 0 0 -1
    outer loop
      vertex -14.4 -5 5
      vertex -14.4 5 5
      vertex -6.15221 -5 5
    endloop
  endfacet
  facet normal 0 0 -1
    outer loop
      vertex -6.83602 4.16678 5
      vertex -14.4 5 5
      vertex -6.15221 5 5
    endloop
  endfacet
  facet normal 0 0 -1
    outer loop
      vertex -7.5291 2.87013 5
      vertex -14.4 5 5
      vertex -6.83602 4.16678 5
    endloop
  endfacet
  facet normal 0 0 -1
    outer loop
      vertex -7.95589 1.46318 5
      vertex -14.4 5 5
      vertex -7.5291 2.87013 5
    endloop
  endfacet
  facet normal 0 0 -1
    outer loop
      vertex -8.1 0 5
      vertex -14.4 5 5
      vertex -7.95589 1.46318 5
    endloop
  endfacet
  facet normal 0 0 -1
    outer loop
      vertex -7.95589 -1.46318 5
      vertex -14.4 5 5
      vertex -8.1 0 5
    endloop
  endfacet
  facet normal 0 0 -1
    outer loop
      vertex -7.5291 -2.87013 5
      vertex -14.4 5 5
      vertex -7.95589 -1.46318 5
    endloop
  endfacet
  facet normal 0 0 -1
    outer loop
      vertex -6.83602 -4.16678 5
      vertex -14.4 5 5
      vertex -7.5291 -2.87013 5
    endloop
  endfacet
  facet normal 0 0 -1
    outer loop
      vertex -6.15221 -5 5
      vertex -14.4 5 5
      vertex -6.83602 -4.16678 5
    endloop
  endfacet
  facet normal 0 1 0
    outer loop
      vertex -6.15221 5 5.59
      vertex -6.15221 5 5
      vertex -8.0833 5 5.59
    endloop
  endfacet
  facet normal 0 1 0
    outer loop
      vertex -8.0833 5 20.79
      vertex -14.4 5 22.99
      vertex -8.0833 5 22.99
    endloop
  endfacet
  facet normal 0 1 0
    outer loop
      vertex -8.0833 5 19.51
      vertex -14.4 5 22.99
      vertex -8.0833 5 20.79
    endloop
  endfacet
  facet normal 0 1 0
    outer loop
      vertex -8.0833 5 19.51
      vertex -8.0833 5 20.79
      vertex -6.15221 5 19.51
    endloop
  endfacet
  facet normal 0 1 0
    outer loop
      vertex -8.0833 5 16.99
      vertex -14.4 5 22.99
      vertex -8.0833 5 19.51
    endloop
  endfacet
  facet normal 0 1 0
    outer loop
      vertex -6.15221 5 9.39
      vertex -6.15221 5 8.11
      vertex -8.0833 5 9.39
    endloop
  endfacet
  facet normal 0 1 0
    outer loop
      vertex -8.0833 5 15.71
      vertex -14.4 5 22.99
      vertex -8.0833 5 16.99
    endloop
  endfacet
  facet normal 0 1 0
    outer loop
      vertex -8.0833 5 11.91
      vertex -8.0833 5 13.19
      vertex -6.15221 5 11.91
    endloop
  endfacet
  facet normal 0 1 0
    outer loop
      vertex -8.0833 5 13.19
      vertex -14.4 5 22.99
      vertex -8.0833 5 15.71
    endloop
  endfacet
  facet normal 0 1 0
    outer loop
      vertex -8.0833 5 11.91
      vertex -14.4 5 22.99
      vertex -8.0833 5 13.19
    endloop
  endfacet
  facet normal 0 1 0
    outer loop
      vertex -8.0833 5 8.11
      vertex -8.0833 5 9.39
      vertex -6.15221 5 8.11
    endloop
  endfacet
  facet normal 0 1 0
    outer loop
      vertex -8.0833 5 8.11
      vertex -14.4 5 22.99
      vertex -8.0833 5 9.39
    endloop
  endfacet
  facet normal 0 1 0
    outer loop
      vertex -8.0833 5 9.39
      vertex -14.4 5 22.99
      vertex -8.0833 5 11.91
    endloop
  endfacet
  facet normal 0 1 0
    outer loop
      vertex -8.0833 5 15.71
      vertex -8.0833 5 16.99
      vertex -6.15221 5 15.71
    endloop
  endfacet
  facet normal 0 1 0
    outer loop
      vertex -14.4 5 5
      vertex -14.4 5 22.99
      vertex -8.0833 5 8.11
    endloop
  endfacet
  facet normal 0 1 0
    outer loop
      vertex -14.4 5 5
      vertex -8.0833 5 8.11
      vertex -8.0833 5 5.59
    endloop
  endfacet
  facet normal 0 1 0
    outer loop
      vertex -14.4 5 5
      vertex -8.0833 5 5.59
      vertex -6.15221 5 5
    endloop
  endfacet
  facet normal 0 1 0
    outer loop
      vertex -6.15221 5 13.19
      vertex -6.15221 5 11.91
      vertex -8.0833 5 13.19
    endloop
  endfacet
  facet normal 0 1 0
    outer loop
      vertex -6.15221 5 16.99
      vertex -6.15221 5 15.71
      vertex -8.0833 5 16.99
    endloop
  endfacet
  facet normal 0 1 0
    outer loop
      vertex -6.15221 5 20.79
      vertex -6.15221 5 19.51
      vertex -8.0833 5 20.79
    endloop
  endfacet
  facet normal 0 0 1
    outer loop
      vertex -14.4 5 22.99
      vertex -14.4 -5 22.99
      vertex -8.0833 -5 22.99
    endloop
  endfacet
  facet normal 0 0 1
    outer loop
      vertex -9.42707 -1.75581 22.99
      vertex -14.4 5 22.99
      vertex -8.91492 -3.44415 22.99
    endloop
  endfacet
  facet normal 0 0 1
    outer loop
      vertex -8.91492 -3.44415 22.99
      vertex -14.4 5 22.99
      vertex -8.0833 -5 22.99
    endloop
  endfacet
  facet normal 0 0 1
    outer loop
      vertex -9.6 0 22.99
      vertex -14.4 5 22.99
      vertex -9.42707 -1.75581 22.99
    endloop
  endfacet
  facet normal 0 0 1
    outer loop
      vertex -9.42707 1.75581 22.99
      vertex -14.4 5 22.99
      vertex -9.6 0 22.99
    endloop
  endfacet
  facet normal 0 0 1
    outer loop
      vertex -8.91492 3.44415 22.99
      vertex -14.4 5 22.99
      vertex -9.42707 1.75581 22.99
    endloop
  endfacet
  facet normal 0 0 1
    outer loop
      vertex -8.0833 5 22.99
      vertex -14.4 5 22.99
      vertex -8.91492 3.44415 22.99
    endloop
  endfacet
  facet normal -4.33189e-017 0.980785 0.195091
    outer loop
      vertex -10.01 -1.40892 8.41641
      vertex -14.4 -1.40892 8.41641
      vertex -10.01 -1.525 9
    endloop
  endfacet
  facet normal -4.33189e-017 0.980785 0.195091
    outer loop
      vertex -10.01 -1.525 9
      vertex -14.4 -1.40892 8.41641
      vertex -14.4 -1.525 9
    endloop
  endfacet
  facet normal 4.33189e-017 0.980785 -0.195091
    outer loop
      vertex -10.01 -1.40892 9.58359
      vertex -10.01 -1.525 9
      vertex -14.4 -1.40892 9.58359
    endloop
  endfacet
  facet normal 4.33189e-017 0.980785 -0.195091
    outer loop
      vertex -14.4 -1.40892 9.58359
      vertex -10.01 -1.525 9
      vertex -14.4 -1.525 9
    endloop
  endfacet
  facet normal 1.23361e-016 0.83147 -0.555569
    outer loop
      vertex -10.01 -1.07834 10.0783
      vertex -10.01 -1.40892 9.58359
      vertex -14.4 -1.07834 10.0783
    endloop
  endfacet
  facet normal 1.23361e-016 0.83147 -0.555569
    outer loop
      vertex -14.4 -1.07834 10.0783
      vertex -10.01 -1.40892 9.58359
      vertex -14.4 -1.40892 9.58359
    endloop
  endfacet
  facet normal 1.84623e-016 0.555569 -0.83147
    outer loop
      vertex -10.01 -0.583592 10.4089
      vertex -10.01 -1.07834 10.0783
      vertex -14.4 -0.583592 10.4089
    endloop
  endfacet
  facet normal 1.84623e-016 0.555569 -0.83147
    outer loop
      vertex -14.4 -0.583592 10.4089
      vertex -10.01 -1.07834 10.0783
      vertex -14.4 -1.07834 10.0783
    endloop
  endfacet
  facet normal 2.17778e-016 0.195091 -0.980785
    outer loop
      vertex -10.01 0 10.525
      vertex -10.01 -0.583592 10.4089
      vertex -14.4 0 10.525
    endloop
  endfacet
  facet normal 2.17778e-016 0.195091 -0.980785
    outer loop
      vertex -14.4 0 10.525
      vertex -10.01 -0.583592 10.4089
      vertex -14.4 -0.583592 10.4089
    endloop
  endfacet
  facet normal 2.17778e-016 -0.195091 -0.980785
    outer loop
      vertex -10.01 0.583592 10.4089
      vertex -10.01 0 10.525
      vertex -14.4 0.583592 10.4089
    endloop
  endfacet
  facet normal 2.17778e-016 -0.195091 -0.980785
    outer loop
      vertex -14.4 0.583592 10.4089
      vertex -10.01 0 10.525
      vertex -14.4 0 10.525
    endloop
  endfacet
  facet normal 1.84623e-016 -0.555569 -0.83147
    outer loop
      vertex -10.01 1.07834 10.0783
      vertex -10.01 0.583592 10.4089
      vertex -14.4 1.07834 10.0783
    endloop
  endfacet
  facet normal 1.84623e-016 -0.555569 -0.83147
    outer loop
      vertex -14.4 1.07834 10.0783
      vertex -10.01 0.583592 10.4089
      vertex -14.4 0.583592 10.4089
    endloop
  endfacet
  facet normal 1.23361e-016 -0.83147 -0.555569
    outer loop
      vertex -14.4 1.40892 9.58359
      vertex -10.01 1.40892 9.58359
      vertex -10.01 1.07834 10.0783
    endloop
  endfacet
  facet normal 1.23361e-016 -0.83147 -0.555569
    outer loop
      vertex -14.4 1.07834 10.0783
      vertex -14.4 1.40892 9.58359
      vertex -10.01 1.07834 10.0783
    endloop
  endfacet
  facet normal 4.33189e-017 -0.980785 -0.195091
    outer loop
      vertex -14.4 1.525 9
      vertex -10.01 1.525 9
      vertex -10.01 1.40892 9.58359
    endloop
  endfacet
  facet normal 4.33189e-017 -0.980785 -0.195091
    outer loop
      vertex -14.4 1.40892 9.58359
      vertex -14.4 1.525 9
      vertex -10.01 1.40892 9.58359
    endloop
  endfacet
  facet normal -4.33189e-017 -0.980785 0.195091
    outer loop
      vertex -10.01 1.40892 8.41641
      vertex -10.01 1.525 9
      vertex -14.4 1.525 9
    endloop
  endfacet
  facet normal -4.33189e-017 -0.980785 0.195091
    outer loop
      vertex -14.4 1.40892 8.41641
      vertex -10.01 1.40892 8.41641
      vertex -14.4 1.525 9
    endloop
  endfacet
  facet normal -1.23361e-016 -0.83147 0.555569
    outer loop
      vertex -10.01 1.07834 7.92166
      vertex -10.01 1.40892 8.41641
      vertex -14.4 1.40892 8.41641
    endloop
  endfacet
  facet normal -1.23361e-016 -0.83147 0.555569
    outer loop
      vertex -14.4 1.07834 7.92166
      vertex -10.01 1.07834 7.92166
      vertex -14.4 1.40892 8.41641
    endloop
  endfacet
  facet normal -1.84623e-016 -0.555569 0.83147
    outer loop
      vertex -10.01 0.583592 7.59108
      vertex -10.01 1.07834 7.92166
      vertex -14.4 1.07834 7.92166
    endloop
  endfacet
  facet normal -1.84623e-016 -0.555569 0.83147
    outer loop
      vertex -14.4 0.583592 7.59108
      vertex -10.01 0.583592 7.59108
      vertex -14.4 1.07834 7.92166
    endloop
  endfacet
  facet normal -2.17778e-016 -0.195091 0.980785
    outer loop
      vertex -10.01 0 7.475
      vertex -10.01 0.583592 7.59108
      vertex -14.4 0.583592 7.59108
    endloop
  endfacet
  facet normal -2.17778e-016 -0.195091 0.980785
    outer loop
      vertex -14.4 0 7.475
      vertex -10.01 0 7.475
      vertex -14.4 0.583592 7.59108
    endloop
  endfacet
  facet normal -2.17778e-016 0.195091 0.980785
    outer loop
      vertex -10.01 -0.583592 7.59108
      vertex -10.01 0 7.475
      vertex -14.4 0 7.475
    endloop
  endfacet
  facet normal -2.17778e-016 0.195091 0.980785
    outer loop
      vertex -14.4 -0.583592 7.59108
      vertex -10.01 -0.583592 7.59108
      vertex -14.4 0 7.475
    endloop
  endfacet
  facet normal -1.84623e-016 0.555569 0.83147
    outer loop
      vertex -10.01 -1.07834 7.92166
      vertex -10.01 -0.583592 7.59108
      vertex -14.4 -0.583592 7.59108
    endloop
  endfacet
  facet normal -1.84623e-016 0.555569 0.83147
    outer loop
      vertex -14.4 -1.07834 7.92166
      vertex -10.01 -1.07834 7.92166
      vertex -14.4 -0.583592 7.59108
    endloop
  endfacet
  facet normal -1.23361e-016 0.83147 0.555569
    outer loop
      vertex -10.01 -1.07834 7.92166
      vertex -14.4 -1.07834 7.92166
      vertex -10.01 -1.40892 8.41641
    endloop
  endfacet
  facet normal -1.23361e-016 0.83147 0.555569
    outer loop
      vertex -10.01 -1.40892 8.41641
      vertex -14.4 -1.07834 7.92166
      vertex -14.4 -1.40892 8.41641
    endloop
  endfacet
  facet normal 4.33189e-017 0.980785 -0.195091
    outer loop
      vertex -10.01 -1.40892 19.5836
      vertex -10.01 -1.525 19
      vertex -14.4 -1.40892 19.5836
    endloop
  endfacet
  facet normal 4.33189e-017 0.980785 -0.195091
    outer loop
      vertex -14.4 -1.40892 19.5836
      vertex -10.01 -1.525 19
      vertex -14.4 -1.525 19
    endloop
  endfacet
  facet normal -4.33189e-017 0.980785 0.195091
    outer loop
      vertex -10.01 -1.40892 18.4164
      vertex -14.4 -1.40892 18.4164
      vertex -10.01 -1.525 19
    endloop
  endfacet
  facet normal -4.33189e-017 0.980785 0.195091
    outer loop
      vertex -10.01 -1.525 19
      vertex -14.4 -1.40892 18.4164
      vertex -14.4 -1.525 19
    endloop
  endfacet
  facet normal 1.23361e-016 0.83147 -0.555569
    outer loop
      vertex -10.01 -1.07834 20.0783
      vertex -10.01 -1.40892 19.5836
      vertex -14.4 -1.07834 20.0783
    endloop
  endfacet
  facet normal 1.23361e-016 0.83147 -0.555569
    outer loop
      vertex -14.4 -1.07834 20.0783
      vertex -10.01 -1.40892 19.5836
      vertex -14.4 -1.40892 19.5836
    endloop
  endfacet
  facet normal 1.84623e-016 0.555569 -0.83147
    outer loop
      vertex -10.01 -0.583592 20.4089
      vertex -10.01 -1.07834 20.0783
      vertex -14.4 -0.583592 20.4089
    endloop
  endfacet
  facet normal 1.84623e-016 0.555569 -0.83147
    outer loop
      vertex -14.4 -0.583592 20.4089
      vertex -10.01 -1.07834 20.0783
      vertex -14.4 -1.07834 20.0783
    endloop
  endfacet
  facet normal 2.17778e-016 0.195091 -0.980785
    outer loop
      vertex -10.01 0 20.525
      vertex -10.01 -0.583592 20.4089
      vertex -14.4 0 20.525
    endloop
  endfacet
  facet normal 2.17778e-016 0.195091 -0.980785
    outer loop
      vertex -14.4 0 20.525
      vertex -10.01 -0.583592 20.4089
      vertex -14.4 -0.583592 20.4089
    endloop
  endfacet
  facet normal 2.17778e-016 -0.195091 -0.980785
    outer loop
      vertex -10.01 0.583592 20.4089
      vertex -10.01 0 20.525
      vertex -14.4 0.583592 20.4089
    endloop
  endfacet
  facet normal 2.17778e-016 -0.195091 -0.980785
    outer loop
      vertex -14.4 0.583592 20.4089
      vertex -10.01 0 20.525
      vertex -14.4 0 20.525
    endloop
  endfacet
  facet normal 1.84623e-016 -0.555569 -0.83147
    outer loop
      vertex -10.01 1.07834 20.0783
      vertex -10.01 0.583592 20.4089
      vertex -14.4 1.07834 20.0783
    endloop
  endfacet
  facet normal 1.84623e-016 -0.555569 -0.83147
    outer loop
      vertex -14.4 1.07834 20.0783
      vertex -10.01 0.583592 20.4089
      vertex -14.4 0.583592 20.4089
    endloop
  endfacet
  facet normal 1.23361e-016 -0.83147 -0.555569
    outer loop
      vertex -14.4 1.40892 19.5836
      vertex -10.01 1.40892 19.5836
      vertex -10.01 1.07834 20.0783
    endloop
  endfacet
  facet normal 1.23361e-016 -0.83147 -0.555569
    outer loop
      vertex -14.4 1.07834 20.0783
      vertex -14.4 1.40892 19.5836
      vertex -10.01 1.07834 20.0783
    endloop
  endfacet
  facet normal 4.33189e-017 -0.980785 -0.195091
    outer loop
      vertex -14.4 1.525 19
      vertex -10.01 1.525 19
      vertex -10.01 1.40892 19.5836
    endloop
  endfacet
  facet normal 4.33189e-017 -0.980785 -0.195091
    outer loop
      vertex -14.4 1.40892 19.5836
      vertex -14.4 1.525 19
      vertex -10.01 1.40892 19.5836
    endloop
  endfacet
  facet normal -4.33189e-017 -0.980785 0.195091
    outer loop
      vertex -10.01 1.40892 18.4164
      vertex -10.01 1.525 19
      vertex -14.4 1.525 19
    endloop
  endfacet
  facet normal -4.33189e-017 -0.980785 0.195091
    outer loop
      vertex -14.4 1.40892 18.4164
      vertex -10.01 1.40892 18.4164
      vertex -14.4 1.525 19
    endloop
  endfacet
  facet normal -1.23361e-016 -0.83147 0.555569
    outer loop
      vertex -10.01 1.07834 17.9217
      vertex -10.01 1.40892 18.4164
      vertex -14.4 1.40892 18.4164
    endloop
  endfacet
  facet normal -1.23361e-016 -0.83147 0.555569
    outer loop
      vertex -14.4 1.07834 17.9217
      vertex -10.01 1.07834 17.9217
      vertex -14.4 1.40892 18.4164
    endloop
  endfacet
  facet normal -1.84623e-016 -0.555569 0.83147
    outer loop
      vertex -10.01 0.583592 17.5911
      vertex -10.01 1.07834 17.9217
      vertex -14.4 1.07834 17.9217
    endloop
  endfacet
  facet normal -1.84623e-016 -0.555569 0.83147
    outer loop
      vertex -14.4 0.583592 17.5911
      vertex -10.01 0.583592 17.5911
      vertex -14.4 1.07834 17.9217
    endloop
  endfacet
  facet normal -2.17778e-016 -0.195091 0.980785
    outer loop
      vertex -10.01 0 17.475
      vertex -10.01 0.583592 17.5911
      vertex -14.4 0.583592 17.5911
    endloop
  endfacet
  facet normal -2.17778e-016 -0.195091 0.980785
    outer loop
      vertex -14.4 0 17.475
      vertex -10.01 0 17.475
      vertex -14.4 0.583592 17.5911
    endloop
  endfacet
  facet normal -2.17778e-016 0.195091 0.980785
    outer loop
      vertex -10.01 -0.583592 17.5911
      vertex -10.01 0 17.475
      vertex -14.4 0 17.475
    endloop
  endfacet
  facet normal -2.17778e-016 0.195091 0.980785
    outer loop
      vertex -14.4 -0.583592 17.5911
      vertex -10.01 -0.583592 17.5911
      vertex -14.4 0 17.475
    endloop
  endfacet
  facet normal -1.84623e-016 0.555569 0.83147
    outer loop
      vertex -10.01 -1.07834 17.9217
      vertex -10.01 -0.583592 17.5911
      vertex -14.4 -0.583592 17.5911
    endloop
  endfacet
  facet normal -1.84623e-016 0.555569 0.83147
    outer loop
      vertex -14.4 -1.07834 17.9217
      vertex -10.01 -1.07834 17.9217
      vertex -14.4 -0.583592 17.5911
    endloop
  endfacet
  facet normal -1.23361e-016 0.83147 0.555569
    outer loop
      vertex -10.01 -1.07834 17.9217
      vertex -14.4 -1.07834 17.9217
      vertex -10.01 -1.40892 18.4164
    endloop
  endfacet
  facet normal -1.23361e-016 0.83147 0.555569
    outer loop
      vertex -10.01 -1.40892 18.4164
      vertex -14.4 -1.07834 17.9217
      vertex -14.4 -1.40892 18.4164
    endloop
  endfacet
  facet normal 0.881921 0.471397 0
    outer loop
      vertex -8.91492 -3.44415 22.99
      vertex -8.0833 -5 22.99
      vertex -8.0833 -5 20.79
    endloop
  endfacet
  facet normal 0.881921 0.471397 0
    outer loop
      vertex -8.91492 -3.44415 20.79
      vertex -8.91492 -3.44415 22.99
      vertex -8.0833 -5 20.79
    endloop
  endfacet
  facet normal 0 0 1
    outer loop
      vertex -9.42707 -1.75581 20.79
      vertex -8.91492 -3.44415 20.79
      vertex -8.0833 -5 20.79
    endloop
  endfacet
  facet normal 0 0 1
    outer loop
      vertex -6.83602 -4.16678 20.79
      vertex -9.42707 -1.75581 20.79
      vertex -6.15221 -5 20.79
    endloop
  endfacet
  facet normal 0 0 1
    outer loop
      vertex -6.15221 -5 20.79
      vertex -9.42707 -1.75581 20.79
      vertex -8.0833 -5 20.79
    endloop
  endfacet
  facet normal 0 0 1
    outer loop
      vertex -7.5291 -2.87013 20.79
      vertex -9.42707 -1.75581 20.79
      vertex -6.83602 -4.16678 20.79
    endloop
  endfacet
  facet normal 0 0 1
    outer loop
      vertex -7.95589 -1.46318 20.79
      vertex -9.42707 -1.75581 20.79
      vertex -7.5291 -2.87013 20.79
    endloop
  endfacet
  facet normal 0 0 1
    outer loop
      vertex -8.1 0 20.79
      vertex -9.42707 -1.75581 20.79
      vertex -7.95589 -1.46318 20.79
    endloop
  endfacet
  facet normal 0 0 1
    outer loop
      vertex -7.95589 1.46318 20.79
      vertex -9.42707 -1.75581 20.79
      vertex -8.1 0 20.79
    endloop
  endfacet
  facet normal 0 0 1
    outer loop
      vertex -7.5291 2.87013 20.79
      vertex -9.42707 -1.75581 20.79
      vertex -7.95589 1.46318 20.79
    endloop
  endfacet
  facet normal 0 0 1
    outer loop
      vertex -8.0833 5 20.79
      vertex -9.42707 -1.75581 20.79
      vertex -7.5291 2.87013 20.79
    endloop
  endfacet
  facet normal 0 0 1
    outer loop
      vertex -8.0833 5 20.79
      vertex -7.5291 2.87013 20.79
      vertex -6.83602 4.16678 20.79
    endloop
  endfacet
  facet normal 0 0 1
    outer loop
      vertex -8.0833 5 20.79
      vertex -6.83602 4.16678 20.79
      vertex -6.15221 5 20.79
    endloop
  endfacet
  facet normal 0 0 1
    outer loop
      vertex -8.91492 3.44415 20.79
      vertex -9.42707 -1.75581 20.79
      vertex -8.0833 5 20.79
    endloop
  endfacet
  facet normal 0 0 1
    outer loop
      vertex -9.42707 1.75581 20.79
      vertex -9.42707 -1.75581 20.79
      vertex -8.91492 3.44415 20.79
    endloop
  endfacet
  facet normal 0 0 1
    outer loop
      vertex -9.6 0 20.79
      vertex -9.42707 -1.75581 20.79
      vertex -9.42707 1.75581 20.79
    endloop
  endfacet
  facet normal 0.773011 0.634393 0
    outer loop
      vertex -6.83602 -4.16678 20.79
      vertex -6.15221 -5 20.79
      vertex -6.15221 -5 19.51
    endloop
  endfacet
  facet normal 0.773011 0.634393 0
    outer loop
      vertex -6.83602 -4.16678 19.51
      vertex -6.83602 -4.16678 20.79
      vertex -6.15221 -5 19.51
    endloop
  endfacet
  facet normal 0 0 -1
    outer loop
      vertex -8.91492 3.44415 19.51
      vertex -8.0833 5 19.51
      vertex -9.42707 1.75581 19.51
    endloop
  endfacet
  facet normal 0 0 -1
    outer loop
      vertex -9.42707 1.75581 19.51
      vertex -8.0833 5 19.51
      vertex -6.15221 5 19.51
    endloop
  endfacet
  facet normal 0 0 -1
    outer loop
      vertex -9.42707 1.75581 19.51
      vertex -6.15221 5 19.51
      vertex -6.83602 4.16678 19.51
    endloop
  endfacet
  facet normal 0 0 -1
    outer loop
      vertex -9.42707 1.75581 19.51
      vertex -6.83602 4.16678 19.51
      vertex -7.5291 2.87013 19.51
    endloop
  endfacet
  facet normal 0 0 -1
    outer loop
      vertex -7.5291 2.87013 19.51
      vertex -7.95589 1.46318 19.51
      vertex -9.42707 1.75581 19.51
    endloop
  endfacet
  facet normal 0 0 -1
    outer loop
      vertex -7.95589 1.46318 19.51
      vertex -8.1 0 19.51
      vertex -9.42707 1.75581 19.51
    endloop
  endfacet
  facet normal 0 0 -1
    outer loop
      vertex -8.1 0 19.51
      vertex -7.95589 -1.46318 19.51
      vertex -9.42707 1.75581 19.51
    endloop
  endfacet
  facet normal 0 0 -1
    outer loop
      vertex -7.95589 -1.46318 19.51
      vertex -7.5291 -2.87013 19.51
      vertex -9.42707 1.75581 19.51
    endloop
  endfacet
  facet normal 0 0 -1
    outer loop
      vertex -7.5291 -2.87013 19.51
      vertex -8.0833 -5 19.51
      vertex -9.42707 1.75581 19.51
    endloop
  endfacet
  facet normal 0 0 -1
    outer loop
      vertex -6.83602 -4.16678 19.51
      vertex -6.15221 -5 19.51
      vertex -8.0833 -5 19.51
    endloop
  endfacet
  facet normal 0 0 -1
    outer loop
      vertex -6.83602 -4.16678 19.51
      vertex -8.0833 -5 19.51
      vertex -7.5291 -2.87013 19.51
    endloop
  endfacet
  facet normal 0 0 -1
    outer loop
      vertex -9.42707 1.75581 19.51
      vertex -8.0833 -5 19.51
      vertex -8.91492 -3.44415 19.51
    endloop
  endfacet
  facet normal 0 0 -1
    outer loop
      vertex -9.42707 1.75581 19.51
      vertex -8.91492 -3.44415 19.51
      vertex -9.42707 -1.75581 19.51
    endloop
  endfacet
  facet normal 0 0 -1
    outer loop
      vertex -9.42707 1.75581 19.51
      vertex -9.42707 -1.75581 19.51
      vertex -9.6 0 19.51
    endloop
  endfacet
  facet normal 0.881921 0.471397 0
    outer loop
      vertex -8.91492 -3.44415 19.51
      vertex -8.0833 -5 19.51
      vertex -8.0833 -5 16.99
    endloop
  endfacet
  facet normal 0.881921 0.471397 0
    outer loop
      vertex -8.91492 -3.44415 16.99
      vertex -8.91492 -3.44415 19.51
      vertex -8.0833 -5 16.99
    endloop
  endfacet
  facet normal 0 0 1
    outer loop
      vertex -9.42707 -1.75581 16.99
      vertex -8.91492 -3.44415 16.99
      vertex -8.0833 -5 16.99
    endloop
  endfacet
  facet normal 0 0 1
    outer loop
      vertex -6.83602 -4.16678 16.99
      vertex -9.42707 -1.75581 16.99
      vertex -6.15221 -5 16.99
    endloop
  endfacet
  facet normal 0 0 1
    outer loop
      vertex -6.15221 -5 16.99
      vertex -9.42707 -1.75581 16.99
      vertex -8.0833 -5 16.99
    endloop
  endfacet
  facet normal 0 0 1
    outer loop
      vertex -7.5291 -2.87013 16.99
      vertex -9.42707 -1.75581 16.99
      vertex -6.83602 -4.16678 16.99
    endloop
  endfacet
  facet normal 0 0 1
    outer loop
      vertex -7.95589 -1.46318 16.99
      vertex -9.42707 -1.75581 16.99
      vertex -7.5291 -2.87013 16.99
    endloop
  endfacet
  facet normal 0 0 1
    outer loop
      vertex -8.1 0 16.99
      vertex -9.42707 -1.75581 16.99
      vertex -7.95589 -1.46318 16.99
    endloop
  endfacet
  facet normal 0 0 1
    outer loop
      vertex -7.95589 1.46318 16.99
      vertex -9.42707 -1.75581 16.99
      vertex -8.1 0 16.99
    endloop
  endfacet
  facet normal 0 0 1
    outer loop
      vertex -7.5291 2.87013 16.99
      vertex -9.42707 -1.75581 16.99
      vertex -7.95589 1.46318 16.99
    endloop
  endfacet
  facet normal 0 0 1
    outer loop
      vertex -8.0833 5 16.99
      vertex -9.42707 -1.75581 16.99
      vertex -7.5291 2.87013 16.99
    endloop
  endfacet
  facet normal 0 0 1
    outer loop
      vertex -8.0833 5 16.99
      vertex -7.5291 2.87013 16.99
      vertex -6.83602 4.16678 16.99
    endloop
  endfacet
  facet normal 0 0 1
    outer loop
      vertex -8.0833 5 16.99
      vertex -6.83602 4.16678 16.99
      vertex -6.15221 5 16.99
    endloop
  endfacet
  facet normal 0 0 1
    outer loop
      vertex -8.91492 3.44415 16.99
      vertex -9.42707 -1.75581 16.99
      vertex -8.0833 5 16.99
    endloop
  endfacet
  facet normal 0 0 1
    outer loop
      vertex -9.42707 1.75581 16.99
      vertex -9.42707 -1.75581 16.99
      vertex -8.91492 3.44415 16.99
    endloop
  endfacet
  facet normal 0 0 1
    outer loop
      vertex -9.6 0 16.99
      vertex -9.42707 -1.75581 16.99
      vertex -9.42707 1.75581 16.99
    endloop
  endfacet
  facet normal 0.773011 0.634393 0
    outer loop
      vertex -6.83602 -4.16678 16.99
      vertex -6.15221 -5 16.99
      vertex -6.15221 -5 15.71
    endloop
  endfacet
  facet normal 0.773011 0.634393 0
    outer loop
      vertex -6.83602 -4.16678 15.71
      vertex -6.83602 -4.16678 16.99
      vertex -6.15221 -5 15.71
    endloop
  endfacet
  facet normal 0 0 -1
    outer loop
      vertex -8.91492 3.44415 15.71
      vertex -8.0833 5 15.71
      vertex -9.42707 1.75581 15.71
    endloop
  endfacet
  facet normal 0 0 -1
    outer loop
      vertex -9.42707 1.75581 15.71
      vertex -8.0833 5 15.71
      vertex -6.15221 5 15.71
    endloop
  endfacet
  facet normal 0 0 -1
    outer loop
      vertex -9.42707 1.75581 15.71
      vertex -6.15221 5 15.71
      vertex -6.83602 4.16678 15.71
    endloop
  endfacet
  facet normal 0 0 -1
    outer loop
      vertex -9.42707 1.75581 15.71
      vertex -6.83602 4.16678 15.71
      vertex -7.5291 2.87013 15.71
    endloop
  endfacet
  facet normal 0 0 -1
    outer loop
      vertex -7.5291 2.87013 15.71
      vertex -7.95589 1.46318 15.71
      vertex -9.42707 1.75581 15.71
    endloop
  endfacet
  facet normal 0 0 -1
    outer loop
      vertex -7.95589 1.46318 15.71
      vertex -8.1 0 15.71
      vertex -9.42707 1.75581 15.71
    endloop
  endfacet
  facet normal 0 0 -1
    outer loop
      vertex -8.1 0 15.71
      vertex -7.95589 -1.46318 15.71
      vertex -9.42707 1.75581 15.71
    endloop
  endfacet
  facet normal 0 0 -1
    outer loop
      vertex -7.95589 -1.46318 15.71
      vertex -7.5291 -2.87013 15.71
      vertex -9.42707 1.75581 15.71
    endloop
  endfacet
  facet normal 0 0 -1
    outer loop
      vertex -7.5291 -2.87013 15.71
      vertex -8.0833 -5 15.71
      vertex -9.42707 1.75581 15.71
    endloop
  endfacet
  facet normal 0 0 -1
    outer loop
      vertex -6.83602 -4.16678 15.71
      vertex -6.15221 -5 15.71
      vertex -8.0833 -5 15.71
    endloop
  endfacet
  facet normal 0 0 -1
    outer loop
      vertex -6.83602 -4.16678 15.71
      vertex -8.0833 -5 15.71
      vertex -7.5291 -2.87013 15.71
    endloop
  endfacet
  facet normal 0 0 -1
    outer loop
      vertex -9.42707 1.75581 15.71
      vertex -8.0833 -5 15.71
      vertex -8.91492 -3.44415 15.71
    endloop
  endfacet
  facet normal 0 0 -1
    outer loop
      vertex -9.42707 1.75581 15.71
      vertex -8.91492 -3.44415 15.71
      vertex -9.42707 -1.75581 15.71
    endloop
  endfacet
  facet normal 0 0 -1
    outer loop
      vertex -9.42707 1.75581 15.71
      vertex -9.42707 -1.75581 15.71
      vertex -9.6 0 15.71
    endloop
  endfacet
  facet normal 0.881921 0.471397 0
    outer loop
      vertex -8.91492 -3.44415 15.71
      vertex -8.0833 -5 15.71
      vertex -8.0833 -5 13.19
    endloop
  endfacet
  facet normal 0.881921 0.471397 0
    outer loop
      vertex -8.91492 -3.44415 13.19
      vertex -8.91492 -3.44415 15.71
      vertex -8.0833 -5 13.19
    endloop
  endfacet
  facet normal 0 0 1
    outer loop
      vertex -9.42707 -1.75581 13.19
      vertex -8.91492 -3.44415 13.19
      vertex -8.0833 -5 13.19
    endloop
  endfacet
  facet normal 0 0 1
    outer loop
      vertex -6.83602 -4.16678 13.19
      vertex -9.42707 -1.75581 13.19
      vertex -6.15221 -5 13.19
    endloop
  endfacet
  facet normal 0 0 1
    outer loop
      vertex -6.15221 -5 13.19
      vertex -9.42707 -1.75581 13.19
      vertex -8.0833 -5 13.19
    endloop
  endfacet
  facet normal 0 0 1
    outer loop
      vertex -7.5291 -2.87013 13.19
      vertex -9.42707 -1.75581 13.19
      vertex -6.83602 -4.16678 13.19
    endloop
  endfacet
  facet normal 0 0 1
    outer loop
      vertex -7.95589 -1.46318 13.19
      vertex -9.42707 -1.75581 13.19
      vertex -7.5291 -2.87013 13.19
    endloop
  endfacet
  facet normal 0 0 1
    outer loop
      vertex -8.1 0 13.19
      vertex -9.42707 -1.75581 13.19
      vertex -7.95589 -1.46318 13.19
    endloop
  endfacet
  facet normal 0 0 1
    outer loop
      vertex -7.95589 1.46318 13.19
      vertex -9.42707 -1.75581 13.19
      vertex -8.1 0 13.19
    endloop
  endfacet
  facet normal 0 0 1
    outer loop
      vertex -7.5291 2.87013 13.19
      vertex -9.42707 -1.75581 13.19
      vertex -7.95589 1.46318 13.19
    endloop
  endfacet
  facet normal 0 0 1
    outer loop
      vertex -8.0833 5 13.19
      vertex -9.42707 -1.75581 13.19
      vertex -7.5291 2.87013 13.19
    endloop
  endfacet
  facet normal 0 0 1
    outer loop
      vertex -8.0833 5 13.19
      vertex -7.5291 2.87013 13.19
      vertex -6.83602 4.16678 13.19
    endloop
  endfacet
  facet normal 0 0 1
    outer loop
      vertex -8.0833 5 13.19
      vertex -6.83602 4.16678 13.19
      vertex -6.15221 5 13.19
    endloop
  endfacet
  facet normal 0 0 1
    outer loop
      vertex -8.91492 3.44415 13.19
      vertex -9.42707 -1.75581 13.19
      vertex -8.0833 5 13.19
    endloop
  endfacet
  facet normal 0 0 1
    outer loop
      vertex -9.42707 1.75581 13.19
      vertex -9.42707 -1.75581 13.19
      vertex -8.91492 3.44415 13.19
    endloop
  endfacet
  facet normal 0 0 1
    outer loop
      vertex -9.6 0 13.19
      vertex -9.42707 -1.75581 13.19
      vertex -9.42707 1.75581 13.19
    endloop
  endfacet
  facet normal 0.773011 0.634393 0
    outer loop
      vertex -6.83602 -4.16678 13.19
      vertex -6.15221 -5 13.19
      vertex -6.15221 -5 11.91
    endloop
  endfacet
  facet normal 0.773011 0.634393 0
    outer loop
      vertex -6.83602 -4.16678 11.91
      vertex -6.83602 -4.16678 13.19
      vertex -6.15221 -5 11.91
    endloop
  endfacet
  facet normal 0 0 -1
    outer loop
      vertex -8.91492 3.44415 11.91
      vertex -8.0833 5 11.91
      vertex -9.42707 1.75581 11.91
    endloop
  endfacet
  facet normal 0 0 -1
    outer loop
      vertex -9.42707 1.75581 11.91
      vertex -8.0833 5 11.91
      vertex -6.15221 5 11.91
    endloop
  endfacet
  facet normal 0 0 -1
    outer loop
      vertex -9.42707 1.75581 11.91
      vertex -6.15221 5 11.91
      vertex -6.83602 4.16678 11.91
    endloop
  endfacet
  facet normal 0 0 -1
    outer loop
      vertex -9.42707 1.75581 11.91
      vertex -6.83602 4.16678 11.91
      vertex -7.5291 2.87013 11.91
    endloop
  endfacet
  facet normal 0 0 -1
    outer loop
      vertex -7.5291 2.87013 11.91
      vertex -7.95589 1.46318 11.91
      vertex -9.42707 1.75581 11.91
    endloop
  endfacet
  facet normal 0 0 -1
    outer loop
      vertex -7.95589 1.46318 11.91
      vertex -8.1 0 11.91
      vertex -9.42707 1.75581 11.91
    endloop
  endfacet
  facet normal 0 0 -1
    outer loop
      vertex -8.1 0 11.91
      vertex -7.95589 -1.46318 11.91
      vertex -9.42707 1.75581 11.91
    endloop
  endfacet
  facet normal 0 0 -1
    outer loop
      vertex -7.95589 -1.46318 11.91
      vertex -7.5291 -2.87013 11.91
      vertex -9.42707 1.75581 11.91
    endloop
  endfacet
  facet normal 0 0 -1
    outer loop
      vertex -7.5291 -2.87013 11.91
      vertex -8.0833 -5 11.91
      vertex -9.42707 1.75581 11.91
    endloop
  endfacet
  facet normal 0 0 -1
    outer loop
      vertex -6.83602 -4.16678 11.91
      vertex -6.15221 -5 11.91
      vertex -8.0833 -5 11.91
    endloop
  endfacet
  facet normal 0 0 -1
    outer loop
      vertex -6.83602 -4.16678 11.91
      vertex -8.0833 -5 11.91
      vertex -7.5291 -2.87013 11.91
    endloop
  endfacet
  facet normal 0 0 -1
    outer loop
      vertex -9.42707 1.75581 11.91
      vertex -8.0833 -5 11.91
      vertex -8.91492 -3.44415 11.91
    endloop
  endfacet
  facet normal 0 0 -1
    outer loop
      vertex -9.42707 1.75581 11.91
      vertex -8.91492 -3.44415 11.91
      vertex -9.42707 -1.75581 11.91
    endloop
  endfacet
  facet normal 0 0 -1
    outer loop
      vertex -9.42707 1.75581 11.91
      vertex -9.42707 -1.75581 11.91
      vertex -9.6 0 11.91
    endloop
  endfacet
  facet normal 0.881921 0.471397 0
    outer loop
      vertex -8.91492 -3.44415 11.91
      vertex -8.0833 -5 11.91
      vertex -8.0833 -5 9.39
    endloop
  endfacet
  facet normal 0.881921 0.471397 0
    outer loop
      vertex -8.91492 -3.44415 9.39
      vertex -8.91492 -3.44415 11.91
      vertex -8.0833 -5 9.39
    endloop
  endfacet
  facet normal 0 0 1
    outer loop
      vertex -9.42707 -1.75581 9.39
      vertex -8.91492 -3.44415 9.39
      vertex -8.0833 -5 9.39
    endloop
  endfacet
  facet normal 0 0 1
    outer loop
      vertex -6.83602 -4.16678 9.39
      vertex -9.42707 -1.75581 9.39
      vertex -6.15221 -5 9.39
    endloop
  endfacet
  facet normal 0 0 1
    outer loop
      vertex -6.15221 -5 9.39
      vertex -9.42707 -1.75581 9.39
      vertex -8.0833 -5 9.39
    endloop
  endfacet
  facet normal 0 0 1
    outer loop
      vertex -7.5291 -2.87013 9.39
      vertex -9.42707 -1.75581 9.39
      vertex -6.83602 -4.16678 9.39
    endloop
  endfacet
  facet normal 0 0 1
    outer loop
      vertex -7.95589 -1.46318 9.39
      vertex -9.42707 -1.75581 9.39
      vertex -7.5291 -2.87013 9.39
    endloop
  endfacet
  facet normal 0 0 1
    outer loop
      vertex -8.1 0 9.39
      vertex -9.42707 -1.75581 9.39
      vertex -7.95589 -1.46318 9.39
    endloop
  endfacet
  facet normal 0 0 1
    outer loop
      vertex -7.95589 1.46318 9.39
      vertex -9.42707 -1.75581 9.39
      vertex -8.1 0 9.39
    endloop
  endfacet
  facet normal 0 0 1
    outer loop
      vertex -7.5291 2.87013 9.39
      vertex -9.42707 -1.75581 9.39
      vertex -7.95589 1.46318 9.39
    endloop
  endfacet
  facet normal 0 0 1
    outer loop
      vertex -8.0833 5 9.39
      vertex -9.42707 -1.75581 9.39
      vertex -7.5291 2.87013 9.39
    endloop
  endfacet
  facet normal 0 0 1
    outer loop
      vertex -8.0833 5 9.39
      vertex -7.5291 2.87013 9.39
      vertex -6.83602 4.16678 9.39
    endloop
  endfacet
  facet normal 0 0 1
    outer loop
      vertex -8.0833 5 9.39
      vertex -6.83602 4.16678 9.39
      vertex -6.15221 5 9.39
    endloop
  endfacet
  facet normal 0 0 1
    outer loop
      vertex -8.91492 3.44415 9.39
      vertex -9.42707 -1.75581 9.39
      vertex -8.0833 5 9.39
    endloop
  endfacet
  facet normal 0 0 1
    outer loop
      vertex -9.42707 1.75581 9.39
      vertex -9.42707 -1.75581 9.39
      vertex -8.91492 3.44415 9.39
    endloop
  endfacet
  facet normal 0 0 1
    outer loop
      vertex -9.6 0 9.39
      vertex -9.42707 -1.75581 9.39
      vertex -9.42707 1.75581 9.39
    endloop
  endfacet
  facet normal 0.773011 0.634393 0
    outer loop
      vertex -6.83602 -4.16678 9.39
      vertex -6.15221 -5 9.39
      vertex -6.15221 -5 8.11
    endloop
  endfacet
  facet normal 0.773011 0.634393 0
    outer loop
      vertex -6.83602 -4.16678 8.11
      vertex -6.83602 -4.16678 9.39
      vertex -6.15221 -5 8.11
    endloop
  endfacet
  facet normal 0 0 -1
    outer loop
      vertex -8.91492 3.44415 8.11
      vertex -8.0833 5 8.11
      vertex -9.42707 1.75581 8.11
    endloop
  endfacet
  facet normal 0 0 -1
    outer loop
      vertex -9.42707 1.75581 8.11
      vertex -8.0833 5 8.11
      vertex -6.15221 5 8.11
    endloop
  endfacet
  facet normal 0 0 -1
    outer loop
      vertex -9.42707 1.75581 8.11
      vertex -6.15221 5 8.11
      vertex -6.83602 4.16678 8.11
    endloop
  endfacet
  facet normal 0 0 -1
    outer loop
      vertex -9.42707 1.75581 8.11
      vertex -6.83602 4.16678 8.11
      vertex -7.5291 2.87013 8.11
    endloop
  endfacet
  facet normal 0 0 -1
    outer loop
      vertex -7.5291 2.87013 8.11
      vertex -7.95589 1.46318 8.11
      vertex -9.42707 1.75581 8.11
    endloop
  endfacet
  facet normal 0 0 -1
    outer loop
      vertex -7.95589 1.46318 8.11
      vertex -8.1 0 8.11
      vertex -9.42707 1.75581 8.11
    endloop
  endfacet
  facet normal 0 0 -1
    outer loop
      vertex -8.1 0 8.11
      vertex -7.95589 -1.46318 8.11
      vertex -9.42707 1.75581 8.11
    endloop
  endfacet
  facet normal 0 0 -1
    outer loop
      vertex -7.95589 -1.46318 8.11
      vertex -7.5291 -2.87013 8.11
      vertex -9.42707 1.75581 8.11
    endloop
  endfacet
  facet normal 0 0 -1
    outer loop
      vertex -7.5291 -2.87013 8.11
      vertex -8.0833 -5 8.11
      vertex -9.42707 1.75581 8.11
    endloop
  endfacet
  facet normal 0 0 -1
    outer loop
      vertex -6.83602 -4.16678 8.11
      vertex -6.15221 -5 8.11
      vertex -8.0833 -5 8.11
    endloop
  endfacet
  facet normal 0 0 -1
    outer loop
      vertex -6.83602 -4.16678 8.11
      vertex -8.0833 -5 8.11
      vertex -7.5291 -2.87013 8.11
    endloop
  endfacet
  facet normal 0 0 -1
    outer loop
      vertex -9.42707 1.75581 8.11
      vertex -8.0833 -5 8.11
      vertex -8.91492 -3.44415 8.11
    endloop
  endfacet
  facet normal 0 0 -1
    outer loop
      vertex -9.42707 1.75581 8.11
      vertex -8.91492 -3.44415 8.11
      vertex -9.42707 -1.75581 8.11
    endloop
  endfacet
  facet normal 0 0 -1
    outer loop
      vertex -9.42707 1.75581 8.11
      vertex -9.42707 -1.75581 8.11
      vertex -9.6 0 8.11
    endloop
  endfacet
  facet normal 0.881921 0.471397 0
    outer loop
      vertex -8.91492 -3.44415 8.11
      vertex -8.0833 -5 8.11
      vertex -8.0833 -5 5.59
    endloop
  endfacet
  facet normal 0.881921 0.471397 0
    outer loop
      vertex -8.91492 -3.44415 5.59
      vertex -8.91492 -3.44415 8.11
      vertex -8.0833 -5 5.59
    endloop
  endfacet
  facet normal 0 0 1
    outer loop
      vertex -9.42707 -1.75581 5.59
      vertex -8.91492 -3.44415 5.59
      vertex -8.0833 -5 5.59
    endloop
  endfacet
  facet normal 0 0 1
    outer loop
      vertex -6.83602 -4.16678 5.59
      vertex -9.42707 -1.75581 5.59
      vertex -6.15221 -5 5.59
    endloop
  endfacet
  facet normal 0 0 1
    outer loop
      vertex -6.15221 -5 5.59
      vertex -9.42707 -1.75581 5.59
      vertex -8.0833 -5 5.59
    endloop
  endfacet
  facet normal 0 0 1
    outer loop
      vertex -7.5291 -2.87013 5.59
      vertex -9.42707 -1.75581 5.59
      vertex -6.83602 -4.16678 5.59
    endloop
  endfacet
  facet normal 0 0 1
    outer loop
      vertex -7.95589 -1.46318 5.59
      vertex -9.42707 -1.75581 5.59
      vertex -7.5291 -2.87013 5.59
    endloop
  endfacet
  facet normal 0 0 1
    outer loop
      vertex -8.1 0 5.59
      vertex -9.42707 -1.75581 5.59
      vertex -7.95589 -1.46318 5.59
    endloop
  endfacet
  facet normal 0 0 1
    outer loop
      vertex -7.95589 1.46318 5.59
      vertex -9.42707 -1.75581 5.59
      vertex -8.1 0 5.59
    endloop
  endfacet
  facet normal 0 0 1
    outer loop
      vertex -7.5291 2.87013 5.59
      vertex -9.42707 -1.75581 5.59
      vertex -7.95589 1.46318 5.59
    endloop
  endfacet
  facet normal 0 0 1
    outer loop
      vertex -8.0833 5 5.59
      vertex -9.42707 -1.75581 5.59
      vertex -7.5291 2.87013 5.59
    endloop
  endfacet
  facet normal 0 0 1
    outer loop
      vertex -8.0833 5 5.59
      vertex -7.5291 2.87013 5.59
      vertex -6.83602 4.16678 5.59
    endloop
  endfacet
  facet normal 0 0 1
    outer loop
      vertex -8.0833 5 5.59
      vertex -6.83602 4.16678 5.59
      vertex -6.15221 5 5.59
    endloop
  endfacet
  facet normal 0 0 1
    outer loop
      vertex -8.91492 3.44415 5.59
      vertex -9.42707 -1.75581 5.59
      vertex -8.0833 5 5.59
    endloop
  endfacet
  facet normal 0 0 1
    outer loop
      vertex -9.42707 1.75581 5.59
      vertex -9.42707 -1.75581 5.59
      vertex -8.91492 3.44415 5.59
    endloop
  endfacet
  facet normal 0 0 1
    outer loop
      vertex -9.6 0 5.59
      vertex -9.42707 -1.75581 5.59
      vertex -9.42707 1.75581 5.59
    endloop
  endfacet
  facet normal 0.773011 0.634393 0
    outer loop
      vertex -6.83602 -4.16678 5.59
      vertex -6.15221 -5 5.59
      vertex -6.15221 -5 5
    endloop
  endfacet
  facet normal 0.773011 0.634393 0
    outer loop
      vertex -6.83602 -4.16678 5
      vertex -6.83602 -4.16678 5.59
      vertex -6.15221 -5 5
    endloop
  endfacet
  facet normal 0.881921 0.471397 0
    outer loop
      vertex -7.5291 -2.87013 5.59
      vertex -6.83602 -4.16678 5.59
      vertex -6.83602 -4.16678 5
    endloop
  endfacet
  facet normal 0.881921 0.471397 0
    outer loop
      vertex -7.5291 -2.87013 5
      vertex -7.5291 -2.87013 5.59
      vertex -6.83602 -4.16678 5
    endloop
  endfacet
  facet normal 0.95694 0.290285 0
    outer loop
      vertex -7.95589 -1.46318 5.59
      vertex -7.5291 -2.87013 5.59
      vertex -7.5291 -2.87013 5
    endloop
  endfacet
  facet normal 0.95694 0.290285 0
    outer loop
      vertex -7.95589 -1.46318 5
      vertex -7.95589 -1.46318 5.59
      vertex -7.5291 -2.87013 5
    endloop
  endfacet
  facet normal 0.995185 0.0980169 0
    outer loop
      vertex -8.1 0 5.59
      vertex -7.95589 -1.46318 5.59
      vertex -7.95589 -1.46318 5
    endloop
  endfacet
  facet normal 0.995185 0.0980169 0
    outer loop
      vertex -8.1 0 5
      vertex -8.1 0 5.59
      vertex -7.95589 -1.46318 5
    endloop
  endfacet
  facet normal 0.995185 -0.0980169 0
    outer loop
      vertex -7.95589 1.46318 5
      vertex -7.95589 1.46318 5.59
      vertex -8.1 0 5.59
    endloop
  endfacet
  facet normal 0.995185 -0.0980169 0
    outer loop
      vertex -8.1 0 5
      vertex -7.95589 1.46318 5
      vertex -8.1 0 5.59
    endloop
  endfacet
  facet normal 0.95694 -0.290285 0
    outer loop
      vertex -7.5291 2.87013 5
      vertex -7.5291 2.87013 5.59
      vertex -7.95589 1.46318 5.59
    endloop
  endfacet
  facet normal 0.95694 -0.290285 0
    outer loop
      vertex -7.95589 1.46318 5
      vertex -7.5291 2.87013 5
      vertex -7.95589 1.46318 5.59
    endloop
  endfacet
  facet normal 0.881921 -0.471397 0
    outer loop
      vertex -6.83602 4.16678 5
      vertex -6.83602 4.16678 5.59
      vertex -7.5291 2.87013 5.59
    endloop
  endfacet
  facet normal 0.881921 -0.471397 0
    outer loop
      vertex -7.5291 2.87013 5
      vertex -6.83602 4.16678 5
      vertex -7.5291 2.87013 5.59
    endloop
  endfacet
  facet normal 0.773011 -0.634393 0
    outer loop
      vertex -6.15221 5 5
      vertex -6.15221 5 5.59
      vertex -6.83602 4.16678 5.59
    endloop
  endfacet
  facet normal 0.773011 -0.634393 0
    outer loop
      vertex -6.83602 4.16678 5
      vertex -6.15221 5 5
      vertex -6.83602 4.16678 5.59
    endloop
  endfacet
  facet normal 0.881921 -0.471397 0
    outer loop
      vertex -8.0833 5 5.59
      vertex -8.0833 5 8.11
      vertex -8.91492 3.44415 8.11
    endloop
  endfacet
  facet normal 0.881921 -0.471397 0
    outer loop
      vertex -8.91492 3.44415 5.59
      vertex -8.0833 5 5.59
      vertex -8.91492 3.44415 8.11
    endloop
  endfacet
  facet normal 0.773011 -0.634393 0
    outer loop
      vertex -6.15221 5 8.11
      vertex -6.15221 5 9.39
      vertex -6.83602 4.16678 9.39
    endloop
  endfacet
  facet normal 0.773011 -0.634393 0
    outer loop
      vertex -6.83602 4.16678 8.11
      vertex -6.15221 5 8.11
      vertex -6.83602 4.16678 9.39
    endloop
  endfacet
  facet normal 0.881921 -0.471397 0
    outer loop
      vertex -8.0833 5 9.39
      vertex -8.0833 5 11.91
      vertex -8.91492 3.44415 11.91
    endloop
  endfacet
  facet normal 0.881921 -0.471397 0
    outer loop
      vertex -8.91492 3.44415 9.39
      vertex -8.0833 5 9.39
      vertex -8.91492 3.44415 11.91
    endloop
  endfacet
  facet normal 0.773011 -0.634393 0
    outer loop
      vertex -6.15221 5 11.91
      vertex -6.15221 5 13.19
      vertex -6.83602 4.16678 13.19
    endloop
  endfacet
  facet normal 0.773011 -0.634393 0
    outer loop
      vertex -6.83602 4.16678 11.91
      vertex -6.15221 5 11.91
      vertex -6.83602 4.16678 13.19
    endloop
  endfacet
  facet normal 0.881921 -0.471397 0
    outer loop
      vertex -8.0833 5 13.19
      vertex -8.0833 5 15.71
      vertex -8.91492 3.44415 15.71
    endloop
  endfacet
  facet normal 0.881921 -0.471397 0
    outer loop
      vertex -8.91492 3.44415 13.19
      vertex -8.0833 5 13.19
      vertex -8.91492 3.44415 15.71
    endloop
  endfacet
  facet normal 0.773011 -0.634393 0
    outer loop
      vertex -6.15221 5 15.71
      vertex -6.15221 5 16.99
      vertex -6.83602 4.16678 16.99
    endloop
  endfacet
  facet normal 0.773011 -0.634393 0
    outer loop
      vertex -6.83602 4.16678 15.71
      vertex -6.15221 5 15.71
      vertex -6.83602 4.16678 16.99
    endloop
  endfacet
  facet normal 0.881921 -0.471397 0
    outer loop
      vertex -8.0833 5 16.99
      vertex -8.0833 5 19.51
      vertex -8.91492 3.44415 19.51
    endloop
  endfacet
  facet normal 0.881921 -0.471397 0
    outer loop
      vertex -8.91492 3.44415 16.99
      vertex -8.0833 5 16.99
      vertex -8.91492 3.44415 19.51
    endloop
  endfacet
  facet normal 0.773011 -0.634393 0
    outer loop
      vertex -6.15221 5 19.51
      vertex -6.15221 5 20.79
      vertex -6.83602 4.16678 20.79
    endloop
  endfacet
  facet normal 0.773011 -0.634393 0
    outer loop
      vertex -6.83602 4.16678 19.51
      vertex -6.15221 5 19.51
      vertex -6.83602 4.16678 20.79
    endloop
  endfacet
  facet normal 0.881921 -0.471397 0
    outer loop
      vertex -8.0833 5 20.79
      vertex -8.0833 5 22.99
      vertex -8.91492 3.44415 22.99
    endloop
  endfacet
  facet normal 0.881921 -0.471397 0
    outer loop
      vertex -8.91492 3.44415 20.79
      vertex -8.0833 5 20.79
      vertex -8.91492 3.44415 22.99
    endloop
  endfacet
  facet normal 0.95694 -0.290285 0
    outer loop
      vertex -8.91492 3.44415 20.79
      vertex -8.91492 3.44415 22.99
      vertex -9.42707 1.75581 22.99
    endloop
  endfacet
  facet normal 0.95694 -0.290285 0
    outer loop
      vertex -9.42707 1.75581 20.79
      vertex -8.91492 3.44415 20.79
      vertex -9.42707 1.75581 22.99
    endloop
  endfacet
  facet normal 0.995185 -0.0980169 0
    outer loop
      vertex -9.42707 1.75581 20.79
      vertex -9.42707 1.75581 22.99
      vertex -9.6 0 22.99
    endloop
  endfacet
  facet normal 0.995185 -0.0980169 0
    outer loop
      vertex -9.6 0 20.79
      vertex -9.42707 1.75581 20.79
      vertex -9.6 0 22.99
    endloop
  endfacet
  facet normal 0.995185 0.0980169 0
    outer loop
      vertex -9.6 0 22.99
      vertex -9.42707 -1.75581 22.99
      vertex -9.42707 -1.75581 20.79
    endloop
  endfacet
  facet normal 0.995185 0.0980169 0
    outer loop
      vertex -9.6 0 20.79
      vertex -9.6 0 22.99
      vertex -9.42707 -1.75581 20.79
    endloop
  endfacet
  facet normal 0.95694 0.290285 0
    outer loop
      vertex -9.42707 -1.75581 22.99
      vertex -8.91492 -3.44415 22.99
      vertex -8.91492 -3.44415 20.79
    endloop
  endfacet
  facet normal 0.95694 0.290285 0
    outer loop
      vertex -9.42707 -1.75581 20.79
      vertex -9.42707 -1.75581 22.99
      vertex -8.91492 -3.44415 20.79
    endloop
  endfacet
  facet normal -1 0 -1.77321e-016
    outer loop
      vertex -10.01 1.07834 10.0783
      vertex -10.01 1.40892 9.58359
      vertex -10.01 0.583592 10.4089
    endloop
  endfacet
  facet normal -1 0 -1.77321e-016
    outer loop
      vertex -10.01 0.583592 10.4089
      vertex -10.01 1.40892 9.58359
      vertex -10.01 1.525 9
    endloop
  endfacet
  facet normal -1 0 -1.77321e-016
    outer loop
      vertex -10.01 0.583592 10.4089
      vertex -10.01 1.525 9
      vertex -10.01 1.40892 8.41641
    endloop
  endfacet
  facet normal -1 0 -1.77321e-016
    outer loop
      vertex -10.01 0.583592 10.4089
      vertex -10.01 1.40892 8.41641
      vertex -10.01 1.07834 7.92166
    endloop
  endfacet
  facet normal -1 0 -1.77321e-016
    outer loop
      vertex -10.01 0.583592 10.4089
      vertex -10.01 1.07834 7.92166
      vertex -10.01 0.583592 7.59108
    endloop
  endfacet
  facet normal -1 0 -1.77321e-016
    outer loop
      vertex -10.01 0.583592 10.4089
      vertex -10.01 0.583592 7.59108
      vertex -10.01 0 7.475
    endloop
  endfacet
  facet normal -1 0 -1.77321e-016
    outer loop
      vertex -10.01 0.583592 10.4089
      vertex -10.01 0 7.475
      vertex -10.01 -0.583592 7.59108
    endloop
  endfacet
  facet normal -1 0 -1.77321e-016
    outer loop
      vertex -10.01 0.583592 10.4089
      vertex -10.01 -0.583592 7.59108
      vertex -10.01 -1.07834 7.92166
    endloop
  endfacet
  facet normal -1 0 -1.77321e-016
    outer loop
      vertex -10.01 0.583592 10.4089
      vertex -10.01 -1.07834 7.92166
      vertex -10.01 -1.40892 8.41641
    endloop
  endfacet
  facet normal -1 0 -1.77321e-016
    outer loop
      vertex -10.01 0.583592 10.4089
      vertex -10.01 -1.40892 8.41641
      vertex -10.01 -1.525 9
    endloop
  endfacet
  facet normal -1 0 -1.77321e-016
    outer loop
      vertex -10.01 0.583592 10.4089
      vertex -10.01 -1.525 9
      vertex -10.01 -1.40892 9.58359
    endloop
  endfacet
  facet normal -1 0 -1.77321e-016
    outer loop
      vertex -10.01 0.583592 10.4089
      vertex -10.01 -1.40892 9.58359
      vertex -10.01 -1.07834 10.0783
    endloop
  endfacet
  facet normal -1 0 -1.77321e-016
    outer loop
      vertex -10.01 0.583592 10.4089
      vertex -10.01 -1.07834 10.0783
      vertex -10.01 -0.583592 10.4089
    endloop
  endfacet
  facet normal -1 0 -1.77321e-016
    outer loop
      vertex -10.01 0.583592 10.4089
      vertex -10.01 -0.583592 10.4089
      vertex -10.01 0 10.525
    endloop
  endfacet
  facet normal -1 0 -1.77321e-016
    outer loop
      vertex -10.01 1.07834 20.0783
      vertex -10.01 1.40892 19.5836
      vertex -10.01 0.583592 20.4089
    endloop
  endfacet
  facet normal -1 0 -1.77321e-016
    outer loop
      vertex -10.01 0.583592 20.4089
      vertex -10.01 1.40892 19.5836
      vertex -10.01 1.525 19
    endloop
  endfacet
  facet normal -1 0 -1.77321e-016
    outer loop
      vertex -10.01 0.583592 20.4089
      vertex -10.01 1.525 19
      vertex -10.01 1.40892 18.4164
    endloop
  endfacet
  facet normal -1 0 -1.77321e-016
    outer loop
      vertex -10.01 0.583592 20.4089
      vertex -10.01 1.40892 18.4164
      vertex -10.01 1.07834 17.9217
    endloop
  endfacet
  facet normal -1 0 -1.77321e-016
    outer loop
      vertex -10.01 0.583592 20.4089
      vertex -10.01 1.07834 17.9217
      vertex -10.01 0.583592 17.5911
    endloop
  endfacet
  facet normal -1 0 -1.77321e-016
    outer loop
      vertex -10.01 0.583592 20.4089
      vertex -10.01 0.583592 17.5911
      vertex -10.01 0 17.475
    endloop
  endfacet
  facet normal -1 0 -1.77321e-016
    outer loop
      vertex -10.01 0.583592 20.4089
      vertex -10.01 0 17.475
      vertex -10.01 -0.583592 17.5911
    endloop
  endfacet
  facet normal -1 0 -1.77321e-016
    outer loop
      vertex -10.01 0.583592 20.4089
      vertex -10.01 -0.583592 17.5911
      vertex -10.01 -1.07834 17.9217
    endloop
  endfacet
  facet normal -1 0 -1.77321e-016
    outer loop
      vertex -10.01 0.583592 20.4089
      vertex -10.01 -1.07834 17.9217
      vertex -10.01 -1.40892 18.4164
    endloop
  endfacet
  facet normal -1 0 -1.77321e-016
    outer loop
      vertex -10.01 0.583592 20.4089
      vertex -10.01 -1.40892 18.4164
      vertex -10.01 -1.525 19
    endloop
  endfacet
  facet normal -1 0 -1.77321e-016
    outer loop
      vertex -10.01 0.583592 20.4089
      vertex -10.01 -1.525 19
      vertex -10.01 -1.40892 19.5836
    endloop
  endfacet
  facet normal -1 0 -1.77321e-016
    outer loop
      vertex -10.01 0.583592 20.4089
      vertex -10.01 -1.40892 19.5836
      vertex -10.01 -1.07834 20.0783
    endloop
  endfacet
  facet normal -1 0 -1.77321e-016
    outer loop
      vertex -10.01 0.583592 20.4089
      vertex -10.01 -1.07834 20.0783
      vertex -10.01 -0.583592 20.4089
    endloop
  endfacet
  facet normal -1 0 -1.77321e-016
    outer loop
      vertex -10.01 0.583592 20.4089
      vertex -10.01 -0.583592 20.4089
      vertex -10.01 0 20.525
    endloop
  endfacet
  facet normal 0.881921 -0.471397 0
    outer loop
      vertex -6.83602 4.16678 19.51
      vertex -6.83602 4.16678 20.79
      vertex -7.5291 2.87013 20.79
    endloop
  endfacet
  facet normal 0.881921 -0.471397 0
    outer loop
      vertex -7.5291 2.87013 19.51
      vertex -6.83602 4.16678 19.51
      vertex -7.5291 2.87013 20.79
    endloop
  endfacet
  facet normal 0.95694 -0.290285 0
    outer loop
      vertex -7.5291 2.87013 19.51
      vertex -7.5291 2.87013 20.79
      vertex -7.95589 1.46318 20.79
    endloop
  endfacet
  facet normal 0.95694 -0.290285 0
    outer loop
      vertex -7.95589 1.46318 19.51
      vertex -7.5291 2.87013 19.51
      vertex -7.95589 1.46318 20.79
    endloop
  endfacet
  facet normal 0.995185 -0.0980169 0
    outer loop
      vertex -7.95589 1.46318 19.51
      vertex -7.95589 1.46318 20.79
      vertex -8.1 0 20.79
    endloop
  endfacet
  facet normal 0.995185 -0.0980169 0
    outer loop
      vertex -8.1 0 19.51
      vertex -7.95589 1.46318 19.51
      vertex -8.1 0 20.79
    endloop
  endfacet
  facet normal 0.995185 0.0980169 0
    outer loop
      vertex -8.1 0 20.79
      vertex -7.95589 -1.46318 20.79
      vertex -7.95589 -1.46318 19.51
    endloop
  endfacet
  facet normal 0.995185 0.0980169 0
    outer loop
      vertex -8.1 0 19.51
      vertex -8.1 0 20.79
      vertex -7.95589 -1.46318 19.51
    endloop
  endfacet
  facet normal 0.95694 0.290285 0
    outer loop
      vertex -7.95589 -1.46318 20.79
      vertex -7.5291 -2.87013 20.79
      vertex -7.5291 -2.87013 19.51
    endloop
  endfacet
  facet normal 0.95694 0.290285 0
    outer loop
      vertex -7.95589 -1.46318 19.51
      vertex -7.95589 -1.46318 20.79
      vertex -7.5291 -2.87013 19.51
    endloop
  endfacet
  facet normal 0.881921 0.471397 0
    outer loop
      vertex -7.5291 -2.87013 20.79
      vertex -6.83602 -4.16678 20.79
      vertex -6.83602 -4.16678 19.51
    endloop
  endfacet
  facet normal 0.881921 0.471397 0
    outer loop
      vertex -7.5291 -2.87013 19.51
      vertex -7.5291 -2.87013 20.79
      vertex -6.83602 -4.16678 19.51
    endloop
  endfacet
  facet normal 0.95694 -0.290285 0
    outer loop
      vertex -8.91492 3.44415 16.99
      vertex -8.91492 3.44415 19.51
      vertex -9.42707 1.75581 19.51
    endloop
  endfacet
  facet normal 0.95694 -0.290285 0
    outer loop
      vertex -9.42707 1.75581 16.99
      vertex -8.91492 3.44415 16.99
      vertex -9.42707 1.75581 19.51
    endloop
  endfacet
  facet normal 0.995185 -0.0980169 0
    outer loop
      vertex -9.42707 1.75581 16.99
      vertex -9.42707 1.75581 19.51
      vertex -9.6 0 19.51
    endloop
  endfacet
  facet normal 0.995185 -0.0980169 0
    outer loop
      vertex -9.6 0 16.99
      vertex -9.42707 1.75581 16.99
      vertex -9.6 0 19.51
    endloop
  endfacet
  facet normal 0.995185 0.0980169 0
    outer loop
      vertex -9.6 0 19.51
      vertex -9.42707 -1.75581 19.51
      vertex -9.42707 -1.75581 16.99
    endloop
  endfacet
  facet normal 0.995185 0.0980169 0
    outer loop
      vertex -9.6 0 16.99
      vertex -9.6 0 19.51
      vertex -9.42707 -1.75581 16.99
    endloop
  endfacet
  facet normal 0.95694 0.290285 0
    outer loop
      vertex -9.42707 -1.75581 19.51
      vertex -8.91492 -3.44415 19.51
      vertex -8.91492 -3.44415 16.99
    endloop
  endfacet
  facet normal 0.95694 0.290285 0
    outer loop
      vertex -9.42707 -1.75581 16.99
      vertex -9.42707 -1.75581 19.51
      vertex -8.91492 -3.44415 16.99
    endloop
  endfacet
  facet normal 0.881921 -0.471397 0
    outer loop
      vertex -6.83602 4.16678 15.71
      vertex -6.83602 4.16678 16.99
      vertex -7.5291 2.87013 16.99
    endloop
  endfacet
  facet normal 0.881921 -0.471397 0
    outer loop
      vertex -7.5291 2.87013 15.71
      vertex -6.83602 4.16678 15.71
      vertex -7.5291 2.87013 16.99
    endloop
  endfacet
  facet normal 0.95694 -0.290285 0
    outer loop
      vertex -7.5291 2.87013 15.71
      vertex -7.5291 2.87013 16.99
      vertex -7.95589 1.46318 16.99
    endloop
  endfacet
  facet normal 0.95694 -0.290285 0
    outer loop
      vertex -7.95589 1.46318 15.71
      vertex -7.5291 2.87013 15.71
      vertex -7.95589 1.46318 16.99
    endloop
  endfacet
  facet normal 0.995185 -0.0980169 0
    outer loop
      vertex -7.95589 1.46318 15.71
      vertex -7.95589 1.46318 16.99
      vertex -8.1 0 16.99
    endloop
  endfacet
  facet normal 0.995185 -0.0980169 0
    outer loop
      vertex -8.1 0 15.71
      vertex -7.95589 1.46318 15.71
      vertex -8.1 0 16.99
    endloop
  endfacet
  facet normal 0.995185 0.0980169 0
    outer loop
      vertex -8.1 0 16.99
      vertex -7.95589 -1.46318 16.99
      vertex -7.95589 -1.46318 15.71
    endloop
  endfacet
  facet normal 0.995185 0.0980169 0
    outer loop
      vertex -8.1 0 15.71
      vertex -8.1 0 16.99
      vertex -7.95589 -1.46318 15.71
    endloop
  endfacet
  facet normal 0.95694 0.290285 0
    outer loop
      vertex -7.95589 -1.46318 16.99
      vertex -7.5291 -2.87013 16.99
      vertex -7.5291 -2.87013 15.71
    endloop
  endfacet
  facet normal 0.95694 0.290285 0
    outer loop
      vertex -7.95589 -1.46318 15.71
      vertex -7.95589 -1.46318 16.99
      vertex -7.5291 -2.87013 15.71
    endloop
  endfacet
  facet normal 0.881921 0.471397 0
    outer loop
      vertex -7.5291 -2.87013 16.99
      vertex -6.83602 -4.16678 16.99
      vertex -6.83602 -4.16678 15.71
    endloop
  endfacet
  facet normal 0.881921 0.471397 0
    outer loop
      vertex -7.5291 -2.87013 15.71
      vertex -7.5291 -2.87013 16.99
      vertex -6.83602 -4.16678 15.71
    endloop
  endfacet
  facet normal 0.95694 -0.290285 0
    outer loop
      vertex -8.91492 3.44415 13.19
      vertex -8.91492 3.44415 15.71
      vertex -9.42707 1.75581 15.71
    endloop
  endfacet
  facet normal 0.95694 -0.290285 0
    outer loop
      vertex -9.42707 1.75581 13.19
      vertex -8.91492 3.44415 13.19
      vertex -9.42707 1.75581 15.71
    endloop
  endfacet
  facet normal 0.995185 -0.0980169 0
    outer loop
      vertex -9.42707 1.75581 13.19
      vertex -9.42707 1.75581 15.71
      vertex -9.6 0 15.71
    endloop
  endfacet
  facet normal 0.995185 -0.0980169 0
    outer loop
      vertex -9.6 0 13.19
      vertex -9.42707 1.75581 13.19
      vertex -9.6 0 15.71
    endloop
  endfacet
  facet normal 0.995185 0.0980169 0
    outer loop
      vertex -9.6 0 15.71
      vertex -9.42707 -1.75581 15.71
      vertex -9.42707 -1.75581 13.19
    endloop
  endfacet
  facet normal 0.995185 0.0980169 0
    outer loop
      vertex -9.6 0 13.19
      vertex -9.6 0 15.71
      vertex -9.42707 -1.75581 13.19
    endloop
  endfacet
  facet normal 0.95694 0.290285 0
    outer loop
      vertex -9.42707 -1.75581 15.71
      vertex -8.91492 -3.44415 15.71
      vertex -8.91492 -3.44415 13.19
    endloop
  endfacet
  facet normal 0.95694 0.290285 0
    outer loop
      vertex -9.42707 -1.75581 13.19
      vertex -9.42707 -1.75581 15.71
      vertex -8.91492 -3.44415 13.19
    endloop
  endfacet
  facet normal 0.881921 -0.471397 0
    outer loop
      vertex -6.83602 4.16678 11.91
      vertex -6.83602 4.16678 13.19
      vertex -7.5291 2.87013 13.19
    endloop
  endfacet
  facet normal 0.881921 -0.471397 0
    outer loop
      vertex -7.5291 2.87013 11.91
      vertex -6.83602 4.16678 11.91
      vertex -7.5291 2.87013 13.19
    endloop
  endfacet
  facet normal 0.95694 -0.290285 0
    outer loop
      vertex -7.5291 2.87013 11.91
      vertex -7.5291 2.87013 13.19
      vertex -7.95589 1.46318 13.19
    endloop
  endfacet
  facet normal 0.95694 -0.290285 0
    outer loop
      vertex -7.95589 1.46318 11.91
      vertex -7.5291 2.87013 11.91
      vertex -7.95589 1.46318 13.19
    endloop
  endfacet
  facet normal 0.995185 -0.0980169 0
    outer loop
      vertex -7.95589 1.46318 11.91
      vertex -7.95589 1.46318 13.19
      vertex -8.1 0 13.19
    endloop
  endfacet
  facet normal 0.995185 -0.0980169 0
    outer loop
      vertex -8.1 0 11.91
      vertex -7.95589 1.46318 11.91
      vertex -8.1 0 13.19
    endloop
  endfacet
  facet normal 0.995185 0.0980169 0
    outer loop
      vertex -8.1 0 13.19
      vertex -7.95589 -1.46318 13.19
      vertex -7.95589 -1.46318 11.91
    endloop
  endfacet
  facet normal 0.995185 0.0980169 0
    outer loop
      vertex -8.1 0 11.91
      vertex -8.1 0 13.19
      vertex -7.95589 -1.46318 11.91
    endloop
  endfacet
  facet normal 0.95694 0.290285 0
    outer loop
      vertex -7.95589 -1.46318 13.19
      vertex -7.5291 -2.87013 13.19
      vertex -7.5291 -2.87013 11.91
    endloop
  endfacet
  facet normal 0.95694 0.290285 0
    outer loop
      vertex -7.95589 -1.46318 11.91
      vertex -7.95589 -1.46318 13.19
      vertex -7.5291 -2.87013 11.91
    endloop
  endfacet
  facet normal 0.881921 0.471397 0
    outer loop
      vertex -7.5291 -2.87013 13.19
      vertex -6.83602 -4.16678 13.19
      vertex -6.83602 -4.16678 11.91
    endloop
  endfacet
  facet normal 0.881921 0.471397 0
    outer loop
      vertex -7.5291 -2.87013 11.91
      vertex -7.5291 -2.87013 13.19
      vertex -6.83602 -4.16678 11.91
    endloop
  endfacet
  facet normal 0.95694 -0.290285 0
    outer loop
      vertex -8.91492 3.44415 9.39
      vertex -8.91492 3.44415 11.91
      vertex -9.42707 1.75581 11.91
    endloop
  endfacet
  facet normal 0.95694 -0.290285 0
    outer loop
      vertex -9.42707 1.75581 9.39
      vertex -8.91492 3.44415 9.39
      vertex -9.42707 1.75581 11.91
    endloop
  endfacet
  facet normal 0.995185 -0.0980169 0
    outer loop
      vertex -9.42707 1.75581 9.39
      vertex -9.42707 1.75581 11.91
      vertex -9.6 0 11.91
    endloop
  endfacet
  facet normal 0.995185 -0.0980169 0
    outer loop
      vertex -9.6 0 9.39
      vertex -9.42707 1.75581 9.39
      vertex -9.6 0 11.91
    endloop
  endfacet
  facet normal 0.995185 0.0980169 0
    outer loop
      vertex -9.6 0 11.91
      vertex -9.42707 -1.75581 11.91
      vertex -9.42707 -1.75581 9.39
    endloop
  endfacet
  facet normal 0.995185 0.0980169 0
    outer loop
      vertex -9.6 0 9.39
      vertex -9.6 0 11.91
      vertex -9.42707 -1.75581 9.39
    endloop
  endfacet
  facet normal 0.95694 0.290285 0
    outer loop
      vertex -9.42707 -1.75581 11.91
      vertex -8.91492 -3.44415 11.91
      vertex -8.91492 -3.44415 9.39
    endloop
  endfacet
  facet normal 0.95694 0.290285 0
    outer loop
      vertex -9.42707 -1.75581 9.39
      vertex -9.42707 -1.75581 11.91
      vertex -8.91492 -3.44415 9.39
    endloop
  endfacet
  facet normal 0.881921 -0.471397 0
    outer loop
      vertex -6.83602 4.16678 8.11
      vertex -6.83602 4.16678 9.39
      vertex -7.5291 2.87013 9.39
    endloop
  endfacet
  facet normal 0.881921 -0.471397 0
    outer loop
      vertex -7.5291 2.87013 8.11
      vertex -6.83602 4.16678 8.11
      vertex -7.5291 2.87013 9.39
    endloop
  endfacet
  facet normal 0.95694 -0.290285 0
    outer loop
      vertex -7.5291 2.87013 8.11
      vertex -7.5291 2.87013 9.39
      vertex -7.95589 1.46318 9.39
    endloop
  endfacet
  facet normal 0.95694 -0.290285 0
    outer loop
      vertex -7.95589 1.46318 8.11
      vertex -7.5291 2.87013 8.11
      vertex -7.95589 1.46318 9.39
    endloop
  endfacet
  facet normal 0.995185 -0.0980169 0
    outer loop
      vertex -7.95589 1.46318 8.11
      vertex -7.95589 1.46318 9.39
      vertex -8.1 0 9.39
    endloop
  endfacet
  facet normal 0.995185 -0.0980169 0
    outer loop
      vertex -8.1 0 8.11
      vertex -7.95589 1.46318 8.11
      vertex -8.1 0 9.39
    endloop
  endfacet
  facet normal 0.995185 0.0980169 0
    outer loop
      vertex -8.1 0 9.39
      vertex -7.95589 -1.46318 9.39
      vertex -7.95589 -1.46318 8.11
    endloop
  endfacet
  facet normal 0.995185 0.0980169 0
    outer loop
      vertex -8.1 0 8.11
      vertex -8.1 0 9.39
      vertex -7.95589 -1.46318 8.11
    endloop
  endfacet
  facet normal 0.95694 0.290285 0
    outer loop
      vertex -7.95589 -1.46318 9.39
      vertex -7.5291 -2.87013 9.39
      vertex -7.5291 -2.87013 8.11
    endloop
  endfacet
  facet normal 0.95694 0.290285 0
    outer loop
      vertex -7.95589 -1.46318 8.11
      vertex -7.95589 -1.46318 9.39
      vertex -7.5291 -2.87013 8.11
    endloop
  endfacet
  facet normal 0.881921 0.471397 0
    outer loop
      vertex -7.5291 -2.87013 9.39
      vertex -6.83602 -4.16678 9.39
      vertex -6.83602 -4.16678 8.11
    endloop
  endfacet
  facet normal 0.881921 0.471397 0
    outer loop
      vertex -7.5291 -2.87013 8.11
      vertex -7.5291 -2.87013 9.39
      vertex -6.83602 -4.16678 8.11
    endloop
  endfacet
  facet normal 0.95694 -0.290285 0
    outer loop
      vertex -8.91492 3.44415 5.59
      vertex -8.91492 3.44415 8.11
      vertex -9.42707 1.75581 8.11
    endloop
  endfacet
  facet normal 0.95694 -0.290285 0
    outer loop
      vertex -9.42707 1.75581 5.59
      vertex -8.91492 3.44415 5.59
      vertex -9.42707 1.75581 8.11
    endloop
  endfacet
  facet normal 0.995185 -0.0980169 0
    outer loop
      vertex -9.42707 1.75581 5.59
      vertex -9.42707 1.75581 8.11
      vertex -9.6 0 8.11
    endloop
  endfacet
  facet normal 0.995185 -0.0980169 0
    outer loop
      vertex -9.6 0 5.59
      vertex -9.42707 1.75581 5.59
      vertex -9.6 0 8.11
    endloop
  endfacet
  facet normal 0.995185 0.0980169 0
    outer loop
      vertex -9.6 0 8.11
      vertex -9.42707 -1.75581 8.11
      vertex -9.42707 -1.75581 5.59
    endloop
  endfacet
  facet normal 0.995185 0.0980169 0
    outer loop
      vertex -9.6 0 5.59
      vertex -9.6 0 8.11
      vertex -9.42707 -1.75581 5.59
    endloop
  endfacet
  facet normal 0.95694 0.290285 0
    outer loop
      vertex -9.42707 -1.75581 8.11
      vertex -8.91492 -3.44415 8.11
      vertex -8.91492 -3.44415 5.59
    endloop
  endfacet
  facet normal 0.95694 0.290285 0
    outer loop
      vertex -9.42707 -1.75581 5.59
      vertex -9.42707 -1.75581 8.11
      vertex -8.91492 -3.44415 5.59
    endloop
  endfacet
endsolid OpenSCAD_Model
