solid OpenSCAD_Model
  facet normal -1 0 0
    outer loop
      vertex -21.15 -18.5315 0
      vertex -21.15 -18.5315 2
      vertex -21.15 18.5315 0
    endloop
  endfacet
  facet normal -1 0 0
    outer loop
      vertex -21.15 18.5315 0
      vertex -21.15 -18.5315 2
      vertex -21.15 18.5315 2
    endloop
  endfacet
  facet normal -0.740951 -0.671559 0
    outer loop
      vertex -21.15 -18.5315 0
      vertex -19.9051 -19.9051 0
      vertex -21.15 -18.5315 2
    endloop
  endfacet
  facet normal -0.740951 -0.671559 0
    outer loop
      vertex -21.15 -18.5315 2
      vertex -19.9051 -19.9051 0
      vertex -19.9051 -19.9051 2
    endloop
  endfacet
  facet normal 0 0 -1
    outer loop
      vertex -21.15 -18.5315 0
      vertex -21.15 18.5315 0
      vertex -19.9051 -19.9051 0
    endloop
  endfacet
  facet normal 0 0 -1
    outer loop
      vertex -19.9051 -19.9051 0
      vertex -21.15 18.5315 0
      vertex -19.9051 19.9051 0
    endloop
  endfacet
  facet normal 0 0 -1
    outer loop
      vertex -19.9051 -19.9051 0
      vertex -19.9051 19.9051 0
      vertex -18.5315 21.15 0
    endloop
  endfacet
  facet normal 0 0 -1
    outer loop
      vertex -14.2802 16.7198 0
      vertex -18.5315 21.15 0
      vertex 18.5315 21.15 0
    endloop
  endfacet
  facet normal 0 0 -1
    outer loop
      vertex -16.1601 -17.0937 0
      vertex -19.9051 -19.9051 0
      vertex -16.7198 -16.7198 0
    endloop
  endfacet
  facet normal 0 0 -1
    outer loop
      vertex 17.0937 16.1601 0
      vertex 19.9051 19.9051 0
      vertex 21.15 18.5315 0
    endloop
  endfacet
  facet normal 0 0 -1
    outer loop
      vertex 10.6246 -4.40086 0
      vertex 21.15 18.5315 0
      vertex 21.15 -18.5315 0
    endloop
  endfacet
  facet normal 0 0 -1
    outer loop
      vertex -19.9051 -19.9051 0
      vertex 21.15 -18.5315 0
      vertex 19.9051 -19.9051 0
    endloop
  endfacet
  facet normal 0 0 -1
    outer loop
      vertex -19.9051 -19.9051 0
      vertex 19.9051 -19.9051 0
      vertex 18.5315 -21.15 0
    endloop
  endfacet
  facet normal 0 0 -1
    outer loop
      vertex -19.9051 -19.9051 0
      vertex 18.5315 -21.15 0
      vertex -18.5315 -21.15 0
    endloop
  endfacet
  facet normal 0 0 -1
    outer loop
      vertex -19.9051 -19.9051 0
      vertex -18.5315 21.15 0
      vertex -17.225 -15.5 0
    endloop
  endfacet
  facet normal 0 0 -1
    outer loop
      vertex -19.9051 -19.9051 0
      vertex -17.225 -15.5 0
      vertex -17.0937 -16.1601 0
    endloop
  endfacet
  facet normal 0 0 -1
    outer loop
      vertex 17.0937 -16.1601 0
      vertex 21.15 -18.5315 0
      vertex 16.7198 -16.7198 0
    endloop
  endfacet
  facet normal 0 0 -1
    outer loop
      vertex -15.5 -13.775 0
      vertex -8.88962 -7.29552 0
      vertex -14.8399 -13.9063 0
    endloop
  endfacet
  facet normal 0 0 -1
    outer loop
      vertex -13.9063 -14.8399 0
      vertex -7.29552 -8.88962 0
      vertex -13.775 -15.5 0
    endloop
  endfacet
  facet normal 0 0 -1
    outer loop
      vertex -6.38906 -9.5619 0
      vertex -13.775 -15.5 0
      vertex -7.29552 -8.88962 0
    endloop
  endfacet
  facet normal 0 0 -1
    outer loop
      vertex -19.9051 -19.9051 0
      vertex -16.1601 -17.0937 0
      vertex -15.5 -17.225 0
    endloop
  endfacet
  facet normal 0 0 -1
    outer loop
      vertex -19.9051 -19.9051 0
      vertex -15.5 -17.225 0
      vertex 21.15 -18.5315 0
    endloop
  endfacet
  facet normal 0 0 -1
    outer loop
      vertex -6.38906 -9.5619 0
      vertex -13.9063 -16.1601 0
      vertex -13.775 -15.5 0
    endloop
  endfacet
  facet normal 0 0 -1
    outer loop
      vertex -6.38906 -9.5619 0
      vertex -14.2802 -16.7198 0
      vertex -13.9063 -16.1601 0
    endloop
  endfacet
  facet normal 0 0 -1
    outer loop
      vertex -14.8399 -17.0937 0
      vertex -14.2802 -16.7198 0
      vertex 21.15 -18.5315 0
    endloop
  endfacet
  facet normal 0 0 -1
    outer loop
      vertex -14.8399 -17.0937 0
      vertex 21.15 -18.5315 0
      vertex -15.5 -17.225 0
    endloop
  endfacet
  facet normal 0 0 -1
    outer loop
      vertex -7.29552 -8.88962 0
      vertex -13.9063 -14.8399 0
      vertex -14.2802 -14.2802 0
    endloop
  endfacet
  facet normal 0 0 -1
    outer loop
      vertex -8.13173 -8.13173 0
      vertex -14.2802 -14.2802 0
      vertex -14.8399 -13.9063 0
    endloop
  endfacet
  facet normal 0 0 -1
    outer loop
      vertex -16.7198 -14.2802 0
      vertex -18.5315 21.15 0
      vertex -16.1601 -13.9063 0
    endloop
  endfacet
  facet normal 0 0 -1
    outer loop
      vertex -14.2802 14.2802 0
      vertex 18.5315 21.15 0
      vertex -14.8399 13.9063 0
    endloop
  endfacet
  facet normal 0 0 -1
    outer loop
      vertex -17.0937 -14.8399 0
      vertex -18.5315 21.15 0
      vertex -16.7198 -14.2802 0
    endloop
  endfacet
  facet normal 0 0 -1
    outer loop
      vertex -17.225 -15.5 0
      vertex -18.5315 21.15 0
      vertex -17.0937 -14.8399 0
    endloop
  endfacet
  facet normal 0 0 -1
    outer loop
      vertex -16.1601 -13.9063 0
      vertex -18.5315 21.15 0
      vertex -17.225 15.5 0
    endloop
  endfacet
  facet normal 0 0 -1
    outer loop
      vertex -16.1601 -13.9063 0
      vertex -17.225 15.5 0
      vertex -17.0937 14.8399 0
    endloop
  endfacet
  facet normal 0 0 -1
    outer loop
      vertex -16.1601 -13.9063 0
      vertex -17.0937 14.8399 0
      vertex -16.7198 14.2802 0
    endloop
  endfacet
  facet normal 0 0 -1
    outer loop
      vertex -16.1601 -13.9063 0
      vertex -16.7198 14.2802 0
      vertex -16.1601 13.9063 0
    endloop
  endfacet
  facet normal 0 0 -1
    outer loop
      vertex -16.1601 -13.9063 0
      vertex -16.1601 13.9063 0
      vertex -15.5 13.775 0
    endloop
  endfacet
  facet normal 0 0 -1
    outer loop
      vertex -16.1601 -13.9063 0
      vertex -15.5 13.775 0
      vertex -14.8399 13.9063 0
    endloop
  endfacet
  facet normal 0 0 -1
    outer loop
      vertex 2.24354 11.279 0
      vertex -14.8399 13.9063 0
      vertex 18.5315 21.15 0
    endloop
  endfacet
  facet normal 0 0 -1
    outer loop
      vertex -13.9063 14.8399 0
      vertex 18.5315 21.15 0
      vertex -14.2802 14.2802 0
    endloop
  endfacet
  facet normal 0 0 -1
    outer loop
      vertex -13.775 15.5 0
      vertex 18.5315 21.15 0
      vertex -13.9063 14.8399 0
    endloop
  endfacet
  facet normal 0 0 -1
    outer loop
      vertex -13.9063 16.1601 0
      vertex 18.5315 21.15 0
      vertex -13.775 15.5 0
    endloop
  endfacet
  facet normal 0 0 -1
    outer loop
      vertex -8.88962 -7.29552 0
      vertex -15.5 -13.775 0
      vertex -16.1601 -13.9063 0
    endloop
  endfacet
  facet normal 0 0 -1
    outer loop
      vertex -14.8399 17.0937 0
      vertex -18.5315 21.15 0
      vertex -14.2802 16.7198 0
    endloop
  endfacet
  facet normal 0 0 -1
    outer loop
      vertex -8.88962 -7.29552 0
      vertex -16.1601 -13.9063 0
      vertex -9.5619 -6.38906 0
    endloop
  endfacet
  facet normal 0 0 -1
    outer loop
      vertex -13.9063 16.1601 0
      vertex -14.2802 16.7198 0
      vertex 18.5315 21.15 0
    endloop
  endfacet
  facet normal 0 0 -1
    outer loop
      vertex -15.5 17.225 0
      vertex -18.5315 21.15 0
      vertex -14.8399 17.0937 0
    endloop
  endfacet
  facet normal 0 0 -1
    outer loop
      vertex -16.1601 17.0937 0
      vertex -18.5315 21.15 0
      vertex -15.5 17.225 0
    endloop
  endfacet
  facet normal 0 0 -1
    outer loop
      vertex -16.7198 16.7198 0
      vertex -18.5315 21.15 0
      vertex -16.1601 17.0937 0
    endloop
  endfacet
  facet normal 0 0 -1
    outer loop
      vertex -17.0937 16.1601 0
      vertex -18.5315 21.15 0
      vertex -16.7198 16.7198 0
    endloop
  endfacet
  facet normal 0 0 -1
    outer loop
      vertex -17.225 15.5 0
      vertex -18.5315 21.15 0
      vertex -17.0937 16.1601 0
    endloop
  endfacet
  facet normal 0 0 -1
    outer loop
      vertex -16.1601 -13.9063 0
      vertex -14.8399 13.9063 0
      vertex -11.5 0 0
    endloop
  endfacet
  facet normal 0 0 -1
    outer loop
      vertex -16.1601 -13.9063 0
      vertex -11.5 0 0
      vertex -11.4446 -1.1272 0
    endloop
  endfacet
  facet normal 0 0 -1
    outer loop
      vertex 13.9063 -14.8399 0
      vertex 5.42106 -10.1421 0
      vertex 6.38906 -9.5619 0
    endloop
  endfacet
  facet normal 0 0 -1
    outer loop
      vertex -16.1601 -13.9063 0
      vertex -11.4446 -1.1272 0
      vertex -11.279 -2.24354 0
    endloop
  endfacet
  facet normal 0 0 -1
    outer loop
      vertex -16.1601 -13.9063 0
      vertex -11.279 -2.24354 0
      vertex -11.0048 -3.33827 0
    endloop
  endfacet
  facet normal 0 0 -1
    outer loop
      vertex -16.1601 -13.9063 0
      vertex -11.0048 -3.33827 0
      vertex -10.6246 -4.40086 0
    endloop
  endfacet
  facet normal 0 0 -1
    outer loop
      vertex -16.1601 -13.9063 0
      vertex -10.6246 -4.40086 0
      vertex -10.1421 -5.42106 0
    endloop
  endfacet
  facet normal 0 0 -1
    outer loop
      vertex -16.1601 -13.9063 0
      vertex -10.1421 -5.42106 0
      vertex -9.5619 -6.38906 0
    endloop
  endfacet
  facet normal 0 0 -1
    outer loop
      vertex -8.13173 -8.13173 0
      vertex -14.8399 -13.9063 0
      vertex -8.88962 -7.29552 0
    endloop
  endfacet
  facet normal 0 0 -1
    outer loop
      vertex 13.775 15.5 0
      vertex 7.29552 8.88962 0
      vertex 13.9063 16.1601 0
    endloop
  endfacet
  facet normal 0 0 -1
    outer loop
      vertex -14.2802 -16.7198 0
      vertex -6.38906 -9.5619 0
      vertex -5.42106 -10.1421 0
    endloop
  endfacet
  facet normal 0 0 -1
    outer loop
      vertex 0 -11.5 0
      vertex 13.9063 -16.1601 0
      vertex -1.1272 -11.4446 0
    endloop
  endfacet
  facet normal 0 0 -1
    outer loop
      vertex -14.2802 -16.7198 0
      vertex -5.42106 -10.1421 0
      vertex -4.40086 -10.6246 0
    endloop
  endfacet
  facet normal 0 0 -1
    outer loop
      vertex -14.2802 -16.7198 0
      vertex -4.40086 -10.6246 0
      vertex -3.33827 -11.0048 0
    endloop
  endfacet
  facet normal 0 0 -1
    outer loop
      vertex 16.7198 14.2802 0
      vertex 21.15 18.5315 0
      vertex 9.5619 6.38906 0
    endloop
  endfacet
  facet normal 0 0 -1
    outer loop
      vertex 14.2802 -16.7198 0
      vertex -3.33827 -11.0048 0
      vertex -2.24354 -11.279 0
    endloop
  endfacet
  facet normal 0 0 -1
    outer loop
      vertex 8.88962 7.29552 0
      vertex 16.7198 14.2802 0
      vertex 9.5619 6.38906 0
    endloop
  endfacet
  facet normal 0 0 -1
    outer loop
      vertex 14.2802 -16.7198 0
      vertex -2.24354 -11.279 0
      vertex -1.1272 -11.4446 0
    endloop
  endfacet
  facet normal 0 0 -1
    outer loop
      vertex 10.6246 4.40086 0
      vertex 21.15 18.5315 0
      vertex 11.0048 3.33827 0
    endloop
  endfacet
  facet normal 0 0 -1
    outer loop
      vertex 14.2802 -16.7198 0
      vertex -1.1272 -11.4446 0
      vertex 13.9063 -16.1601 0
    endloop
  endfacet
  facet normal 0 0 -1
    outer loop
      vertex 11.0048 3.33827 0
      vertex 21.15 18.5315 0
      vertex 11.279 2.24354 0
    endloop
  endfacet
  facet normal 0 0 -1
    outer loop
      vertex 13.9063 -16.1601 0
      vertex 0 -11.5 0
      vertex 1.1272 -11.4446 0
    endloop
  endfacet
  facet normal 0 0 -1
    outer loop
      vertex 13.9063 -16.1601 0
      vertex 1.1272 -11.4446 0
      vertex 2.24354 -11.279 0
    endloop
  endfacet
  facet normal 0 0 -1
    outer loop
      vertex 11.279 2.24354 0
      vertex 21.15 18.5315 0
      vertex 11.4446 1.1272 0
    endloop
  endfacet
  facet normal 0 0 -1
    outer loop
      vertex 11.4446 1.1272 0
      vertex 21.15 18.5315 0
      vertex 11.5 0 0
    endloop
  endfacet
  facet normal 0 0 -1
    outer loop
      vertex 11.5 0 0
      vertex 21.15 18.5315 0
      vertex 11.4446 -1.1272 0
    endloop
  endfacet
  facet normal 0 0 -1
    outer loop
      vertex 11.4446 -1.1272 0
      vertex 21.15 18.5315 0
      vertex 11.279 -2.24354 0
    endloop
  endfacet
  facet normal 0 0 -1
    outer loop
      vertex 16.7198 -14.2802 0
      vertex 9.5619 -6.38906 0
      vertex 21.15 -18.5315 0
    endloop
  endfacet
  facet normal 0 0 -1
    outer loop
      vertex 11.279 -2.24354 0
      vertex 21.15 18.5315 0
      vertex 11.0048 -3.33827 0
    endloop
  endfacet
  facet normal 0 0 -1
    outer loop
      vertex 9.5619 -6.38906 0
      vertex 10.1421 -5.42106 0
      vertex 21.15 -18.5315 0
    endloop
  endfacet
  facet normal 0 0 -1
    outer loop
      vertex 10.1421 -5.42106 0
      vertex 10.6246 -4.40086 0
      vertex 21.15 -18.5315 0
    endloop
  endfacet
  facet normal 0 0 -1
    outer loop
      vertex 10.1421 5.42106 0
      vertex 21.15 18.5315 0
      vertex 10.6246 4.40086 0
    endloop
  endfacet
  facet normal 0 0 -1
    outer loop
      vertex 9.5619 6.38906 0
      vertex 21.15 18.5315 0
      vertex 10.1421 5.42106 0
    endloop
  endfacet
  facet normal 0 0 -1
    outer loop
      vertex 13.9063 14.8399 0
      vertex 14.2802 14.2802 0
      vertex 8.13173 8.13173 0
    endloop
  endfacet
  facet normal 0 0 -1
    outer loop
      vertex 16.1601 13.9063 0
      vertex 8.88962 7.29552 0
      vertex 8.13173 8.13173 0
    endloop
  endfacet
  facet normal 0 0 -1
    outer loop
      vertex 6.38906 9.5619 0
      vertex 18.5315 21.15 0
      vertex 14.2802 16.7198 0
    endloop
  endfacet
  facet normal 0 0 -1
    outer loop
      vertex -7.29552 -8.88962 0
      vertex -14.2802 -14.2802 0
      vertex -8.13173 -8.13173 0
    endloop
  endfacet
  facet normal 0 0 -1
    outer loop
      vertex 5.42106 10.1421 0
      vertex 18.5315 21.15 0
      vertex 6.38906 9.5619 0
    endloop
  endfacet
  facet normal 0 0 -1
    outer loop
      vertex 4.40086 10.6246 0
      vertex 18.5315 21.15 0
      vertex 5.42106 10.1421 0
    endloop
  endfacet
  facet normal 0 0 -1
    outer loop
      vertex 3.33827 11.0048 0
      vertex 18.5315 21.15 0
      vertex 4.40086 10.6246 0
    endloop
  endfacet
  facet normal 0 0 -1
    outer loop
      vertex 13.775 -15.5 0
      vertex 3.33827 -11.0048 0
      vertex 4.40086 -10.6246 0
    endloop
  endfacet
  facet normal 0 0 -1
    outer loop
      vertex 0 11.5 0
      vertex -14.8399 13.9063 0
      vertex 1.1272 11.4446 0
    endloop
  endfacet
  facet normal 0 0 -1
    outer loop
      vertex 1.1272 11.4446 0
      vertex -14.8399 13.9063 0
      vertex 2.24354 11.279 0
    endloop
  endfacet
  facet normal 0 0 -1
    outer loop
      vertex 3.33827 11.0048 0
      vertex 2.24354 11.279 0
      vertex 18.5315 21.15 0
    endloop
  endfacet
  facet normal 0 0 -1
    outer loop
      vertex 13.775 -15.5 0
      vertex 4.40086 -10.6246 0
      vertex 13.9063 -14.8399 0
    endloop
  endfacet
  facet normal 0 0 -1
    outer loop
      vertex -1.1272 11.4446 0
      vertex -14.8399 13.9063 0
      vertex 0 11.5 0
    endloop
  endfacet
  facet normal 0 0 -1
    outer loop
      vertex -2.24354 11.279 0
      vertex -14.8399 13.9063 0
      vertex -1.1272 11.4446 0
    endloop
  endfacet
  facet normal 0 0 -1
    outer loop
      vertex -3.33827 11.0048 0
      vertex -14.8399 13.9063 0
      vertex -2.24354 11.279 0
    endloop
  endfacet
  facet normal 0 0 -1
    outer loop
      vertex -4.40086 10.6246 0
      vertex -14.8399 13.9063 0
      vertex -3.33827 11.0048 0
    endloop
  endfacet
  facet normal 0 0 -1
    outer loop
      vertex -5.42106 10.1421 0
      vertex -14.8399 13.9063 0
      vertex -4.40086 10.6246 0
    endloop
  endfacet
  facet normal 0 0 -1
    outer loop
      vertex -6.38906 9.5619 0
      vertex -14.8399 13.9063 0
      vertex -5.42106 10.1421 0
    endloop
  endfacet
  facet normal 0 0 -1
    outer loop
      vertex -7.29552 8.88962 0
      vertex -14.8399 13.9063 0
      vertex -6.38906 9.5619 0
    endloop
  endfacet
  facet normal 0 0 -1
    outer loop
      vertex -8.13173 8.13173 0
      vertex -14.8399 13.9063 0
      vertex -7.29552 8.88962 0
    endloop
  endfacet
  facet normal 0 0 -1
    outer loop
      vertex -8.88962 7.29552 0
      vertex -14.8399 13.9063 0
      vertex -8.13173 8.13173 0
    endloop
  endfacet
  facet normal 0 0 -1
    outer loop
      vertex -9.5619 6.38906 0
      vertex -14.8399 13.9063 0
      vertex -8.88962 7.29552 0
    endloop
  endfacet
  facet normal 0 0 -1
    outer loop
      vertex -10.1421 5.42106 0
      vertex -14.8399 13.9063 0
      vertex -9.5619 6.38906 0
    endloop
  endfacet
  facet normal 0 0 -1
    outer loop
      vertex -10.6246 4.40086 0
      vertex -14.8399 13.9063 0
      vertex -10.1421 5.42106 0
    endloop
  endfacet
  facet normal 0 0 -1
    outer loop
      vertex -11.0048 3.33827 0
      vertex -14.8399 13.9063 0
      vertex -10.6246 4.40086 0
    endloop
  endfacet
  facet normal 0 0 -1
    outer loop
      vertex -11.279 2.24354 0
      vertex -14.8399 13.9063 0
      vertex -11.0048 3.33827 0
    endloop
  endfacet
  facet normal 0 0 -1
    outer loop
      vertex -11.4446 1.1272 0
      vertex -14.8399 13.9063 0
      vertex -11.279 2.24354 0
    endloop
  endfacet
  facet normal 0 0 -1
    outer loop
      vertex -11.5 0 0
      vertex -14.8399 13.9063 0
      vertex -11.4446 1.1272 0
    endloop
  endfacet
  facet normal 0 0 -1
    outer loop
      vertex 2.24354 -11.279 0
      vertex 3.33827 -11.0048 0
      vertex 13.775 -15.5 0
    endloop
  endfacet
  facet normal 0 0 -1
    outer loop
      vertex 13.9063 -14.8399 0
      vertex 6.38906 -9.5619 0
      vertex 14.2802 -14.2802 0
    endloop
  endfacet
  facet normal 0 0 -1
    outer loop
      vertex 11.0048 -3.33827 0
      vertex 21.15 18.5315 0
      vertex 10.6246 -4.40086 0
    endloop
  endfacet
  facet normal 0 0 -1
    outer loop
      vertex -14.2802 -16.7198 0
      vertex -3.33827 -11.0048 0
      vertex 14.2802 -16.7198 0
    endloop
  endfacet
  facet normal 0 0 -1
    outer loop
      vertex -14.2802 -16.7198 0
      vertex 14.2802 -16.7198 0
      vertex 14.8399 -17.0937 0
    endloop
  endfacet
  facet normal 0 0 -1
    outer loop
      vertex -14.2802 -16.7198 0
      vertex 14.8399 -17.0937 0
      vertex 21.15 -18.5315 0
    endloop
  endfacet
  facet normal 0 0 -1
    outer loop
      vertex 14.8399 -17.0937 0
      vertex 15.5 -17.225 0
      vertex 21.15 -18.5315 0
    endloop
  endfacet
  facet normal 0 0 -1
    outer loop
      vertex 16.1601 -17.0937 0
      vertex 21.15 -18.5315 0
      vertex 15.5 -17.225 0
    endloop
  endfacet
  facet normal 0 0 -1
    outer loop
      vertex 16.7198 -16.7198 0
      vertex 21.15 -18.5315 0
      vertex 16.1601 -17.0937 0
    endloop
  endfacet
  facet normal 0 0 -1
    outer loop
      vertex 17.225 -15.5 0
      vertex 21.15 -18.5315 0
      vertex 17.0937 -16.1601 0
    endloop
  endfacet
  facet normal 0 0 -1
    outer loop
      vertex 14.2802 -14.2802 0
      vertex 7.29552 -8.88962 0
      vertex 14.8399 -13.9063 0
    endloop
  endfacet
  facet normal 0 0 -1
    outer loop
      vertex 17.0937 -14.8399 0
      vertex 21.15 -18.5315 0
      vertex 17.225 -15.5 0
    endloop
  endfacet
  facet normal 0 0 -1
    outer loop
      vertex 16.7198 -14.2802 0
      vertex 21.15 -18.5315 0
      vertex 17.0937 -14.8399 0
    endloop
  endfacet
  facet normal 0 0 -1
    outer loop
      vertex 8.88962 -7.29552 0
      vertex 9.5619 -6.38906 0
      vertex 16.7198 -14.2802 0
    endloop
  endfacet
  facet normal 0 0 -1
    outer loop
      vertex 15.5 -13.775 0
      vertex 8.13173 -8.13173 0
      vertex 8.88962 -7.29552 0
    endloop
  endfacet
  facet normal 0 0 -1
    outer loop
      vertex 8.88962 -7.29552 0
      vertex 16.7198 -14.2802 0
      vertex 16.1601 -13.9063 0
    endloop
  endfacet
  facet normal 0 0 -1
    outer loop
      vertex 15.5 -13.775 0
      vertex 8.88962 -7.29552 0
      vertex 16.1601 -13.9063 0
    endloop
  endfacet
  facet normal 0 0 -1
    outer loop
      vertex 14.8399 -13.9063 0
      vertex 8.13173 -8.13173 0
      vertex 15.5 -13.775 0
    endloop
  endfacet
  facet normal 0 0 -1
    outer loop
      vertex 7.29552 -8.88962 0
      vertex 8.13173 -8.13173 0
      vertex 14.8399 -13.9063 0
    endloop
  endfacet
  facet normal 0 0 -1
    outer loop
      vertex 6.38906 -9.5619 0
      vertex 7.29552 -8.88962 0
      vertex 14.2802 -14.2802 0
    endloop
  endfacet
  facet normal 0 0 -1
    outer loop
      vertex 4.40086 -10.6246 0
      vertex 5.42106 -10.1421 0
      vertex 13.9063 -14.8399 0
    endloop
  endfacet
  facet normal 0 0 -1
    outer loop
      vertex 13.9063 -16.1601 0
      vertex 2.24354 -11.279 0
      vertex 13.775 -15.5 0
    endloop
  endfacet
  facet normal 0 0 -1
    outer loop
      vertex 6.38906 9.5619 0
      vertex 13.9063 16.1601 0
      vertex 7.29552 8.88962 0
    endloop
  endfacet
  facet normal 0 0 -1
    outer loop
      vertex 15.5 17.225 0
      vertex 18.5315 21.15 0
      vertex 16.1601 17.0937 0
    endloop
  endfacet
  facet normal 0 0 -1
    outer loop
      vertex 15.5 13.775 0
      vertex 8.13173 8.13173 0
      vertex 14.8399 13.9063 0
    endloop
  endfacet
  facet normal 0 0 -1
    outer loop
      vertex 8.13173 8.13173 0
      vertex 14.2802 14.2802 0
      vertex 14.8399 13.9063 0
    endloop
  endfacet
  facet normal 0 0 -1
    outer loop
      vertex 8.88962 7.29552 0
      vertex 16.1601 13.9063 0
      vertex 16.7198 14.2802 0
    endloop
  endfacet
  facet normal 0 0 -1
    outer loop
      vertex 13.9063 14.8399 0
      vertex 8.13173 8.13173 0
      vertex 13.775 15.5 0
    endloop
  endfacet
  facet normal 0 0 -1
    outer loop
      vertex 7.29552 8.88962 0
      vertex 13.775 15.5 0
      vertex 8.13173 8.13173 0
    endloop
  endfacet
  facet normal 0 0 -1
    outer loop
      vertex 17.225 15.5 0
      vertex 21.15 18.5315 0
      vertex 17.0937 14.8399 0
    endloop
  endfacet
  facet normal 0 0 -1
    outer loop
      vertex 16.1601 13.9063 0
      vertex 8.13173 8.13173 0
      vertex 15.5 13.775 0
    endloop
  endfacet
  facet normal 0 0 -1
    outer loop
      vertex 16.7198 16.7198 0
      vertex 19.9051 19.9051 0
      vertex 17.0937 16.1601 0
    endloop
  endfacet
  facet normal 0 0 -1
    outer loop
      vertex 16.1601 17.0937 0
      vertex 19.9051 19.9051 0
      vertex 16.7198 16.7198 0
    endloop
  endfacet
  facet normal 0 0 -1
    outer loop
      vertex 18.5315 21.15 0
      vertex 19.9051 19.9051 0
      vertex 16.1601 17.0937 0
    endloop
  endfacet
  facet normal 0 0 -1
    outer loop
      vertex 14.8399 17.0937 0
      vertex 18.5315 21.15 0
      vertex 15.5 17.225 0
    endloop
  endfacet
  facet normal 0 0 -1
    outer loop
      vertex 17.0937 16.1601 0
      vertex 21.15 18.5315 0
      vertex 17.225 15.5 0
    endloop
  endfacet
  facet normal 0 0 -1
    outer loop
      vertex 14.2802 16.7198 0
      vertex 18.5315 21.15 0
      vertex 14.8399 17.0937 0
    endloop
  endfacet
  facet normal 0 0 -1
    outer loop
      vertex 6.38906 9.5619 0
      vertex 14.2802 16.7198 0
      vertex 13.9063 16.1601 0
    endloop
  endfacet
  facet normal 0 0 -1
    outer loop
      vertex 17.0937 14.8399 0
      vertex 21.15 18.5315 0
      vertex 16.7198 14.2802 0
    endloop
  endfacet
  facet normal 0 0 -1
    outer loop
      vertex -16.7198 -16.7198 0
      vertex -19.9051 -19.9051 0
      vertex -17.0937 -16.1601 0
    endloop
  endfacet
  facet normal -0.740951 0.671559 0
    outer loop
      vertex -21.15 18.5315 0
      vertex -21.15 18.5315 2
      vertex -19.9051 19.9051 0
    endloop
  endfacet
  facet normal -0.740951 0.671559 0
    outer loop
      vertex -19.9051 19.9051 0
      vertex -21.15 18.5315 2
      vertex -19.9051 19.9051 2
    endloop
  endfacet
  facet normal 0 0 1
    outer loop
      vertex -21.15 18.5315 2
      vertex -21.15 -18.5315 2
      vertex -19.9051 -19.9051 2
    endloop
  endfacet
  facet normal 0 0 1
    outer loop
      vertex -17.225 -15.5 2
      vertex -21.15 18.5315 2
      vertex -18.5315 -21.15 2
    endloop
  endfacet
  facet normal 0 0 1
    outer loop
      vertex -18.5315 -21.15 2
      vertex -21.15 18.5315 2
      vertex -19.9051 -19.9051 2
    endloop
  endfacet
  facet normal 0 0 1
    outer loop
      vertex -8.13173 8.13173 2
      vertex -7.29552 8.88962 2
      vertex -13.9063 14.8399 2
    endloop
  endfacet
  facet normal 0 0 1
    outer loop
      vertex -15.5 17.225 2
      vertex -14.8399 17.0937 2
      vertex 21.15 18.5315 2
    endloop
  endfacet
  facet normal 0 0 1
    outer loop
      vertex 19.9051 19.9051 2
      vertex -21.15 18.5315 2
      vertex 21.15 18.5315 2
    endloop
  endfacet
  facet normal 0 0 1
    outer loop
      vertex 18.5315 21.15 2
      vertex -21.15 18.5315 2
      vertex 19.9051 19.9051 2
    endloop
  endfacet
  facet normal 0 0 1
    outer loop
      vertex -18.5315 21.15 2
      vertex -21.15 18.5315 2
      vertex 18.5315 21.15 2
    endloop
  endfacet
  facet normal 0 0 1
    outer loop
      vertex -19.9051 19.9051 2
      vertex -21.15 18.5315 2
      vertex -18.5315 21.15 2
    endloop
  endfacet
  facet normal 0 0 1
    outer loop
      vertex -16.7198 -16.7198 2
      vertex -17.0937 -16.1601 2
      vertex -18.5315 -21.15 2
    endloop
  endfacet
  facet normal 0 0 1
    outer loop
      vertex -17.0937 -16.1601 2
      vertex -17.225 -15.5 2
      vertex -18.5315 -21.15 2
    endloop
  endfacet
  facet normal 0 0 1
    outer loop
      vertex -14.8399 -13.9063 2
      vertex -14.2802 -14.2802 2
      vertex 18.5315 -21.15 2
    endloop
  endfacet
  facet normal 0 0 1
    outer loop
      vertex -16.7198 -14.2802 2
      vertex -21.15 18.5315 2
      vertex -17.0937 -14.8399 2
    endloop
  endfacet
  facet normal 0 0 1
    outer loop
      vertex -16.1601 -13.9063 2
      vertex -21.15 18.5315 2
      vertex -16.7198 -14.2802 2
    endloop
  endfacet
  facet normal 0 0 1
    outer loop
      vertex -13.9063 -14.8399 2
      vertex -13.775 -15.5 2
      vertex 18.5315 -21.15 2
    endloop
  endfacet
  facet normal 0 0 1
    outer loop
      vertex -15.5 -13.775 2
      vertex -21.15 18.5315 2
      vertex -16.1601 -13.9063 2
    endloop
  endfacet
  facet normal 0 0 1
    outer loop
      vertex -14.8399 -13.9063 2
      vertex -21.15 18.5315 2
      vertex -15.5 -13.775 2
    endloop
  endfacet
  facet normal 0 0 1
    outer loop
      vertex -11.4446 -1.1272 2
      vertex -21.15 18.5315 2
      vertex -14.8399 -13.9063 2
    endloop
  endfacet
  facet normal 0 0 1
    outer loop
      vertex -16.7198 14.2802 2
      vertex -17.0937 14.8399 2
      vertex -21.15 18.5315 2
    endloop
  endfacet
  facet normal 0 0 1
    outer loop
      vertex -13.9063 -16.1601 2
      vertex -14.2802 -16.7198 2
      vertex 18.5315 -21.15 2
    endloop
  endfacet
  facet normal 0 0 1
    outer loop
      vertex 18.5315 -21.15 2
      vertex -13.775 -15.5 2
      vertex -13.9063 -16.1601 2
    endloop
  endfacet
  facet normal 0 0 1
    outer loop
      vertex 18.5315 -21.15 2
      vertex -14.2802 -16.7198 2
      vertex -18.5315 -21.15 2
    endloop
  endfacet
  facet normal 0 0 1
    outer loop
      vertex 8.13173 -8.13173 2
      vertex 7.29552 -8.88962 2
      vertex 14.2802 -14.2802 2
    endloop
  endfacet
  facet normal 0 0 1
    outer loop
      vertex -14.2802 -16.7198 2
      vertex -14.8399 -17.0937 2
      vertex -18.5315 -21.15 2
    endloop
  endfacet
  facet normal 0 0 1
    outer loop
      vertex -14.8399 -17.0937 2
      vertex -15.5 -17.225 2
      vertex -18.5315 -21.15 2
    endloop
  endfacet
  facet normal 0 0 1
    outer loop
      vertex -15.5 -17.225 2
      vertex -16.1601 -17.0937 2
      vertex -18.5315 -21.15 2
    endloop
  endfacet
  facet normal 0 0 1
    outer loop
      vertex -16.1601 -17.0937 2
      vertex -16.7198 -16.7198 2
      vertex -18.5315 -21.15 2
    endloop
  endfacet
  facet normal 0 0 1
    outer loop
      vertex 14.2802 14.2802 2
      vertex 13.9063 14.8399 2
      vertex 5.42106 10.1421 2
    endloop
  endfacet
  facet normal 0 0 1
    outer loop
      vertex -17.0937 16.1601 2
      vertex -21.15 18.5315 2
      vertex -17.225 15.5 2
    endloop
  endfacet
  facet normal 0 0 1
    outer loop
      vertex -16.7198 16.7198 2
      vertex -21.15 18.5315 2
      vertex -17.0937 16.1601 2
    endloop
  endfacet
  facet normal 0 0 1
    outer loop
      vertex -16.1601 17.0937 2
      vertex -21.15 18.5315 2
      vertex -16.7198 16.7198 2
    endloop
  endfacet
  facet normal 0 0 1
    outer loop
      vertex -15.5 17.225 2
      vertex -21.15 18.5315 2
      vertex -16.1601 17.0937 2
    endloop
  endfacet
  facet normal 0 0 1
    outer loop
      vertex -14.8399 17.0937 2
      vertex -14.2802 16.7198 2
      vertex 21.15 18.5315 2
    endloop
  endfacet
  facet normal 0 0 1
    outer loop
      vertex 21.15 18.5315 2
      vertex -21.15 18.5315 2
      vertex -15.5 17.225 2
    endloop
  endfacet
  facet normal 0 0 1
    outer loop
      vertex -14.2802 16.7198 2
      vertex -13.9063 16.1601 2
      vertex 21.15 18.5315 2
    endloop
  endfacet
  facet normal 0 0 1
    outer loop
      vertex -13.9063 16.1601 2
      vertex -13.775 15.5 2
      vertex 21.15 18.5315 2
    endloop
  endfacet
  facet normal 0 0 1
    outer loop
      vertex -7.29552 8.88962 2
      vertex -6.38906 9.5619 2
      vertex -13.775 15.5 2
    endloop
  endfacet
  facet normal 0 0 1
    outer loop
      vertex 9.5619 -6.38906 2
      vertex 8.88962 -7.29552 2
      vertex 16.1601 -13.9063 2
    endloop
  endfacet
  facet normal 0 0 1
    outer loop
      vertex 6.38906 -9.5619 2
      vertex 5.42106 -10.1421 2
      vertex 18.5315 -21.15 2
    endloop
  endfacet
  facet normal 0 0 1
    outer loop
      vertex -8.13173 8.13173 2
      vertex -13.9063 14.8399 2
      vertex -14.2802 14.2802 2
    endloop
  endfacet
  facet normal 0 0 1
    outer loop
      vertex -17.0937 14.8399 2
      vertex -17.225 15.5 2
      vertex -21.15 18.5315 2
    endloop
  endfacet
  facet normal 0 0 1
    outer loop
      vertex -11.279 -2.24354 2
      vertex -11.4446 -1.1272 2
      vertex -14.8399 -13.9063 2
    endloop
  endfacet
  facet normal 0 0 1
    outer loop
      vertex -11.5 0 2
      vertex -21.15 18.5315 2
      vertex -11.4446 -1.1272 2
    endloop
  endfacet
  facet normal 0 0 1
    outer loop
      vertex 1.1272 -11.4446 2
      vertex 0 -11.5 2
      vertex -14.8399 -13.9063 2
    endloop
  endfacet
  facet normal 0 0 1
    outer loop
      vertex -11.4446 1.1272 2
      vertex -21.15 18.5315 2
      vertex -11.5 0 2
    endloop
  endfacet
  facet normal 0 0 1
    outer loop
      vertex 13.9063 -16.1601 2
      vertex 13.775 -15.5 2
      vertex 7.29552 -8.88962 2
    endloop
  endfacet
  facet normal 0 0 1
    outer loop
      vertex -11.279 2.24354 2
      vertex -21.15 18.5315 2
      vertex -11.4446 1.1272 2
    endloop
  endfacet
  facet normal 0 0 1
    outer loop
      vertex -11.0048 3.33827 2
      vertex -21.15 18.5315 2
      vertex -11.279 2.24354 2
    endloop
  endfacet
  facet normal 0 0 1
    outer loop
      vertex -10.6246 4.40086 2
      vertex -21.15 18.5315 2
      vertex -11.0048 3.33827 2
    endloop
  endfacet
  facet normal 0 0 1
    outer loop
      vertex -10.1421 5.42106 2
      vertex -21.15 18.5315 2
      vertex -10.6246 4.40086 2
    endloop
  endfacet
  facet normal 0 0 1
    outer loop
      vertex -9.5619 6.38906 2
      vertex -21.15 18.5315 2
      vertex -10.1421 5.42106 2
    endloop
  endfacet
  facet normal 0 0 1
    outer loop
      vertex 4.40086 -10.6246 2
      vertex 3.33827 -11.0048 2
      vertex 18.5315 -21.15 2
    endloop
  endfacet
  facet normal 0 0 1
    outer loop
      vertex -14.2802 14.2802 2
      vertex -14.8399 13.9063 2
      vertex -8.13173 8.13173 2
    endloop
  endfacet
  facet normal 0 0 1
    outer loop
      vertex 16.7198 16.7198 2
      vertex 17.0937 16.1601 2
      vertex 21.15 18.5315 2
    endloop
  endfacet
  facet normal 0 0 1
    outer loop
      vertex -13.775 15.5 2
      vertex -13.9063 14.8399 2
      vertex -7.29552 8.88962 2
    endloop
  endfacet
  facet normal 0 0 1
    outer loop
      vertex 17.225 -15.5 2
      vertex 17.0937 -16.1601 2
      vertex 21.15 -18.5315 2
    endloop
  endfacet
  facet normal 0 0 1
    outer loop
      vertex -5.42106 10.1421 2
      vertex -13.775 15.5 2
      vertex -6.38906 9.5619 2
    endloop
  endfacet
  facet normal 0 0 1
    outer loop
      vertex -4.40086 10.6246 2
      vertex -13.775 15.5 2
      vertex -5.42106 10.1421 2
    endloop
  endfacet
  facet normal 0 0 1
    outer loop
      vertex -3.33827 11.0048 2
      vertex -13.775 15.5 2
      vertex -4.40086 10.6246 2
    endloop
  endfacet
  facet normal 0 0 1
    outer loop
      vertex 14.2802 16.7198 2
      vertex -13.775 15.5 2
      vertex -3.33827 11.0048 2
    endloop
  endfacet
  facet normal 0 0 1
    outer loop
      vertex 11.0048 3.33827 2
      vertex 11.279 2.24354 2
      vertex 21.15 -18.5315 2
    endloop
  endfacet
  facet normal 0 0 1
    outer loop
      vertex 9.5619 -6.38906 2
      vertex 16.7198 -14.2802 2
      vertex 21.15 -18.5315 2
    endloop
  endfacet
  facet normal 0 0 1
    outer loop
      vertex 13.9063 16.1601 2
      vertex -2.24354 11.279 2
      vertex -1.1272 11.4446 2
    endloop
  endfacet
  facet normal 0 0 1
    outer loop
      vertex 11.279 -2.24354 2
      vertex 11.0048 -3.33827 2
      vertex 21.15 -18.5315 2
    endloop
  endfacet
  facet normal 0 0 1
    outer loop
      vertex 13.775 15.5 2
      vertex 2.24354 11.279 2
      vertex 3.33827 11.0048 2
    endloop
  endfacet
  facet normal 0 0 1
    outer loop
      vertex 11.0048 -3.33827 2
      vertex 10.6246 -4.40086 2
      vertex 21.15 -18.5315 2
    endloop
  endfacet
  facet normal 0 0 1
    outer loop
      vertex 13.9063 14.8399 2
      vertex 4.40086 10.6246 2
      vertex 5.42106 10.1421 2
    endloop
  endfacet
  facet normal 0 0 1
    outer loop
      vertex 11.4446 -1.1272 2
      vertex 11.279 -2.24354 2
      vertex 21.15 -18.5315 2
    endloop
  endfacet
  facet normal 0 0 1
    outer loop
      vertex 13.9063 14.8399 2
      vertex 13.775 15.5 2
      vertex 3.33827 11.0048 2
    endloop
  endfacet
  facet normal 0 0 1
    outer loop
      vertex 14.2802 14.2802 2
      vertex 6.38906 9.5619 2
      vertex 7.29552 8.88962 2
    endloop
  endfacet
  facet normal 0 0 1
    outer loop
      vertex 11.4446 1.1272 2
      vertex 11.5 0 2
      vertex 21.15 -18.5315 2
    endloop
  endfacet
  facet normal 0 0 1
    outer loop
      vertex 14.8399 13.9063 2
      vertex 7.29552 8.88962 2
      vertex 8.13173 8.13173 2
    endloop
  endfacet
  facet normal 0 0 1
    outer loop
      vertex 11.279 2.24354 2
      vertex 11.4446 1.1272 2
      vertex 21.15 -18.5315 2
    endloop
  endfacet
  facet normal 0 0 1
    outer loop
      vertex 15.5 13.775 2
      vertex 14.8399 13.9063 2
      vertex 8.13173 8.13173 2
    endloop
  endfacet
  facet normal 0 0 1
    outer loop
      vertex 11.5 0 2
      vertex 11.4446 -1.1272 2
      vertex 21.15 -18.5315 2
    endloop
  endfacet
  facet normal 0 0 1
    outer loop
      vertex 16.7198 14.2802 2
      vertex 8.88962 7.29552 2
      vertex 9.5619 6.38906 2
    endloop
  endfacet
  facet normal 0 0 1
    outer loop
      vertex 21.15 18.5315 2
      vertex 9.5619 6.38906 2
      vertex 10.1421 5.42106 2
    endloop
  endfacet
  facet normal 0 0 1
    outer loop
      vertex 21.15 18.5315 2
      vertex 10.6246 4.40086 2
      vertex 21.15 -18.5315 2
    endloop
  endfacet
  facet normal 0 0 1
    outer loop
      vertex 21.15 18.5315 2
      vertex 10.1421 5.42106 2
      vertex 10.6246 4.40086 2
    endloop
  endfacet
  facet normal 0 0 1
    outer loop
      vertex 10.6246 -4.40086 2
      vertex 10.1421 -5.42106 2
      vertex 21.15 -18.5315 2
    endloop
  endfacet
  facet normal 0 0 1
    outer loop
      vertex 10.1421 -5.42106 2
      vertex 9.5619 -6.38906 2
      vertex 21.15 -18.5315 2
    endloop
  endfacet
  facet normal 0 0 1
    outer loop
      vertex 8.88962 -7.29552 2
      vertex 8.13173 -8.13173 2
      vertex 15.5 -13.775 2
    endloop
  endfacet
  facet normal 0 0 1
    outer loop
      vertex 14.8399 -13.9063 2
      vertex 8.13173 -8.13173 2
      vertex 14.2802 -14.2802 2
    endloop
  endfacet
  facet normal 0 0 1
    outer loop
      vertex -8.88962 7.29552 2
      vertex -14.8399 13.9063 2
      vertex -15.5 13.775 2
    endloop
  endfacet
  facet normal 0 0 1
    outer loop
      vertex 5.42106 -10.1421 2
      vertex 4.40086 -10.6246 2
      vertex 18.5315 -21.15 2
    endloop
  endfacet
  facet normal 0 0 1
    outer loop
      vertex 14.2802 14.2802 2
      vertex 5.42106 10.1421 2
      vertex 6.38906 9.5619 2
    endloop
  endfacet
  facet normal 0 0 1
    outer loop
      vertex 18.5315 -21.15 2
      vertex 2.24354 -11.279 2
      vertex -14.8399 -13.9063 2
    endloop
  endfacet
  facet normal 0 0 1
    outer loop
      vertex 18.5315 -21.15 2
      vertex 3.33827 -11.0048 2
      vertex 2.24354 -11.279 2
    endloop
  endfacet
  facet normal 0 0 1
    outer loop
      vertex 2.24354 -11.279 2
      vertex 1.1272 -11.4446 2
      vertex -14.8399 -13.9063 2
    endloop
  endfacet
  facet normal 0 0 1
    outer loop
      vertex 17.225 15.5 2
      vertex 17.0937 14.8399 2
      vertex 21.15 18.5315 2
    endloop
  endfacet
  facet normal 0 0 1
    outer loop
      vertex 0 -11.5 2
      vertex -1.1272 -11.4446 2
      vertex -14.8399 -13.9063 2
    endloop
  endfacet
  facet normal 0 0 1
    outer loop
      vertex -1.1272 -11.4446 2
      vertex -2.24354 -11.279 2
      vertex -14.8399 -13.9063 2
    endloop
  endfacet
  facet normal 0 0 1
    outer loop
      vertex -2.24354 -11.279 2
      vertex -3.33827 -11.0048 2
      vertex -14.8399 -13.9063 2
    endloop
  endfacet
  facet normal 0 0 1
    outer loop
      vertex -3.33827 -11.0048 2
      vertex -4.40086 -10.6246 2
      vertex -14.8399 -13.9063 2
    endloop
  endfacet
  facet normal 0 0 1
    outer loop
      vertex -4.40086 -10.6246 2
      vertex -5.42106 -10.1421 2
      vertex -14.8399 -13.9063 2
    endloop
  endfacet
  facet normal 0 0 1
    outer loop
      vertex -5.42106 -10.1421 2
      vertex -6.38906 -9.5619 2
      vertex -14.8399 -13.9063 2
    endloop
  endfacet
  facet normal 0 0 1
    outer loop
      vertex -6.38906 -9.5619 2
      vertex -7.29552 -8.88962 2
      vertex -14.8399 -13.9063 2
    endloop
  endfacet
  facet normal 0 0 1
    outer loop
      vertex -7.29552 -8.88962 2
      vertex -8.13173 -8.13173 2
      vertex -14.8399 -13.9063 2
    endloop
  endfacet
  facet normal 0 0 1
    outer loop
      vertex -8.13173 -8.13173 2
      vertex -8.88962 -7.29552 2
      vertex -14.8399 -13.9063 2
    endloop
  endfacet
  facet normal 0 0 1
    outer loop
      vertex -8.88962 -7.29552 2
      vertex -9.5619 -6.38906 2
      vertex -14.8399 -13.9063 2
    endloop
  endfacet
  facet normal 0 0 1
    outer loop
      vertex -9.5619 -6.38906 2
      vertex -10.1421 -5.42106 2
      vertex -14.8399 -13.9063 2
    endloop
  endfacet
  facet normal 0 0 1
    outer loop
      vertex -10.1421 -5.42106 2
      vertex -10.6246 -4.40086 2
      vertex -14.8399 -13.9063 2
    endloop
  endfacet
  facet normal 0 0 1
    outer loop
      vertex -10.6246 -4.40086 2
      vertex -11.0048 -3.33827 2
      vertex -14.8399 -13.9063 2
    endloop
  endfacet
  facet normal 0 0 1
    outer loop
      vertex -11.0048 -3.33827 2
      vertex -11.279 -2.24354 2
      vertex -14.8399 -13.9063 2
    endloop
  endfacet
  facet normal 0 0 1
    outer loop
      vertex 13.9063 -14.8399 2
      vertex 14.2802 -14.2802 2
      vertex 7.29552 -8.88962 2
    endloop
  endfacet
  facet normal 0 0 1
    outer loop
      vertex -8.88962 7.29552 2
      vertex -8.13173 8.13173 2
      vertex -14.8399 13.9063 2
    endloop
  endfacet
  facet normal 0 0 1
    outer loop
      vertex 14.8399 -17.0937 2
      vertex 14.2802 -16.7198 2
      vertex 18.5315 -21.15 2
    endloop
  endfacet
  facet normal 0 0 1
    outer loop
      vertex 13.9063 -14.8399 2
      vertex 7.29552 -8.88962 2
      vertex 13.775 -15.5 2
    endloop
  endfacet
  facet normal 0 0 1
    outer loop
      vertex 14.8399 -13.9063 2
      vertex 15.5 -13.775 2
      vertex 8.13173 -8.13173 2
    endloop
  endfacet
  facet normal 0 0 1
    outer loop
      vertex 14.2802 -16.7198 2
      vertex 6.38906 -9.5619 2
      vertex 18.5315 -21.15 2
    endloop
  endfacet
  facet normal 0 0 1
    outer loop
      vertex 16.7198 -16.7198 2
      vertex 16.1601 -17.0937 2
      vertex 19.9051 -19.9051 2
    endloop
  endfacet
  facet normal 0 0 1
    outer loop
      vertex 15.5 -13.775 2
      vertex 16.1601 -13.9063 2
      vertex 8.88962 -7.29552 2
    endloop
  endfacet
  facet normal 0 0 1
    outer loop
      vertex -1.1272 11.4446 2
      vertex 0 11.5 2
      vertex 13.9063 16.1601 2
    endloop
  endfacet
  facet normal 0 0 1
    outer loop
      vertex 9.5619 -6.38906 2
      vertex 16.1601 -13.9063 2
      vertex 16.7198 -14.2802 2
    endloop
  endfacet
  facet normal 0 0 1
    outer loop
      vertex 16.7198 -14.2802 2
      vertex 17.0937 -14.8399 2
      vertex 21.15 -18.5315 2
    endloop
  endfacet
  facet normal 0 0 1
    outer loop
      vertex 7.29552 -8.88962 2
      vertex 6.38906 -9.5619 2
      vertex 14.2802 -16.7198 2
    endloop
  endfacet
  facet normal 0 0 1
    outer loop
      vertex 17.0937 -14.8399 2
      vertex 17.225 -15.5 2
      vertex 21.15 -18.5315 2
    endloop
  endfacet
  facet normal 0 0 1
    outer loop
      vertex 21.15 -18.5315 2
      vertex 17.0937 -16.1601 2
      vertex 19.9051 -19.9051 2
    endloop
  endfacet
  facet normal 0 0 1
    outer loop
      vertex 17.0937 -16.1601 2
      vertex 16.7198 -16.7198 2
      vertex 19.9051 -19.9051 2
    endloop
  endfacet
  facet normal 0 0 1
    outer loop
      vertex 7.29552 -8.88962 2
      vertex 14.2802 -16.7198 2
      vertex 13.9063 -16.1601 2
    endloop
  endfacet
  facet normal 0 0 1
    outer loop
      vertex 15.5 -17.225 2
      vertex 14.8399 -17.0937 2
      vertex 18.5315 -21.15 2
    endloop
  endfacet
  facet normal 0 0 1
    outer loop
      vertex 19.9051 -19.9051 2
      vertex 15.5 -17.225 2
      vertex 18.5315 -21.15 2
    endloop
  endfacet
  facet normal 0 0 1
    outer loop
      vertex 16.1601 -17.0937 2
      vertex 15.5 -17.225 2
      vertex 19.9051 -19.9051 2
    endloop
  endfacet
  facet normal 0 0 1
    outer loop
      vertex 13.775 15.5 2
      vertex 1.1272 11.4446 2
      vertex 2.24354 11.279 2
    endloop
  endfacet
  facet normal 0 0 1
    outer loop
      vertex 13.9063 16.1601 2
      vertex 14.2802 16.7198 2
      vertex -3.33827 11.0048 2
    endloop
  endfacet
  facet normal 0 0 1
    outer loop
      vertex 10.6246 4.40086 2
      vertex 11.0048 3.33827 2
      vertex 21.15 -18.5315 2
    endloop
  endfacet
  facet normal 0 0 1
    outer loop
      vertex 14.8399 17.0937 2
      vertex -13.775 15.5 2
      vertex 14.2802 16.7198 2
    endloop
  endfacet
  facet normal 0 0 1
    outer loop
      vertex 21.15 18.5315 2
      vertex -13.775 15.5 2
      vertex 14.8399 17.0937 2
    endloop
  endfacet
  facet normal 0 0 1
    outer loop
      vertex 16.1601 17.0937 2
      vertex 16.7198 16.7198 2
      vertex 21.15 18.5315 2
    endloop
  endfacet
  facet normal 0 0 1
    outer loop
      vertex 21.15 18.5315 2
      vertex 14.8399 17.0937 2
      vertex 15.5 17.225 2
    endloop
  endfacet
  facet normal 0 0 1
    outer loop
      vertex 15.5 17.225 2
      vertex 16.1601 17.0937 2
      vertex 21.15 18.5315 2
    endloop
  endfacet
  facet normal 0 0 1
    outer loop
      vertex 17.0937 16.1601 2
      vertex 17.225 15.5 2
      vertex 21.15 18.5315 2
    endloop
  endfacet
  facet normal 0 0 1
    outer loop
      vertex 13.9063 16.1601 2
      vertex -3.33827 11.0048 2
      vertex -2.24354 11.279 2
    endloop
  endfacet
  facet normal 0 0 1
    outer loop
      vertex 13.775 15.5 2
      vertex 0 11.5 2
      vertex 1.1272 11.4446 2
    endloop
  endfacet
  facet normal 0 0 1
    outer loop
      vertex 13.9063 14.8399 2
      vertex 3.33827 11.0048 2
      vertex 4.40086 10.6246 2
    endloop
  endfacet
  facet normal 0 0 1
    outer loop
      vertex 17.0937 14.8399 2
      vertex 16.7198 14.2802 2
      vertex 21.15 18.5315 2
    endloop
  endfacet
  facet normal 0 0 1
    outer loop
      vertex 14.8399 13.9063 2
      vertex 14.2802 14.2802 2
      vertex 7.29552 8.88962 2
    endloop
  endfacet
  facet normal 0 0 1
    outer loop
      vertex 16.1601 13.9063 2
      vertex 15.5 13.775 2
      vertex 8.13173 8.13173 2
    endloop
  endfacet
  facet normal 0 0 1
    outer loop
      vertex 21.15 18.5315 2
      vertex 16.7198 14.2802 2
      vertex 9.5619 6.38906 2
    endloop
  endfacet
  facet normal 0 0 1
    outer loop
      vertex 16.1601 13.9063 2
      vertex 8.88962 7.29552 2
      vertex 16.7198 14.2802 2
    endloop
  endfacet
  facet normal 0 0 1
    outer loop
      vertex 16.1601 13.9063 2
      vertex 8.13173 8.13173 2
      vertex 8.88962 7.29552 2
    endloop
  endfacet
  facet normal 0 0 1
    outer loop
      vertex 13.775 15.5 2
      vertex 13.9063 16.1601 2
      vertex 0 11.5 2
    endloop
  endfacet
  facet normal 0 0 1
    outer loop
      vertex -17.225 -15.5 2
      vertex -17.0937 -14.8399 2
      vertex -21.15 18.5315 2
    endloop
  endfacet
  facet normal 0 0 1
    outer loop
      vertex -14.2802 -14.2802 2
      vertex -13.9063 -14.8399 2
      vertex 18.5315 -21.15 2
    endloop
  endfacet
  facet normal 0 0 1
    outer loop
      vertex -15.5 13.775 2
      vertex -16.1601 13.9063 2
      vertex -8.88962 7.29552 2
    endloop
  endfacet
  facet normal 0 0 1
    outer loop
      vertex -9.5619 6.38906 2
      vertex -16.7198 14.2802 2
      vertex -21.15 18.5315 2
    endloop
  endfacet
  facet normal 0 0 1
    outer loop
      vertex -9.5619 6.38906 2
      vertex -16.1601 13.9063 2
      vertex -16.7198 14.2802 2
    endloop
  endfacet
  facet normal 0 0 1
    outer loop
      vertex -9.5619 6.38906 2
      vertex -8.88962 7.29552 2
      vertex -16.1601 13.9063 2
    endloop
  endfacet
  facet normal -0.671559 -0.740951 0
    outer loop
      vertex -19.9051 -19.9051 2
      vertex -19.9051 -19.9051 0
      vertex -18.5315 -21.15 0
    endloop
  endfacet
  facet normal -0.671559 -0.740951 0
    outer loop
      vertex -18.5315 -21.15 2
      vertex -19.9051 -19.9051 2
      vertex -18.5315 -21.15 0
    endloop
  endfacet
  facet normal 0 -1 0
    outer loop
      vertex -18.5315 -21.15 2
      vertex -18.5315 -21.15 0
      vertex 18.5315 -21.15 0
    endloop
  endfacet
  facet normal 0 -1 0
    outer loop
      vertex 18.5315 -21.15 2
      vertex -18.5315 -21.15 2
      vertex 18.5315 -21.15 0
    endloop
  endfacet
  facet normal 0.671559 -0.740951 0
    outer loop
      vertex 18.5315 -21.15 2
      vertex 18.5315 -21.15 0
      vertex 19.9051 -19.9051 0
    endloop
  endfacet
  facet normal 0.671559 -0.740951 0
    outer loop
      vertex 19.9051 -19.9051 2
      vertex 18.5315 -21.15 2
      vertex 19.9051 -19.9051 0
    endloop
  endfacet
  facet normal 0.740951 -0.671559 0
    outer loop
      vertex 19.9051 -19.9051 2
      vertex 19.9051 -19.9051 0
      vertex 21.15 -18.5315 0
    endloop
  endfacet
  facet normal 0.740951 -0.671559 0
    outer loop
      vertex 21.15 -18.5315 2
      vertex 19.9051 -19.9051 2
      vertex 21.15 -18.5315 0
    endloop
  endfacet
  facet normal 1 0 0
    outer loop
      vertex 21.15 -18.5315 2
      vertex 21.15 -18.5315 0
      vertex 21.15 18.5315 0
    endloop
  endfacet
  facet normal 1 0 0
    outer loop
      vertex 21.15 18.5315 2
      vertex 21.15 -18.5315 2
      vertex 21.15 18.5315 0
    endloop
  endfacet
  facet normal 0.740951 0.671559 0
    outer loop
      vertex 21.15 18.5315 0
      vertex 19.9051 19.9051 0
      vertex 19.9051 19.9051 2
    endloop
  endfacet
  facet normal 0.740951 0.671559 0
    outer loop
      vertex 21.15 18.5315 2
      vertex 21.15 18.5315 0
      vertex 19.9051 19.9051 2
    endloop
  endfacet
  facet normal 0.671559 0.740951 0
    outer loop
      vertex 18.5315 21.15 0
      vertex 18.5315 21.15 2
      vertex 19.9051 19.9051 0
    endloop
  endfacet
  facet normal 0.671559 0.740951 0
    outer loop
      vertex 19.9051 19.9051 0
      vertex 18.5315 21.15 2
      vertex 19.9051 19.9051 2
    endloop
  endfacet
  facet normal 0 1 0
    outer loop
      vertex -18.5315 21.15 0
      vertex -18.5315 21.15 2
      vertex 18.5315 21.15 0
    endloop
  endfacet
  facet normal 0 1 0
    outer loop
      vertex 18.5315 21.15 0
      vertex -18.5315 21.15 2
      vertex 18.5315 21.15 2
    endloop
  endfacet
  facet normal -0.671559 0.740951 0
    outer loop
      vertex -19.9051 19.9051 0
      vertex -19.9051 19.9051 2
      vertex -18.5315 21.15 0
    endloop
  endfacet
  facet normal -0.671559 0.740951 0
    outer loop
      vertex -18.5315 21.15 0
      vertex -19.9051 19.9051 2
      vertex -18.5315 21.15 2
    endloop
  endfacet
  facet normal 0.980785 -0.195091 0
    outer loop
      vertex -17.0937 -14.8399 0
      vertex -17.0937 -14.8399 2
      vertex -17.225 -15.5 2
    endloop
  endfacet
  facet normal 0.980785 -0.195091 0
    outer loop
      vertex -17.225 -15.5 0
      vertex -17.0937 -14.8399 0
      vertex -17.225 -15.5 2
    endloop
  endfacet
  facet normal 0.980785 0.195091 0
    outer loop
      vertex -17.225 -15.5 2
      vertex -17.0937 -16.1601 2
      vertex -17.0937 -16.1601 0
    endloop
  endfacet
  facet normal 0.980785 0.195091 0
    outer loop
      vertex -17.225 -15.5 0
      vertex -17.225 -15.5 2
      vertex -17.0937 -16.1601 0
    endloop
  endfacet
  facet normal 0.831469 -0.55557 0
    outer loop
      vertex -16.7198 -14.2802 0
      vertex -16.7198 -14.2802 2
      vertex -17.0937 -14.8399 2
    endloop
  endfacet
  facet normal 0.831469 -0.55557 0
    outer loop
      vertex -17.0937 -14.8399 0
      vertex -16.7198 -14.2802 0
      vertex -17.0937 -14.8399 2
    endloop
  endfacet
  facet normal 0.55557 -0.831469 0
    outer loop
      vertex -16.1601 -13.9063 0
      vertex -16.1601 -13.9063 2
      vertex -16.7198 -14.2802 2
    endloop
  endfacet
  facet normal 0.55557 -0.831469 0
    outer loop
      vertex -16.7198 -14.2802 0
      vertex -16.1601 -13.9063 0
      vertex -16.7198 -14.2802 2
    endloop
  endfacet
  facet normal 0.195091 -0.980785 0
    outer loop
      vertex -15.5 -13.775 0
      vertex -15.5 -13.775 2
      vertex -16.1601 -13.9063 2
    endloop
  endfacet
  facet normal 0.195091 -0.980785 0
    outer loop
      vertex -16.1601 -13.9063 0
      vertex -15.5 -13.775 0
      vertex -16.1601 -13.9063 2
    endloop
  endfacet
  facet normal -0.195091 -0.980785 0
    outer loop
      vertex -14.8399 -13.9063 0
      vertex -14.8399 -13.9063 2
      vertex -15.5 -13.775 2
    endloop
  endfacet
  facet normal -0.195091 -0.980785 0
    outer loop
      vertex -15.5 -13.775 0
      vertex -14.8399 -13.9063 0
      vertex -15.5 -13.775 2
    endloop
  endfacet
  facet normal -0.55557 -0.831469 0
    outer loop
      vertex -14.2802 -14.2802 0
      vertex -14.2802 -14.2802 2
      vertex -14.8399 -13.9063 2
    endloop
  endfacet
  facet normal -0.55557 -0.831469 0
    outer loop
      vertex -14.8399 -13.9063 0
      vertex -14.2802 -14.2802 0
      vertex -14.8399 -13.9063 2
    endloop
  endfacet
  facet normal -0.831469 -0.55557 0
    outer loop
      vertex -13.9063 -14.8399 2
      vertex -14.2802 -14.2802 2
      vertex -13.9063 -14.8399 0
    endloop
  endfacet
  facet normal -0.831469 -0.55557 0
    outer loop
      vertex -13.9063 -14.8399 0
      vertex -14.2802 -14.2802 2
      vertex -14.2802 -14.2802 0
    endloop
  endfacet
  facet normal -0.980785 -0.195091 0
    outer loop
      vertex -13.775 -15.5 2
      vertex -13.9063 -14.8399 2
      vertex -13.775 -15.5 0
    endloop
  endfacet
  facet normal -0.980785 -0.195091 0
    outer loop
      vertex -13.775 -15.5 0
      vertex -13.9063 -14.8399 2
      vertex -13.9063 -14.8399 0
    endloop
  endfacet
  facet normal -0.980785 0.195091 0
    outer loop
      vertex -13.775 -15.5 2
      vertex -13.775 -15.5 0
      vertex -13.9063 -16.1601 2
    endloop
  endfacet
  facet normal -0.980785 0.195091 0
    outer loop
      vertex -13.9063 -16.1601 2
      vertex -13.775 -15.5 0
      vertex -13.9063 -16.1601 0
    endloop
  endfacet
  facet normal -0.831469 0.55557 0
    outer loop
      vertex -13.9063 -16.1601 2
      vertex -13.9063 -16.1601 0
      vertex -14.2802 -16.7198 2
    endloop
  endfacet
  facet normal -0.831469 0.55557 0
    outer loop
      vertex -14.2802 -16.7198 2
      vertex -13.9063 -16.1601 0
      vertex -14.2802 -16.7198 0
    endloop
  endfacet
  facet normal -0.55557 0.831469 0
    outer loop
      vertex -14.2802 -16.7198 2
      vertex -14.2802 -16.7198 0
      vertex -14.8399 -17.0937 2
    endloop
  endfacet
  facet normal -0.55557 0.831469 0
    outer loop
      vertex -14.8399 -17.0937 2
      vertex -14.2802 -16.7198 0
      vertex -14.8399 -17.0937 0
    endloop
  endfacet
  facet normal -0.195091 0.980785 0
    outer loop
      vertex -14.8399 -17.0937 2
      vertex -14.8399 -17.0937 0
      vertex -15.5 -17.225 2
    endloop
  endfacet
  facet normal -0.195091 0.980785 0
    outer loop
      vertex -15.5 -17.225 2
      vertex -14.8399 -17.0937 0
      vertex -15.5 -17.225 0
    endloop
  endfacet
  facet normal 0.195091 0.980785 0
    outer loop
      vertex -15.5 -17.225 2
      vertex -15.5 -17.225 0
      vertex -16.1601 -17.0937 2
    endloop
  endfacet
  facet normal 0.195091 0.980785 0
    outer loop
      vertex -16.1601 -17.0937 2
      vertex -15.5 -17.225 0
      vertex -16.1601 -17.0937 0
    endloop
  endfacet
  facet normal 0.55557 0.831469 0
    outer loop
      vertex -16.1601 -17.0937 2
      vertex -16.1601 -17.0937 0
      vertex -16.7198 -16.7198 2
    endloop
  endfacet
  facet normal 0.55557 0.831469 0
    outer loop
      vertex -16.7198 -16.7198 2
      vertex -16.1601 -17.0937 0
      vertex -16.7198 -16.7198 0
    endloop
  endfacet
  facet normal 0.831469 0.55557 0
    outer loop
      vertex -17.0937 -16.1601 2
      vertex -16.7198 -16.7198 2
      vertex -16.7198 -16.7198 0
    endloop
  endfacet
  facet normal 0.831469 0.55557 0
    outer loop
      vertex -17.0937 -16.1601 0
      vertex -17.0937 -16.1601 2
      vertex -16.7198 -16.7198 0
    endloop
  endfacet
  facet normal 0.980785 -0.195091 0
    outer loop
      vertex -17.0937 16.1601 0
      vertex -17.0937 16.1601 2
      vertex -17.225 15.5 2
    endloop
  endfacet
  facet normal 0.980785 -0.195091 0
    outer loop
      vertex -17.225 15.5 0
      vertex -17.0937 16.1601 0
      vertex -17.225 15.5 2
    endloop
  endfacet
  facet normal 0.980785 0.195091 0
    outer loop
      vertex -17.225 15.5 2
      vertex -17.0937 14.8399 2
      vertex -17.0937 14.8399 0
    endloop
  endfacet
  facet normal 0.980785 0.195091 0
    outer loop
      vertex -17.225 15.5 0
      vertex -17.225 15.5 2
      vertex -17.0937 14.8399 0
    endloop
  endfacet
  facet normal 0.831469 -0.55557 0
    outer loop
      vertex -16.7198 16.7198 0
      vertex -16.7198 16.7198 2
      vertex -17.0937 16.1601 2
    endloop
  endfacet
  facet normal 0.831469 -0.55557 0
    outer loop
      vertex -17.0937 16.1601 0
      vertex -16.7198 16.7198 0
      vertex -17.0937 16.1601 2
    endloop
  endfacet
  facet normal 0.55557 -0.831469 0
    outer loop
      vertex -16.1601 17.0937 0
      vertex -16.1601 17.0937 2
      vertex -16.7198 16.7198 2
    endloop
  endfacet
  facet normal 0.55557 -0.831469 0
    outer loop
      vertex -16.7198 16.7198 0
      vertex -16.1601 17.0937 0
      vertex -16.7198 16.7198 2
    endloop
  endfacet
  facet normal 0.195091 -0.980785 0
    outer loop
      vertex -15.5 17.225 0
      vertex -15.5 17.225 2
      vertex -16.1601 17.0937 2
    endloop
  endfacet
  facet normal 0.195091 -0.980785 0
    outer loop
      vertex -16.1601 17.0937 0
      vertex -15.5 17.225 0
      vertex -16.1601 17.0937 2
    endloop
  endfacet
  facet normal -0.195091 -0.980785 0
    outer loop
      vertex -14.8399 17.0937 0
      vertex -14.8399 17.0937 2
      vertex -15.5 17.225 2
    endloop
  endfacet
  facet normal -0.195091 -0.980785 0
    outer loop
      vertex -15.5 17.225 0
      vertex -14.8399 17.0937 0
      vertex -15.5 17.225 2
    endloop
  endfacet
  facet normal -0.55557 -0.831469 0
    outer loop
      vertex -14.2802 16.7198 0
      vertex -14.2802 16.7198 2
      vertex -14.8399 17.0937 2
    endloop
  endfacet
  facet normal -0.55557 -0.831469 0
    outer loop
      vertex -14.8399 17.0937 0
      vertex -14.2802 16.7198 0
      vertex -14.8399 17.0937 2
    endloop
  endfacet
  facet normal -0.831469 -0.55557 0
    outer loop
      vertex -13.9063 16.1601 2
      vertex -14.2802 16.7198 2
      vertex -13.9063 16.1601 0
    endloop
  endfacet
  facet normal -0.831469 -0.55557 0
    outer loop
      vertex -13.9063 16.1601 0
      vertex -14.2802 16.7198 2
      vertex -14.2802 16.7198 0
    endloop
  endfacet
  facet normal -0.980785 -0.195091 0
    outer loop
      vertex -13.775 15.5 2
      vertex -13.9063 16.1601 2
      vertex -13.775 15.5 0
    endloop
  endfacet
  facet normal -0.980785 -0.195091 0
    outer loop
      vertex -13.775 15.5 0
      vertex -13.9063 16.1601 2
      vertex -13.9063 16.1601 0
    endloop
  endfacet
  facet normal -0.980785 0.195091 0
    outer loop
      vertex -13.775 15.5 2
      vertex -13.775 15.5 0
      vertex -13.9063 14.8399 2
    endloop
  endfacet
  facet normal -0.980785 0.195091 0
    outer loop
      vertex -13.9063 14.8399 2
      vertex -13.775 15.5 0
      vertex -13.9063 14.8399 0
    endloop
  endfacet
  facet normal -0.831469 0.55557 0
    outer loop
      vertex -13.9063 14.8399 2
      vertex -13.9063 14.8399 0
      vertex -14.2802 14.2802 2
    endloop
  endfacet
  facet normal -0.831469 0.55557 0
    outer loop
      vertex -14.2802 14.2802 2
      vertex -13.9063 14.8399 0
      vertex -14.2802 14.2802 0
    endloop
  endfacet
  facet normal -0.55557 0.831469 0
    outer loop
      vertex -14.2802 14.2802 2
      vertex -14.2802 14.2802 0
      vertex -14.8399 13.9063 2
    endloop
  endfacet
  facet normal -0.55557 0.831469 0
    outer loop
      vertex -14.8399 13.9063 2
      vertex -14.2802 14.2802 0
      vertex -14.8399 13.9063 0
    endloop
  endfacet
  facet normal -0.195091 0.980785 0
    outer loop
      vertex -14.8399 13.9063 2
      vertex -14.8399 13.9063 0
      vertex -15.5 13.775 2
    endloop
  endfacet
  facet normal -0.195091 0.980785 0
    outer loop
      vertex -15.5 13.775 2
      vertex -14.8399 13.9063 0
      vertex -15.5 13.775 0
    endloop
  endfacet
  facet normal 0.195091 0.980785 0
    outer loop
      vertex -15.5 13.775 2
      vertex -15.5 13.775 0
      vertex -16.1601 13.9063 2
    endloop
  endfacet
  facet normal 0.195091 0.980785 0
    outer loop
      vertex -16.1601 13.9063 2
      vertex -15.5 13.775 0
      vertex -16.1601 13.9063 0
    endloop
  endfacet
  facet normal 0.55557 0.831469 0
    outer loop
      vertex -16.1601 13.9063 2
      vertex -16.1601 13.9063 0
      vertex -16.7198 14.2802 2
    endloop
  endfacet
  facet normal 0.55557 0.831469 0
    outer loop
      vertex -16.7198 14.2802 2
      vertex -16.1601 13.9063 0
      vertex -16.7198 14.2802 0
    endloop
  endfacet
  facet normal 0.831469 0.55557 0
    outer loop
      vertex -17.0937 14.8399 2
      vertex -16.7198 14.2802 2
      vertex -16.7198 14.2802 0
    endloop
  endfacet
  facet normal 0.831469 0.55557 0
    outer loop
      vertex -17.0937 14.8399 0
      vertex -17.0937 14.8399 2
      vertex -16.7198 14.2802 0
    endloop
  endfacet
  facet normal 0.998795 -0.049068 0
    outer loop
      vertex -11.4446 1.1272 0
      vertex -11.4446 1.1272 2
      vertex -11.5 0 2
    endloop
  endfacet
  facet normal 0.998795 -0.049068 0
    outer loop
      vertex -11.5 0 0
      vertex -11.4446 1.1272 0
      vertex -11.5 0 2
    endloop
  endfacet
  facet normal 0.998795 0.049068 0
    outer loop
      vertex -11.5 0 2
      vertex -11.4446 -1.1272 2
      vertex -11.4446 -1.1272 0
    endloop
  endfacet
  facet normal 0.998795 0.049068 0
    outer loop
      vertex -11.5 0 0
      vertex -11.5 0 2
      vertex -11.4446 -1.1272 0
    endloop
  endfacet
  facet normal 0.989177 -0.14673 0
    outer loop
      vertex -11.279 2.24354 0
      vertex -11.279 2.24354 2
      vertex -11.4446 1.1272 2
    endloop
  endfacet
  facet normal 0.989177 -0.14673 0
    outer loop
      vertex -11.4446 1.1272 0
      vertex -11.279 2.24354 0
      vertex -11.4446 1.1272 2
    endloop
  endfacet
  facet normal 0.970031 -0.24298 0
    outer loop
      vertex -11.0048 3.33827 0
      vertex -11.0048 3.33827 2
      vertex -11.279 2.24354 2
    endloop
  endfacet
  facet normal 0.970031 -0.24298 0
    outer loop
      vertex -11.279 2.24354 0
      vertex -11.0048 3.33827 0
      vertex -11.279 2.24354 2
    endloop
  endfacet
  facet normal 0.941544 -0.33689 0
    outer loop
      vertex -10.6246 4.40086 0
      vertex -10.6246 4.40086 2
      vertex -11.0048 3.33827 2
    endloop
  endfacet
  facet normal 0.941544 -0.33689 0
    outer loop
      vertex -11.0048 3.33827 0
      vertex -10.6246 4.40086 0
      vertex -11.0048 3.33827 2
    endloop
  endfacet
  facet normal 0.903989 -0.427555 0
    outer loop
      vertex -10.1421 5.42106 0
      vertex -10.1421 5.42106 2
      vertex -10.6246 4.40086 2
    endloop
  endfacet
  facet normal 0.903989 -0.427555 0
    outer loop
      vertex -10.6246 4.40086 0
      vertex -10.1421 5.42106 0
      vertex -10.6246 4.40086 2
    endloop
  endfacet
  facet normal 0.857729 -0.514102 0
    outer loop
      vertex -9.5619 6.38906 0
      vertex -9.5619 6.38906 2
      vertex -10.1421 5.42106 2
    endloop
  endfacet
  facet normal 0.857729 -0.514102 0
    outer loop
      vertex -10.1421 5.42106 0
      vertex -9.5619 6.38906 0
      vertex -10.1421 5.42106 2
    endloop
  endfacet
  facet normal 0.803207 -0.5957 0
    outer loop
      vertex -8.88962 7.29552 0
      vertex -8.88962 7.29552 2
      vertex -9.5619 6.38906 2
    endloop
  endfacet
  facet normal 0.803207 -0.5957 0
    outer loop
      vertex -9.5619 6.38906 0
      vertex -8.88962 7.29552 0
      vertex -9.5619 6.38906 2
    endloop
  endfacet
  facet normal 0.740951 -0.671559 0
    outer loop
      vertex -8.13173 8.13173 0
      vertex -8.13173 8.13173 2
      vertex -8.88962 7.29552 2
    endloop
  endfacet
  facet normal 0.740951 -0.671559 0
    outer loop
      vertex -8.88962 7.29552 0
      vertex -8.13173 8.13173 0
      vertex -8.88962 7.29552 2
    endloop
  endfacet
  facet normal 0.671559 -0.740951 0
    outer loop
      vertex -7.29552 8.88962 0
      vertex -7.29552 8.88962 2
      vertex -8.13173 8.13173 2
    endloop
  endfacet
  facet normal 0.671559 -0.740951 0
    outer loop
      vertex -8.13173 8.13173 0
      vertex -7.29552 8.88962 0
      vertex -8.13173 8.13173 2
    endloop
  endfacet
  facet normal 0.5957 -0.803207 0
    outer loop
      vertex -6.38906 9.5619 0
      vertex -6.38906 9.5619 2
      vertex -7.29552 8.88962 2
    endloop
  endfacet
  facet normal 0.5957 -0.803207 0
    outer loop
      vertex -7.29552 8.88962 0
      vertex -6.38906 9.5619 0
      vertex -7.29552 8.88962 2
    endloop
  endfacet
  facet normal 0.514102 -0.857729 0
    outer loop
      vertex -5.42106 10.1421 0
      vertex -5.42106 10.1421 2
      vertex -6.38906 9.5619 2
    endloop
  endfacet
  facet normal 0.514102 -0.857729 0
    outer loop
      vertex -6.38906 9.5619 0
      vertex -5.42106 10.1421 0
      vertex -6.38906 9.5619 2
    endloop
  endfacet
  facet normal 0.427555 -0.903989 0
    outer loop
      vertex -4.40086 10.6246 0
      vertex -4.40086 10.6246 2
      vertex -5.42106 10.1421 2
    endloop
  endfacet
  facet normal 0.427555 -0.903989 0
    outer loop
      vertex -5.42106 10.1421 0
      vertex -4.40086 10.6246 0
      vertex -5.42106 10.1421 2
    endloop
  endfacet
  facet normal 0.33689 -0.941544 0
    outer loop
      vertex -3.33827 11.0048 0
      vertex -3.33827 11.0048 2
      vertex -4.40086 10.6246 2
    endloop
  endfacet
  facet normal 0.33689 -0.941544 0
    outer loop
      vertex -4.40086 10.6246 0
      vertex -3.33827 11.0048 0
      vertex -4.40086 10.6246 2
    endloop
  endfacet
  facet normal 0.24298 -0.970031 0
    outer loop
      vertex -2.24354 11.279 0
      vertex -2.24354 11.279 2
      vertex -3.33827 11.0048 2
    endloop
  endfacet
  facet normal 0.24298 -0.970031 0
    outer loop
      vertex -3.33827 11.0048 0
      vertex -2.24354 11.279 0
      vertex -3.33827 11.0048 2
    endloop
  endfacet
  facet normal 0.14673 -0.989177 0
    outer loop
      vertex -1.1272 11.4446 0
      vertex -1.1272 11.4446 2
      vertex -2.24354 11.279 2
    endloop
  endfacet
  facet normal 0.14673 -0.989177 0
    outer loop
      vertex -2.24354 11.279 0
      vertex -1.1272 11.4446 0
      vertex -2.24354 11.279 2
    endloop
  endfacet
  facet normal 0.049068 -0.998795 0
    outer loop
      vertex 0 11.5 0
      vertex 0 11.5 2
      vertex -1.1272 11.4446 2
    endloop
  endfacet
  facet normal 0.049068 -0.998795 0
    outer loop
      vertex -1.1272 11.4446 0
      vertex 0 11.5 0
      vertex -1.1272 11.4446 2
    endloop
  endfacet
  facet normal -0.049068 -0.998795 0
    outer loop
      vertex 1.1272 11.4446 0
      vertex 1.1272 11.4446 2
      vertex 0 11.5 2
    endloop
  endfacet
  facet normal -0.049068 -0.998795 0
    outer loop
      vertex 0 11.5 0
      vertex 1.1272 11.4446 0
      vertex 0 11.5 2
    endloop
  endfacet
  facet normal -0.14673 -0.989177 0
    outer loop
      vertex 2.24354 11.279 0
      vertex 2.24354 11.279 2
      vertex 1.1272 11.4446 2
    endloop
  endfacet
  facet normal -0.14673 -0.989177 0
    outer loop
      vertex 1.1272 11.4446 0
      vertex 2.24354 11.279 0
      vertex 1.1272 11.4446 2
    endloop
  endfacet
  facet normal -0.24298 -0.970031 0
    outer loop
      vertex 3.33827 11.0048 0
      vertex 3.33827 11.0048 2
      vertex 2.24354 11.279 2
    endloop
  endfacet
  facet normal -0.24298 -0.970031 0
    outer loop
      vertex 2.24354 11.279 0
      vertex 3.33827 11.0048 0
      vertex 2.24354 11.279 2
    endloop
  endfacet
  facet normal -0.33689 -0.941544 0
    outer loop
      vertex 4.40086 10.6246 0
      vertex 4.40086 10.6246 2
      vertex 3.33827 11.0048 2
    endloop
  endfacet
  facet normal -0.33689 -0.941544 0
    outer loop
      vertex 3.33827 11.0048 0
      vertex 4.40086 10.6246 0
      vertex 3.33827 11.0048 2
    endloop
  endfacet
  facet normal -0.427555 -0.903989 0
    outer loop
      vertex 5.42106 10.1421 0
      vertex 5.42106 10.1421 2
      vertex 4.40086 10.6246 2
    endloop
  endfacet
  facet normal -0.427555 -0.903989 0
    outer loop
      vertex 4.40086 10.6246 0
      vertex 5.42106 10.1421 0
      vertex 4.40086 10.6246 2
    endloop
  endfacet
  facet normal -0.514102 -0.857729 0
    outer loop
      vertex 6.38906 9.5619 0
      vertex 6.38906 9.5619 2
      vertex 5.42106 10.1421 2
    endloop
  endfacet
  facet normal -0.514102 -0.857729 0
    outer loop
      vertex 5.42106 10.1421 0
      vertex 6.38906 9.5619 0
      vertex 5.42106 10.1421 2
    endloop
  endfacet
  facet normal -0.5957 -0.803207 0
    outer loop
      vertex 7.29552 8.88962 0
      vertex 7.29552 8.88962 2
      vertex 6.38906 9.5619 2
    endloop
  endfacet
  facet normal -0.5957 -0.803207 0
    outer loop
      vertex 6.38906 9.5619 0
      vertex 7.29552 8.88962 0
      vertex 6.38906 9.5619 2
    endloop
  endfacet
  facet normal -0.671559 -0.740951 0
    outer loop
      vertex 8.13173 8.13173 0
      vertex 8.13173 8.13173 2
      vertex 7.29552 8.88962 2
    endloop
  endfacet
  facet normal -0.671559 -0.740951 0
    outer loop
      vertex 7.29552 8.88962 0
      vertex 8.13173 8.13173 0
      vertex 7.29552 8.88962 2
    endloop
  endfacet
  facet normal -0.740951 -0.671559 0
    outer loop
      vertex 8.88962 7.29552 2
      vertex 8.13173 8.13173 2
      vertex 8.88962 7.29552 0
    endloop
  endfacet
  facet normal -0.740951 -0.671559 0
    outer loop
      vertex 8.88962 7.29552 0
      vertex 8.13173 8.13173 2
      vertex 8.13173 8.13173 0
    endloop
  endfacet
  facet normal -0.803207 -0.5957 0
    outer loop
      vertex 9.5619 6.38906 2
      vertex 8.88962 7.29552 2
      vertex 9.5619 6.38906 0
    endloop
  endfacet
  facet normal -0.803207 -0.5957 0
    outer loop
      vertex 9.5619 6.38906 0
      vertex 8.88962 7.29552 2
      vertex 8.88962 7.29552 0
    endloop
  endfacet
  facet normal -0.857729 -0.514102 0
    outer loop
      vertex 10.1421 5.42106 2
      vertex 9.5619 6.38906 2
      vertex 10.1421 5.42106 0
    endloop
  endfacet
  facet normal -0.857729 -0.514102 0
    outer loop
      vertex 10.1421 5.42106 0
      vertex 9.5619 6.38906 2
      vertex 9.5619 6.38906 0
    endloop
  endfacet
  facet normal -0.903989 -0.427555 0
    outer loop
      vertex 10.6246 4.40086 2
      vertex 10.1421 5.42106 2
      vertex 10.6246 4.40086 0
    endloop
  endfacet
  facet normal -0.903989 -0.427555 0
    outer loop
      vertex 10.6246 4.40086 0
      vertex 10.1421 5.42106 2
      vertex 10.1421 5.42106 0
    endloop
  endfacet
  facet normal -0.941544 -0.33689 0
    outer loop
      vertex 11.0048 3.33827 2
      vertex 10.6246 4.40086 2
      vertex 11.0048 3.33827 0
    endloop
  endfacet
  facet normal -0.941544 -0.33689 0
    outer loop
      vertex 11.0048 3.33827 0
      vertex 10.6246 4.40086 2
      vertex 10.6246 4.40086 0
    endloop
  endfacet
  facet normal -0.970031 -0.24298 0
    outer loop
      vertex 11.279 2.24354 2
      vertex 11.0048 3.33827 2
      vertex 11.279 2.24354 0
    endloop
  endfacet
  facet normal -0.970031 -0.24298 0
    outer loop
      vertex 11.279 2.24354 0
      vertex 11.0048 3.33827 2
      vertex 11.0048 3.33827 0
    endloop
  endfacet
  facet normal -0.989177 -0.14673 0
    outer loop
      vertex 11.4446 1.1272 2
      vertex 11.279 2.24354 2
      vertex 11.4446 1.1272 0
    endloop
  endfacet
  facet normal -0.989177 -0.14673 0
    outer loop
      vertex 11.4446 1.1272 0
      vertex 11.279 2.24354 2
      vertex 11.279 2.24354 0
    endloop
  endfacet
  facet normal -0.998795 -0.049068 0
    outer loop
      vertex 11.5 0 2
      vertex 11.4446 1.1272 2
      vertex 11.5 0 0
    endloop
  endfacet
  facet normal -0.998795 -0.049068 0
    outer loop
      vertex 11.5 0 0
      vertex 11.4446 1.1272 2
      vertex 11.4446 1.1272 0
    endloop
  endfacet
  facet normal -0.998795 0.049068 0
    outer loop
      vertex 11.5 0 2
      vertex 11.5 0 0
      vertex 11.4446 -1.1272 2
    endloop
  endfacet
  facet normal -0.998795 0.049068 0
    outer loop
      vertex 11.4446 -1.1272 2
      vertex 11.5 0 0
      vertex 11.4446 -1.1272 0
    endloop
  endfacet
  facet normal -0.989177 0.14673 0
    outer loop
      vertex 11.4446 -1.1272 2
      vertex 11.4446 -1.1272 0
      vertex 11.279 -2.24354 2
    endloop
  endfacet
  facet normal -0.989177 0.14673 0
    outer loop
      vertex 11.279 -2.24354 2
      vertex 11.4446 -1.1272 0
      vertex 11.279 -2.24354 0
    endloop
  endfacet
  facet normal -0.970031 0.24298 0
    outer loop
      vertex 11.279 -2.24354 2
      vertex 11.279 -2.24354 0
      vertex 11.0048 -3.33827 2
    endloop
  endfacet
  facet normal -0.970031 0.24298 0
    outer loop
      vertex 11.0048 -3.33827 2
      vertex 11.279 -2.24354 0
      vertex 11.0048 -3.33827 0
    endloop
  endfacet
  facet normal -0.941544 0.33689 0
    outer loop
      vertex 11.0048 -3.33827 2
      vertex 11.0048 -3.33827 0
      vertex 10.6246 -4.40086 2
    endloop
  endfacet
  facet normal -0.941544 0.33689 0
    outer loop
      vertex 10.6246 -4.40086 2
      vertex 11.0048 -3.33827 0
      vertex 10.6246 -4.40086 0
    endloop
  endfacet
  facet normal -0.903989 0.427555 0
    outer loop
      vertex 10.6246 -4.40086 2
      vertex 10.6246 -4.40086 0
      vertex 10.1421 -5.42106 2
    endloop
  endfacet
  facet normal -0.903989 0.427555 0
    outer loop
      vertex 10.1421 -5.42106 2
      vertex 10.6246 -4.40086 0
      vertex 10.1421 -5.42106 0
    endloop
  endfacet
  facet normal -0.857729 0.514102 0
    outer loop
      vertex 10.1421 -5.42106 2
      vertex 10.1421 -5.42106 0
      vertex 9.5619 -6.38906 2
    endloop
  endfacet
  facet normal -0.857729 0.514102 0
    outer loop
      vertex 9.5619 -6.38906 2
      vertex 10.1421 -5.42106 0
      vertex 9.5619 -6.38906 0
    endloop
  endfacet
  facet normal -0.803207 0.5957 0
    outer loop
      vertex 9.5619 -6.38906 2
      vertex 9.5619 -6.38906 0
      vertex 8.88962 -7.29552 2
    endloop
  endfacet
  facet normal -0.803207 0.5957 0
    outer loop
      vertex 8.88962 -7.29552 2
      vertex 9.5619 -6.38906 0
      vertex 8.88962 -7.29552 0
    endloop
  endfacet
  facet normal -0.740951 0.671559 0
    outer loop
      vertex 8.88962 -7.29552 2
      vertex 8.88962 -7.29552 0
      vertex 8.13173 -8.13173 2
    endloop
  endfacet
  facet normal -0.740951 0.671559 0
    outer loop
      vertex 8.13173 -8.13173 2
      vertex 8.88962 -7.29552 0
      vertex 8.13173 -8.13173 0
    endloop
  endfacet
  facet normal -0.671559 0.740951 0
    outer loop
      vertex 8.13173 -8.13173 2
      vertex 8.13173 -8.13173 0
      vertex 7.29552 -8.88962 2
    endloop
  endfacet
  facet normal -0.671559 0.740951 0
    outer loop
      vertex 7.29552 -8.88962 2
      vertex 8.13173 -8.13173 0
      vertex 7.29552 -8.88962 0
    endloop
  endfacet
  facet normal -0.5957 0.803207 0
    outer loop
      vertex 7.29552 -8.88962 2
      vertex 7.29552 -8.88962 0
      vertex 6.38906 -9.5619 2
    endloop
  endfacet
  facet normal -0.5957 0.803207 0
    outer loop
      vertex 6.38906 -9.5619 2
      vertex 7.29552 -8.88962 0
      vertex 6.38906 -9.5619 0
    endloop
  endfacet
  facet normal -0.514102 0.857729 0
    outer loop
      vertex 6.38906 -9.5619 2
      vertex 6.38906 -9.5619 0
      vertex 5.42106 -10.1421 2
    endloop
  endfacet
  facet normal -0.514102 0.857729 0
    outer loop
      vertex 5.42106 -10.1421 2
      vertex 6.38906 -9.5619 0
      vertex 5.42106 -10.1421 0
    endloop
  endfacet
  facet normal -0.427555 0.903989 0
    outer loop
      vertex 5.42106 -10.1421 2
      vertex 5.42106 -10.1421 0
      vertex 4.40086 -10.6246 2
    endloop
  endfacet
  facet normal -0.427555 0.903989 0
    outer loop
      vertex 4.40086 -10.6246 2
      vertex 5.42106 -10.1421 0
      vertex 4.40086 -10.6246 0
    endloop
  endfacet
  facet normal -0.33689 0.941544 0
    outer loop
      vertex 4.40086 -10.6246 2
      vertex 4.40086 -10.6246 0
      vertex 3.33827 -11.0048 2
    endloop
  endfacet
  facet normal -0.33689 0.941544 0
    outer loop
      vertex 3.33827 -11.0048 2
      vertex 4.40086 -10.6246 0
      vertex 3.33827 -11.0048 0
    endloop
  endfacet
  facet normal -0.24298 0.970031 0
    outer loop
      vertex 3.33827 -11.0048 2
      vertex 3.33827 -11.0048 0
      vertex 2.24354 -11.279 2
    endloop
  endfacet
  facet normal -0.24298 0.970031 0
    outer loop
      vertex 2.24354 -11.279 2
      vertex 3.33827 -11.0048 0
      vertex 2.24354 -11.279 0
    endloop
  endfacet
  facet normal -0.14673 0.989177 0
    outer loop
      vertex 2.24354 -11.279 2
      vertex 2.24354 -11.279 0
      vertex 1.1272 -11.4446 2
    endloop
  endfacet
  facet normal -0.14673 0.989177 0
    outer loop
      vertex 1.1272 -11.4446 2
      vertex 2.24354 -11.279 0
      vertex 1.1272 -11.4446 0
    endloop
  endfacet
  facet normal -0.049068 0.998795 0
    outer loop
      vertex 1.1272 -11.4446 2
      vertex 1.1272 -11.4446 0
      vertex 0 -11.5 2
    endloop
  endfacet
  facet normal -0.049068 0.998795 0
    outer loop
      vertex 0 -11.5 2
      vertex 1.1272 -11.4446 0
      vertex 0 -11.5 0
    endloop
  endfacet
  facet normal 0.049068 0.998795 0
    outer loop
      vertex 0 -11.5 2
      vertex 0 -11.5 0
      vertex -1.1272 -11.4446 2
    endloop
  endfacet
  facet normal 0.049068 0.998795 0
    outer loop
      vertex -1.1272 -11.4446 2
      vertex 0 -11.5 0
      vertex -1.1272 -11.4446 0
    endloop
  endfacet
  facet normal 0.14673 0.989177 0
    outer loop
      vertex -1.1272 -11.4446 2
      vertex -1.1272 -11.4446 0
      vertex -2.24354 -11.279 2
    endloop
  endfacet
  facet normal 0.14673 0.989177 0
    outer loop
      vertex -2.24354 -11.279 2
      vertex -1.1272 -11.4446 0
      vertex -2.24354 -11.279 0
    endloop
  endfacet
  facet normal 0.24298 0.970031 0
    outer loop
      vertex -2.24354 -11.279 2
      vertex -2.24354 -11.279 0
      vertex -3.33827 -11.0048 2
    endloop
  endfacet
  facet normal 0.24298 0.970031 0
    outer loop
      vertex -3.33827 -11.0048 2
      vertex -2.24354 -11.279 0
      vertex -3.33827 -11.0048 0
    endloop
  endfacet
  facet normal 0.33689 0.941544 0
    outer loop
      vertex -3.33827 -11.0048 2
      vertex -3.33827 -11.0048 0
      vertex -4.40086 -10.6246 2
    endloop
  endfacet
  facet normal 0.33689 0.941544 0
    outer loop
      vertex -4.40086 -10.6246 2
      vertex -3.33827 -11.0048 0
      vertex -4.40086 -10.6246 0
    endloop
  endfacet
  facet normal 0.427555 0.903989 0
    outer loop
      vertex -4.40086 -10.6246 2
      vertex -4.40086 -10.6246 0
      vertex -5.42106 -10.1421 2
    endloop
  endfacet
  facet normal 0.427555 0.903989 0
    outer loop
      vertex -5.42106 -10.1421 2
      vertex -4.40086 -10.6246 0
      vertex -5.42106 -10.1421 0
    endloop
  endfacet
  facet normal 0.514102 0.857729 0
    outer loop
      vertex -5.42106 -10.1421 2
      vertex -5.42106 -10.1421 0
      vertex -6.38906 -9.5619 2
    endloop
  endfacet
  facet normal 0.514102 0.857729 0
    outer loop
      vertex -6.38906 -9.5619 2
      vertex -5.42106 -10.1421 0
      vertex -6.38906 -9.5619 0
    endloop
  endfacet
  facet normal 0.5957 0.803207 0
    outer loop
      vertex -6.38906 -9.5619 2
      vertex -6.38906 -9.5619 0
      vertex -7.29552 -8.88962 2
    endloop
  endfacet
  facet normal 0.5957 0.803207 0
    outer loop
      vertex -7.29552 -8.88962 2
      vertex -6.38906 -9.5619 0
      vertex -7.29552 -8.88962 0
    endloop
  endfacet
  facet normal 0.671559 0.740951 0
    outer loop
      vertex -7.29552 -8.88962 2
      vertex -7.29552 -8.88962 0
      vertex -8.13173 -8.13173 2
    endloop
  endfacet
  facet normal 0.671559 0.740951 0
    outer loop
      vertex -8.13173 -8.13173 2
      vertex -7.29552 -8.88962 0
      vertex -8.13173 -8.13173 0
    endloop
  endfacet
  facet normal 0.740951 0.671559 0
    outer loop
      vertex -8.88962 -7.29552 2
      vertex -8.13173 -8.13173 2
      vertex -8.13173 -8.13173 0
    endloop
  endfacet
  facet normal 0.740951 0.671559 0
    outer loop
      vertex -8.88962 -7.29552 0
      vertex -8.88962 -7.29552 2
      vertex -8.13173 -8.13173 0
    endloop
  endfacet
  facet normal 0.803207 0.5957 0
    outer loop
      vertex -9.5619 -6.38906 2
      vertex -8.88962 -7.29552 2
      vertex -8.88962 -7.29552 0
    endloop
  endfacet
  facet normal 0.803207 0.5957 0
    outer loop
      vertex -9.5619 -6.38906 0
      vertex -9.5619 -6.38906 2
      vertex -8.88962 -7.29552 0
    endloop
  endfacet
  facet normal 0.857729 0.514102 0
    outer loop
      vertex -10.1421 -5.42106 2
      vertex -9.5619 -6.38906 2
      vertex -9.5619 -6.38906 0
    endloop
  endfacet
  facet normal 0.857729 0.514102 0
    outer loop
      vertex -10.1421 -5.42106 0
      vertex -10.1421 -5.42106 2
      vertex -9.5619 -6.38906 0
    endloop
  endfacet
  facet normal 0.903989 0.427555 0
    outer loop
      vertex -10.6246 -4.40086 2
      vertex -10.1421 -5.42106 2
      vertex -10.1421 -5.42106 0
    endloop
  endfacet
  facet normal 0.903989 0.427555 0
    outer loop
      vertex -10.6246 -4.40086 0
      vertex -10.6246 -4.40086 2
      vertex -10.1421 -5.42106 0
    endloop
  endfacet
  facet normal 0.941544 0.33689 0
    outer loop
      vertex -11.0048 -3.33827 2
      vertex -10.6246 -4.40086 2
      vertex -10.6246 -4.40086 0
    endloop
  endfacet
  facet normal 0.941544 0.33689 0
    outer loop
      vertex -11.0048 -3.33827 0
      vertex -11.0048 -3.33827 2
      vertex -10.6246 -4.40086 0
    endloop
  endfacet
  facet normal 0.970031 0.24298 0
    outer loop
      vertex -11.279 -2.24354 2
      vertex -11.0048 -3.33827 2
      vertex -11.0048 -3.33827 0
    endloop
  endfacet
  facet normal 0.970031 0.24298 0
    outer loop
      vertex -11.279 -2.24354 0
      vertex -11.279 -2.24354 2
      vertex -11.0048 -3.33827 0
    endloop
  endfacet
  facet normal 0.989177 0.14673 0
    outer loop
      vertex -11.4446 -1.1272 2
      vertex -11.279 -2.24354 2
      vertex -11.279 -2.24354 0
    endloop
  endfacet
  facet normal 0.989177 0.14673 0
    outer loop
      vertex -11.4446 -1.1272 0
      vertex -11.4446 -1.1272 2
      vertex -11.279 -2.24354 0
    endloop
  endfacet
  facet normal 0.980785 -0.195091 0
    outer loop
      vertex 13.9063 -14.8399 0
      vertex 13.9063 -14.8399 2
      vertex 13.775 -15.5 2
    endloop
  endfacet
  facet normal 0.980785 -0.195091 0
    outer loop
      vertex 13.775 -15.5 0
      vertex 13.9063 -14.8399 0
      vertex 13.775 -15.5 2
    endloop
  endfacet
  facet normal 0.980785 0.195091 0
    outer loop
      vertex 13.775 -15.5 2
      vertex 13.9063 -16.1601 2
      vertex 13.9063 -16.1601 0
    endloop
  endfacet
  facet normal 0.980785 0.195091 0
    outer loop
      vertex 13.775 -15.5 0
      vertex 13.775 -15.5 2
      vertex 13.9063 -16.1601 0
    endloop
  endfacet
  facet normal 0.831469 -0.55557 0
    outer loop
      vertex 14.2802 -14.2802 0
      vertex 14.2802 -14.2802 2
      vertex 13.9063 -14.8399 2
    endloop
  endfacet
  facet normal 0.831469 -0.55557 0
    outer loop
      vertex 13.9063 -14.8399 0
      vertex 14.2802 -14.2802 0
      vertex 13.9063 -14.8399 2
    endloop
  endfacet
  facet normal 0.55557 -0.831469 0
    outer loop
      vertex 14.8399 -13.9063 0
      vertex 14.8399 -13.9063 2
      vertex 14.2802 -14.2802 2
    endloop
  endfacet
  facet normal 0.55557 -0.831469 0
    outer loop
      vertex 14.2802 -14.2802 0
      vertex 14.8399 -13.9063 0
      vertex 14.2802 -14.2802 2
    endloop
  endfacet
  facet normal 0.195091 -0.980785 0
    outer loop
      vertex 15.5 -13.775 0
      vertex 15.5 -13.775 2
      vertex 14.8399 -13.9063 2
    endloop
  endfacet
  facet normal 0.195091 -0.980785 0
    outer loop
      vertex 14.8399 -13.9063 0
      vertex 15.5 -13.775 0
      vertex 14.8399 -13.9063 2
    endloop
  endfacet
  facet normal -0.195091 -0.980785 0
    outer loop
      vertex 16.1601 -13.9063 0
      vertex 16.1601 -13.9063 2
      vertex 15.5 -13.775 2
    endloop
  endfacet
  facet normal -0.195091 -0.980785 0
    outer loop
      vertex 15.5 -13.775 0
      vertex 16.1601 -13.9063 0
      vertex 15.5 -13.775 2
    endloop
  endfacet
  facet normal -0.55557 -0.831469 0
    outer loop
      vertex 16.7198 -14.2802 0
      vertex 16.7198 -14.2802 2
      vertex 16.1601 -13.9063 2
    endloop
  endfacet
  facet normal -0.55557 -0.831469 0
    outer loop
      vertex 16.1601 -13.9063 0
      vertex 16.7198 -14.2802 0
      vertex 16.1601 -13.9063 2
    endloop
  endfacet
  facet normal -0.831469 -0.55557 0
    outer loop
      vertex 17.0937 -14.8399 2
      vertex 16.7198 -14.2802 2
      vertex 17.0937 -14.8399 0
    endloop
  endfacet
  facet normal -0.831469 -0.55557 0
    outer loop
      vertex 17.0937 -14.8399 0
      vertex 16.7198 -14.2802 2
      vertex 16.7198 -14.2802 0
    endloop
  endfacet
  facet normal -0.980785 -0.195091 0
    outer loop
      vertex 17.225 -15.5 2
      vertex 17.0937 -14.8399 2
      vertex 17.225 -15.5 0
    endloop
  endfacet
  facet normal -0.980785 -0.195091 0
    outer loop
      vertex 17.225 -15.5 0
      vertex 17.0937 -14.8399 2
      vertex 17.0937 -14.8399 0
    endloop
  endfacet
  facet normal -0.980785 0.195091 0
    outer loop
      vertex 17.225 -15.5 2
      vertex 17.225 -15.5 0
      vertex 17.0937 -16.1601 2
    endloop
  endfacet
  facet normal -0.980785 0.195091 0
    outer loop
      vertex 17.0937 -16.1601 2
      vertex 17.225 -15.5 0
      vertex 17.0937 -16.1601 0
    endloop
  endfacet
  facet normal -0.831469 0.55557 0
    outer loop
      vertex 17.0937 -16.1601 2
      vertex 17.0937 -16.1601 0
      vertex 16.7198 -16.7198 2
    endloop
  endfacet
  facet normal -0.831469 0.55557 0
    outer loop
      vertex 16.7198 -16.7198 2
      vertex 17.0937 -16.1601 0
      vertex 16.7198 -16.7198 0
    endloop
  endfacet
  facet normal -0.55557 0.831469 0
    outer loop
      vertex 16.7198 -16.7198 2
      vertex 16.7198 -16.7198 0
      vertex 16.1601 -17.0937 2
    endloop
  endfacet
  facet normal -0.55557 0.831469 0
    outer loop
      vertex 16.1601 -17.0937 2
      vertex 16.7198 -16.7198 0
      vertex 16.1601 -17.0937 0
    endloop
  endfacet
  facet normal -0.195091 0.980785 0
    outer loop
      vertex 16.1601 -17.0937 2
      vertex 16.1601 -17.0937 0
      vertex 15.5 -17.225 2
    endloop
  endfacet
  facet normal -0.195091 0.980785 0
    outer loop
      vertex 15.5 -17.225 2
      vertex 16.1601 -17.0937 0
      vertex 15.5 -17.225 0
    endloop
  endfacet
  facet normal 0.195091 0.980785 0
    outer loop
      vertex 15.5 -17.225 2
      vertex 15.5 -17.225 0
      vertex 14.8399 -17.0937 2
    endloop
  endfacet
  facet normal 0.195091 0.980785 0
    outer loop
      vertex 14.8399 -17.0937 2
      vertex 15.5 -17.225 0
      vertex 14.8399 -17.0937 0
    endloop
  endfacet
  facet normal 0.55557 0.831469 0
    outer loop
      vertex 14.8399 -17.0937 2
      vertex 14.8399 -17.0937 0
      vertex 14.2802 -16.7198 2
    endloop
  endfacet
  facet normal 0.55557 0.831469 0
    outer loop
      vertex 14.2802 -16.7198 2
      vertex 14.8399 -17.0937 0
      vertex 14.2802 -16.7198 0
    endloop
  endfacet
  facet normal 0.831469 0.55557 0
    outer loop
      vertex 13.9063 -16.1601 2
      vertex 14.2802 -16.7198 2
      vertex 14.2802 -16.7198 0
    endloop
  endfacet
  facet normal 0.831469 0.55557 0
    outer loop
      vertex 13.9063 -16.1601 0
      vertex 13.9063 -16.1601 2
      vertex 14.2802 -16.7198 0
    endloop
  endfacet
  facet normal 0.980785 -0.195091 0
    outer loop
      vertex 13.9063 16.1601 0
      vertex 13.9063 16.1601 2
      vertex 13.775 15.5 2
    endloop
  endfacet
  facet normal 0.980785 -0.195091 0
    outer loop
      vertex 13.775 15.5 0
      vertex 13.9063 16.1601 0
      vertex 13.775 15.5 2
    endloop
  endfacet
  facet normal 0.980785 0.195091 0
    outer loop
      vertex 13.775 15.5 2
      vertex 13.9063 14.8399 2
      vertex 13.9063 14.8399 0
    endloop
  endfacet
  facet normal 0.980785 0.195091 0
    outer loop
      vertex 13.775 15.5 0
      vertex 13.775 15.5 2
      vertex 13.9063 14.8399 0
    endloop
  endfacet
  facet normal 0.831469 -0.55557 0
    outer loop
      vertex 14.2802 16.7198 0
      vertex 14.2802 16.7198 2
      vertex 13.9063 16.1601 2
    endloop
  endfacet
  facet normal 0.831469 -0.55557 0
    outer loop
      vertex 13.9063 16.1601 0
      vertex 14.2802 16.7198 0
      vertex 13.9063 16.1601 2
    endloop
  endfacet
  facet normal 0.55557 -0.831469 0
    outer loop
      vertex 14.8399 17.0937 0
      vertex 14.8399 17.0937 2
      vertex 14.2802 16.7198 2
    endloop
  endfacet
  facet normal 0.55557 -0.831469 0
    outer loop
      vertex 14.2802 16.7198 0
      vertex 14.8399 17.0937 0
      vertex 14.2802 16.7198 2
    endloop
  endfacet
  facet normal 0.195091 -0.980785 0
    outer loop
      vertex 15.5 17.225 0
      vertex 15.5 17.225 2
      vertex 14.8399 17.0937 2
    endloop
  endfacet
  facet normal 0.195091 -0.980785 0
    outer loop
      vertex 14.8399 17.0937 0
      vertex 15.5 17.225 0
      vertex 14.8399 17.0937 2
    endloop
  endfacet
  facet normal -0.195091 -0.980785 0
    outer loop
      vertex 16.1601 17.0937 0
      vertex 16.1601 17.0937 2
      vertex 15.5 17.225 2
    endloop
  endfacet
  facet normal -0.195091 -0.980785 0
    outer loop
      vertex 15.5 17.225 0
      vertex 16.1601 17.0937 0
      vertex 15.5 17.225 2
    endloop
  endfacet
  facet normal -0.55557 -0.831469 0
    outer loop
      vertex 16.7198 16.7198 0
      vertex 16.7198 16.7198 2
      vertex 16.1601 17.0937 2
    endloop
  endfacet
  facet normal -0.55557 -0.831469 0
    outer loop
      vertex 16.1601 17.0937 0
      vertex 16.7198 16.7198 0
      vertex 16.1601 17.0937 2
    endloop
  endfacet
  facet normal -0.831469 -0.55557 0
    outer loop
      vertex 17.0937 16.1601 2
      vertex 16.7198 16.7198 2
      vertex 17.0937 16.1601 0
    endloop
  endfacet
  facet normal -0.831469 -0.55557 0
    outer loop
      vertex 17.0937 16.1601 0
      vertex 16.7198 16.7198 2
      vertex 16.7198 16.7198 0
    endloop
  endfacet
  facet normal -0.980785 -0.195091 0
    outer loop
      vertex 17.225 15.5 2
      vertex 17.0937 16.1601 2
      vertex 17.225 15.5 0
    endloop
  endfacet
  facet normal -0.980785 -0.195091 0
    outer loop
      vertex 17.225 15.5 0
      vertex 17.0937 16.1601 2
      vertex 17.0937 16.1601 0
    endloop
  endfacet
  facet normal -0.980785 0.195091 0
    outer loop
      vertex 17.225 15.5 2
      vertex 17.225 15.5 0
      vertex 17.0937 14.8399 2
    endloop
  endfacet
  facet normal -0.980785 0.195091 0
    outer loop
      vertex 17.0937 14.8399 2
      vertex 17.225 15.5 0
      vertex 17.0937 14.8399 0
    endloop
  endfacet
  facet normal -0.831469 0.55557 0
    outer loop
      vertex 17.0937 14.8399 2
      vertex 17.0937 14.8399 0
      vertex 16.7198 14.2802 2
    endloop
  endfacet
  facet normal -0.831469 0.55557 0
    outer loop
      vertex 16.7198 14.2802 2
      vertex 17.0937 14.8399 0
      vertex 16.7198 14.2802 0
    endloop
  endfacet
  facet normal -0.55557 0.831469 0
    outer loop
      vertex 16.7198 14.2802 2
      vertex 16.7198 14.2802 0
      vertex 16.1601 13.9063 2
    endloop
  endfacet
  facet normal -0.55557 0.831469 0
    outer loop
      vertex 16.1601 13.9063 2
      vertex 16.7198 14.2802 0
      vertex 16.1601 13.9063 0
    endloop
  endfacet
  facet normal -0.195091 0.980785 0
    outer loop
      vertex 16.1601 13.9063 2
      vertex 16.1601 13.9063 0
      vertex 15.5 13.775 2
    endloop
  endfacet
  facet normal -0.195091 0.980785 0
    outer loop
      vertex 15.5 13.775 2
      vertex 16.1601 13.9063 0
      vertex 15.5 13.775 0
    endloop
  endfacet
  facet normal 0.195091 0.980785 0
    outer loop
      vertex 15.5 13.775 2
      vertex 15.5 13.775 0
      vertex 14.8399 13.9063 2
    endloop
  endfacet
  facet normal 0.195091 0.980785 0
    outer loop
      vertex 14.8399 13.9063 2
      vertex 15.5 13.775 0
      vertex 14.8399 13.9063 0
    endloop
  endfacet
  facet normal 0.55557 0.831469 0
    outer loop
      vertex 14.8399 13.9063 2
      vertex 14.8399 13.9063 0
      vertex 14.2802 14.2802 2
    endloop
  endfacet
  facet normal 0.55557 0.831469 0
    outer loop
      vertex 14.2802 14.2802 2
      vertex 14.8399 13.9063 0
      vertex 14.2802 14.2802 0
    endloop
  endfacet
  facet normal 0.831469 0.55557 0
    outer loop
      vertex 13.9063 14.8399 2
      vertex 14.2802 14.2802 2
      vertex 14.2802 14.2802 0
    endloop
  endfacet
  facet normal 0.831469 0.55557 0
    outer loop
      vertex 13.9063 14.8399 0
      vertex 13.9063 14.8399 2
      vertex 14.2802 14.2802 0
    endloop
  endfacet
endsolid OpenSCAD_Model
